<svg width="11" height="17" viewBox="0 0 11 17" fill="none" xmlns="http://www.w3.org/2000/svg">
<path d="M2.68758 0.58635C2.29705 0.195826 1.66389 0.195826 1.27336 0.58635C0.882838 0.976875 0.882838 1.61004 1.27336 2.00056L2.68758 0.58635ZM8.98062 8.29361L9.68771 9.00073L10.3949 8.29363L9.68773 7.58651L8.98062 8.29361ZM1.27338 14.5863C0.882845 14.9769 0.882831 15.61 1.27335 16.0005C1.66386 16.3911 2.29703 16.3911 2.68756 16.0006L1.27338 14.5863ZM1.27336 2.00056L8.27352 9.00072L9.68773 7.58651L2.68758 0.58635L1.27336 2.00056ZM8.27353 7.58649L1.27338 14.5863L2.68756 16.0006L9.68771 9.00073L8.27353 7.58649Z" fill="#313131"/>
</svg>
