<svg xmlns="http://www.w3.org/2000/svg" version="1.1" xmlns:xlink="http://www.w3.org/1999/xlink" xmlns:svgjs="http://svgjs.com/svgjs" width="40" height="42"><svg fill="none" xmlns="http://www.w3.org/2000/svg" viewBox="0 0 40 42">
  <path d="m20.64 11.857 7.753-1.933a2.69 2.69 0 0 1 1.396.023l9.383 2.688c-.247-3.987-.608-6.965-.608-6.965l-8.79-2.518a2.676 2.676 0 0 0-1.427-.017l-7.544 1.977a2.703 2.703 0 0 1-2.142-.34L11.887.426A2.706 2.706 0 0 0 8.83.525L.955 6.317s-.4 2.879-.684 6.759l8.675-5.058a2.706 2.706 0 0 1 2.588-.07l7.224 3.692a2.704 2.704 0 0 0 1.88.21M18.734 29.83l-6.958-3.478a2.705 2.705 0 0 0-2.632.121L1.58 31.172c.232.492.541.944.917 1.337 4.53 4.551 17.162 9.25 17.162 9.25s12.844-4.843 17.233-9.25c.505-.508.917-1.26 1.253-2.179l-8.382-2.402a2.688 2.688 0 0 0-1.463 0l-7.645 2.098a2.704 2.704 0 0 1-1.921-.189" fill="currentColor"></path>
  <path d="m39.391 18.273-9.63-2.757a2.69 2.69 0 0 0-1.462 0l-7.62 2.098a2.705 2.705 0 0 1-1.963-.21l-6.883-3.594a2.705 2.705 0 0 0-2.734.138L0 19.928c0 1.919.06 4.945.242 6.704l8.663-5.318a2.706 2.706 0 0 1 2.7-.071l7.144 3.882a2.69 2.69 0 0 0 1.94.247l7.717-1.924c.46-.115.94-.107 1.395.025l9.375 2.687c.209-2.13.255-5.587.226-7.887" fill="currentColor"></path>
</svg><style>@media (prefers-color-scheme: light) { :root { filter: none; } }
@media (prefers-color-scheme: dark) { :root { filter: invert(100%); } }
</style></svg>