<svg width="36" height="36" viewBox="0 0 36 36" fill="none" xmlns="http://www.w3.org/2000/svg">
<path d="M35.037 29.0141H19.521C19.2087 29.0141 18.9588 28.7641 18.9588 28.4516V27.6766C18.9588 27.4766 19.04 27.2891 19.1774 27.1453L29.1342 17.1016C29.1529 17.0828 29.1717 17.0641 29.1966 17.0453C29.5589 16.6766 29.5589 16.0828 29.1904 15.7203L25.0116 11.5703C24.7929 11.3516 24.7867 10.9953 25.0116 10.7703L28.1098 7.67033C28.3284 7.45158 28.6844 7.45158 28.9093 7.67033L32.3448 11.1078C32.526 11.2891 32.7696 11.3828 33.0069 11.3828C33.2506 11.3828 33.4879 11.2891 33.6753 11.1078C34.0438 10.7391 34.0189 10.1328 33.6503 9.76408L29.1717 5.28282C28.8031 4.91407 28.2097 4.91407 27.8474 5.28282L23.6811 9.45158C23.4625 9.67033 23.1064 9.67033 22.8878 9.45158L18.6902 5.27656C18.3279 4.91406 17.7345 4.91406 17.3722 5.27656L13.1122 9.51408C12.8936 9.73283 12.5375 9.73283 12.3189 9.51408L8.08386 5.27656C7.71532 4.90781 7.12192 4.90781 6.75962 5.27656L2.33718 9.70158C1.98114 10.0578 1.94991 10.6391 2.28721 11.0141C2.6495 11.4141 3.26789 11.4266 3.64268 11.0453L7.02197 7.66407C7.2406 7.44532 7.59664 7.44532 7.82151 7.66407L10.9884 10.8328C11.2071 11.0516 11.2071 11.4141 10.9884 11.6328L6.87206 15.7203C6.52851 16.0641 6.50352 16.6141 6.8096 16.9828C6.83458 17.0141 6.85957 17.0453 6.8908 17.0766L16.885 27.1453C17.0224 27.2891 17.1036 27.4766 17.1036 27.6766V28.4516C17.1036 28.7641 16.8538 29.0141 16.5415 29.0141H0.962978C0.45702 29.0141 0.0260198 29.4016 0.00103425 29.9078C-0.0239513 30.4453 0.407049 30.8891 0.937992 30.8891H35.062C35.5929 30.8891 36.0239 30.4453 35.999 29.9078C35.974 29.4016 35.5367 29.0141 35.037 29.0141ZM9.23944 16.0016L17.6283 7.67033C17.847 7.45158 18.203 7.45158 18.4216 7.67033L26.798 15.9953C27.0167 16.2141 27.0229 16.5703 26.798 16.7953L18.4154 25.2516C18.1968 25.4766 17.8345 25.4766 17.6158 25.2516L9.22695 16.8016C9.01457 16.5766 9.02082 16.2203 9.23944 16.0016ZM18.0219 10.9516C17.5034 10.9516 17.0849 11.3703 17.0849 11.8891V16.9453C17.0849 17.4641 17.5034 17.8828 18.0219 17.8828C18.5403 17.8828 18.9588 17.4641 18.9588 16.9453V11.8891C18.9588 11.3703 18.5403 10.9516 18.0219 10.9516ZM18.0219 19.0766C17.5034 19.0766 17.0849 19.4953 17.0849 20.0141V20.3266C17.0849 20.8453 17.5034 21.2641 18.0219 21.2641C18.5403 21.2641 18.9588 20.8453 18.9588 20.3266V20.0141C18.9588 19.4953 18.5403 19.0766 18.0219 19.0766Z" fill="#313131"/>
</svg>
