<svg width="36" height="36" viewBox="0 0 36 36" fill="none" xmlns="http://www.w3.org/2000/svg">
<path d="M22.3229 19.375C22.7727 19.6312 22.9226 20.2061 22.6665 20.6561C22.4916 20.956 22.1793 21.1248 21.8545 21.1248C21.6983 21.1248 21.5359 21.0873 21.386 20.9998L18.8936 19.5625V22.4371C18.8936 22.9558 18.4751 23.3745 17.9566 23.3745C17.4381 23.3745 17.0196 22.9558 17.0196 22.4371V19.5625L14.5272 20.9998C14.3773 21.0873 14.2211 21.1248 14.0587 21.1248C13.7339 21.1248 13.4216 20.956 13.2467 20.6561C12.9906 20.2061 13.1405 19.6374 13.5902 19.375L16.0826 17.9376L13.5902 16.5003C13.1405 16.2441 12.9906 15.6691 13.2467 15.2192C13.5028 14.7692 14.0775 14.6192 14.5272 14.8755L17.0196 16.3128V13.4381C17.0196 12.9194 17.4381 12.5007 17.9566 12.5007C18.4751 12.5007 18.8936 12.9194 18.8936 13.4381V16.3128L21.386 14.8755C21.8357 14.6192 22.4042 14.7692 22.6665 15.2192C22.9226 15.6691 22.7727 16.2378 22.3229 16.5003L19.8306 17.9376L22.3229 19.375ZM33.6355 11.1321C33.2607 11.4696 32.6798 11.4384 32.3237 11.0821L28.9068 7.66376C28.6882 7.44504 28.3321 7.44504 28.1073 7.66376L24.959 10.8134C24.7404 11.0321 24.7404 11.3884 24.959 11.6071L27.67 14.338C28.0323 14.7067 28.0323 15.3004 27.6638 15.6629C27.4826 15.8441 27.2452 15.9316 27.0016 15.9316C26.758 15.9316 26.5206 15.8379 26.3332 15.6566L18.4188 7.67001C18.2002 7.44504 17.8379 7.44504 17.6193 7.67001L13.509 11.8196C13.4778 11.8633 13.4466 11.9008 13.4091 11.9383C13.3716 11.9758 13.3341 12.007 13.2967 12.032L9.69863 15.6566C9.33632 16.0253 8.7429 16.0253 8.37435 15.6629C8.00581 15.3004 8.00581 14.7067 8.36811 14.338L11.0167 11.6696C11.2353 11.4508 11.2353 11.0946 11.0167 10.8759L7.80592 7.66376C7.58729 7.44504 7.23123 7.44504 7.00635 7.66376L3.6457 11.0259C3.28964 11.3821 2.70871 11.4133 2.33392 11.0759C1.93414 10.7134 1.92165 10.0947 2.30269 9.71979L6.744 5.27653C7.11255 4.90782 7.70597 4.90782 8.06827 5.27653L12.3347 9.54481C12.5533 9.76353 12.9156 9.76353 13.1342 9.54481L17.3444 5.29528C17.4444 5.19529 17.5631 5.11405 17.6942 5.06405C18.0503 4.93282 18.4313 5.03281 18.6812 5.28278L22.8414 9.47607C23.06 9.70104 23.4223 9.70104 23.641 9.47607L27.8387 5.27653C28.2072 4.90782 28.8006 4.90782 29.1629 5.27653L33.6605 9.77603C34.0415 10.151 34.029 10.7697 33.6355 11.1321ZM0.272551 22.2309L5.20734 17.2939C5.57589 16.9252 6.16931 16.9252 6.53161 17.2939L17.5256 28.2927C17.7442 28.5115 18.1003 28.5115 18.3251 28.2927L29.3191 17.2939C29.6877 16.9252 30.2811 16.9252 30.6434 17.2939L35.7218 22.3746C36.0966 22.7496 36.0841 23.3558 35.7031 23.7182C35.3345 24.0682 34.7536 24.0557 34.3976 23.6995L30.381 19.6812C30.1624 19.4625 29.8063 19.4625 29.5815 19.6812L18.5875 30.68C18.4063 30.8612 18.1627 30.9549 17.9254 30.9549C17.688 30.9549 17.4444 30.8612 17.2632 30.68L6.26926 19.6812C6.05063 19.4625 5.69457 19.4625 5.4697 19.6812L1.59682 23.5558C1.23452 23.9182 0.653592 23.9245 0.285044 23.5683C-0.0897498 23.2058 -0.0959971 22.5996 0.272551 22.2309Z" fill="#313131"/>
</svg>
