<svg width="36" height="36" viewBox="0 0 36 36" fill="none" xmlns="http://www.w3.org/2000/svg">
<path d="M23.1125 20.2253C22.9314 20.4073 22.6877 20.5014 22.4503 20.5014C22.2129 20.5014 21.9693 20.4073 21.7881 20.2253L18.3521 16.7739C18.1335 16.5543 17.7774 16.5543 17.5525 16.7739L14.179 20.1625C13.8104 20.5328 13.2169 20.5328 12.8545 20.1625C12.486 19.7923 12.486 19.1961 12.8545 18.8322L17.2901 14.3768C17.6587 14.0065 18.2522 14.0065 18.6145 14.3768L23.1125 18.8949C23.4749 19.2652 23.4749 19.855 23.1125 20.2253ZM33.5767 11.1576C33.2019 11.4964 32.6209 11.4651 32.2648 11.1074L28.8475 7.67481C28.6289 7.45518 28.2728 7.45518 28.0479 7.67481L24.8993 10.8375C24.6806 11.0572 24.6806 11.4148 24.8993 11.6345L27.6106 14.3768C27.9729 14.747 27.9729 15.3431 27.6043 15.7071C27.4231 15.8891 27.1857 15.9769 26.9421 15.9769C26.6985 15.9769 26.4611 15.8828 26.2736 15.7008L18.3584 7.68109C18.1397 7.45518 17.7774 7.45518 17.5587 7.68109L13.448 11.8478C13.4168 11.8918 13.3856 11.9294 13.3481 11.9671C13.3106 12.0047 13.2731 12.0361 13.2356 12.0612L9.63721 15.7008C9.27487 16.0711 8.68138 16.0711 8.3128 15.7071C7.94421 15.3431 7.94421 14.747 8.30655 14.3768L10.9554 11.6972C11.174 11.4776 11.174 11.1199 10.9554 10.9003L7.7443 7.67481C7.52564 7.45518 7.16955 7.45518 6.94465 7.67481L3.58362 11.0509C3.22753 11.4086 2.64654 11.44 2.2717 11.1011C1.87188 10.7371 1.85938 10.1159 2.24047 9.73937L6.68226 5.27768C7.05085 4.90744 7.64434 4.90744 8.00668 5.27768L12.2736 9.56366C12.4922 9.78329 12.8545 9.78329 13.0732 9.56366L17.2838 5.2965C17.3838 5.1961 17.5025 5.11452 17.6337 5.06432C17.9898 4.93254 18.3709 5.03294 18.6208 5.28395L22.7814 9.49463C23.0001 9.72054 23.3624 9.72054 23.5811 9.49463L27.7792 5.27768C28.1478 4.90744 28.7413 4.90744 29.1037 5.27768L33.6017 9.79584C33.9828 10.1724 33.9703 10.7936 33.5767 11.1576ZM0.27258 22.2836L5.20791 17.3261C5.5765 16.9559 6.16999 16.9559 6.53233 17.3261L17.5275 28.3705C17.7461 28.5902 18.1022 28.5902 18.3271 28.3705L29.3223 17.3261C29.6909 16.9559 30.2844 16.9559 30.6467 17.3261L35.7257 22.4279C36.1006 22.8044 36.0881 23.4131 35.707 23.7771C35.3384 24.1285 34.7574 24.1159 34.4013 23.7582L30.3843 19.7233C30.1657 19.5036 29.8096 19.5036 29.5847 19.7233L18.5895 30.7677C18.4084 30.9496 18.1647 31.0438 17.9273 31.0438C17.6899 31.0438 17.4463 30.9496 17.2651 30.7677L6.26994 19.7233C6.05129 19.5036 5.6952 19.5036 5.4703 19.7233L1.597 23.6139C1.23466 23.9779 0.653664 23.9841 0.285076 23.6265C-0.0897596 23.2688 -0.0960076 22.6601 0.27258 22.2836Z" fill="#313131"/>
</svg>
