<svg width="36" height="36" viewBox="0 0 36 36" fill="none" xmlns="http://www.w3.org/2000/svg">
<path d="M30.4658 18.721L30.4783 18.6268C30.4908 18.4324 30.5033 17.6042 30.5095 16.569C30.5095 16.2616 30.3909 15.973 30.1787 15.7534L26.5829 12.1397C26.3644 11.9201 26.0086 11.9201 25.7901 12.1397L22.2255 15.722C22.0132 15.9353 21.8946 16.2302 21.8946 16.5376C21.9071 17.623 21.9196 18.4951 21.9321 18.6959C21.9695 18.9405 22.2692 19.0409 22.444 18.8653L25.5216 15.7722C25.8899 15.4021 26.483 15.4021 26.8451 15.7722L29.9477 18.8903C30.1287 19.066 30.4284 18.9656 30.4658 18.721ZM21.9383 18.6896C21.9383 18.677 21.9321 18.6645 21.9321 18.6582C21.9321 18.6645 21.9321 18.6708 21.9383 18.6833V18.6896ZM30.5407 11.2362C30.5407 8.83333 28.593 6.87588 26.2021 6.87588C23.8111 6.87588 21.8634 8.83333 21.8634 11.2362C21.8634 11.4182 21.8634 11.895 21.8697 12.5161C21.8697 12.8486 22.2754 13.018 22.5127 12.7796L25.5341 9.74304C25.9024 9.37288 26.4955 9.37288 26.8576 9.74304L29.904 12.8047C30.1412 13.0431 30.5407 12.8737 30.547 12.5412C30.5407 11.8699 30.5407 11.3742 30.5407 11.2362ZM27.0136 19.3546C27.2945 19.3546 27.4319 19.0158 27.2321 18.8213L26.5829 18.1688C26.3644 17.9493 26.0086 17.9493 25.7901 18.1688L25.1408 18.8213C24.9473 19.0158 25.0846 19.3546 25.3593 19.3546H27.0136ZM22.4253 21.8893L23.1806 26.8393C23.1869 26.877 23.1869 26.9146 23.1931 26.946C23.1994 27.0589 23.2118 27.1718 23.2243 27.2785C23.2243 27.2848 23.2243 27.2848 23.2243 27.2911C23.4615 28.7654 24.7163 29.8382 26.2083 29.8382C27.7003 29.8382 28.9551 28.7654 29.1923 27.2911C29.1923 27.2848 29.1923 27.2848 29.1923 27.2785C29.2111 27.1718 29.2173 27.0589 29.2235 26.946C29.2235 26.9084 29.2298 26.8707 29.236 26.8393L29.9914 21.8893C30.0413 21.5442 29.7791 21.2305 29.4296 21.2305H22.9933C22.6375 21.2368 22.3753 21.5442 22.4253 21.8893ZM6.02575 12.7859L9.0472 9.74932C9.222 9.57365 9.45922 9.47327 9.70893 9.47327C9.95864 9.47327 10.1959 9.57365 10.3707 9.74932L13.4171 12.811C13.6543 13.0494 14.0601 12.88 14.0601 12.5412V11.3178C14.0601 8.91489 12.1498 6.92608 9.76511 6.90099C7.35544 6.87589 5.38275 8.83961 5.38275 11.2613V12.5224C5.38275 12.8549 5.78853 13.0243 6.02575 12.7859ZM5.83222 21.9018L6.69371 26.8393C6.69995 26.877 6.7062 26.9209 6.7062 26.9648C6.71244 27.0777 6.72493 27.1969 6.73741 27.3099C6.73741 27.3161 6.73741 27.3162 6.73741 27.3224C6.97463 28.7968 8.22941 29.8696 9.72141 29.8696C11.2134 29.8696 12.4682 28.7968 12.7054 27.3224C12.7054 27.3162 12.7054 27.3161 12.7054 27.3099C12.7241 27.2032 12.7304 27.0903 12.7366 26.9774C12.7366 26.9335 12.7429 26.8895 12.7491 26.8456L13.6106 21.9018C13.673 21.5505 13.4046 21.2368 13.055 21.2368H6.39406C6.03823 21.2368 5.7698 21.5567 5.83222 21.9018ZM34.3987 19.9883L32.3699 17.9493C32.3636 18.4449 32.3511 18.79 32.3386 18.8841L31.0901 27.0777C31.0839 27.2409 31.0651 27.404 31.0402 27.5671C31.0402 27.5859 31.0339 27.611 31.0277 27.6298C30.8404 28.7591 30.2598 29.7943 29.3921 30.5409C28.5056 31.3063 27.3757 31.7267 26.2021 31.7267C25.0285 31.7267 23.8985 31.3063 23.0121 30.5409C22.1443 29.7881 21.5638 28.7591 21.3765 27.6298C21.3703 27.611 21.3702 27.5922 21.364 27.5671C21.339 27.404 21.3203 27.2409 21.3141 27.0777L20.078 18.9656C20.0655 18.8401 20.0468 18.4512 20.0406 17.9179L18.611 19.3546C18.2926 19.6746 17.7932 19.7185 17.4311 19.4738C17.3687 19.4362 17.3063 19.3923 17.2563 19.3358L15.9266 17.9995V19.4174C15.9266 19.4738 15.9204 19.524 15.9142 19.5805L14.6032 27.1154C14.5969 27.2785 14.5782 27.4354 14.5532 27.5922C14.5532 27.611 14.547 27.6361 14.5408 27.6549C14.3535 28.7842 13.7729 29.8194 12.9052 30.566C12.0187 31.3314 10.8888 31.7518 9.71517 31.7518C8.54155 31.7518 7.41162 31.3314 6.52516 30.566C5.65743 29.8132 5.07686 28.7842 4.88958 27.6549C4.88334 27.6361 4.88334 27.611 4.87709 27.5922C4.85212 27.4354 4.8334 27.2722 4.82715 27.1154L3.51619 19.5805C3.50995 19.524 3.5037 19.4738 3.5037 19.4174V17.9744L1.59969 19.8879C1.23761 20.2518 0.644557 20.2581 0.276239 19.8879C-0.0920795 19.5177 -0.0920795 18.9217 0.276239 18.5578L3.5037 15.3142V11.3429C3.5037 7.90479 6.23175 5.05647 9.65274 5.01882C13.1049 4.98746 15.9266 7.79815 15.9266 11.2613V15.3393L17.943 17.3658L20.0031 15.2954C19.9844 13.3191 19.9844 11.2801 19.9844 11.2425C19.9844 7.79815 22.7686 5 26.1958 5C29.6231 5 32.4073 7.79815 32.4073 11.2425C32.4073 11.2801 32.4011 13.3442 32.3886 15.3268L35.7159 18.6708C36.0842 19.0409 36.0842 19.6369 35.7159 20.0008C35.3538 20.3584 34.7608 20.3584 34.3987 19.9883ZM10.533 19.3546C10.8139 19.3546 10.9512 19.0158 10.7515 18.8213L10.1022 18.1688C9.88372 17.9493 9.52789 17.9493 9.30939 18.1688L8.66016 18.8213C8.46663 19.0158 8.60397 19.3546 8.87865 19.3546H10.533ZM5.38275 18.539V18.6457C5.37651 18.9468 5.73858 19.0974 5.95083 18.8841L9.05345 15.766C9.42176 15.3958 10.0148 15.3958 10.3769 15.766L13.4982 18.9029C13.7042 19.1099 14.0663 18.9656 14.0663 18.6645V16.5878C14.0663 16.2867 13.9477 15.9981 13.7355 15.7848L10.1147 12.1459C9.89621 11.9263 9.54037 11.9263 9.32188 12.1459L5.7261 15.7597C5.51384 15.973 5.39524 16.2616 5.39524 16.5627V18.539H5.38275Z" fill="#313131"/>
</svg>
