<svg width="36" height="36" viewBox="0 0 36 36" fill="none" xmlns="http://www.w3.org/2000/svg">
<path d="M6.45257 21.6266H30.6901V20.5016H6.50882L5.90883 21.0766L6.45257 21.6266ZM5.90883 28.6391L6.45882 29.1891H30.6963V28.0641H6.50882L5.90883 28.6391ZM32.5651 30.1266C32.5651 30.6453 32.1463 31.0641 31.6276 31.0641H6.06508C5.81508 31.0641 5.57757 30.9641 5.40257 30.7891L3.90257 29.2891C3.72132 29.1078 3.62758 28.8703 3.62758 28.6141C3.62758 28.3641 3.73382 28.1203 3.91507 27.9453L5.47757 26.4453C5.65257 26.2766 5.88383 26.1828 6.12758 26.1828H31.6276C32.1463 26.1828 32.5651 26.6016 32.5651 27.1203V30.1266ZM32.5651 19.5641V22.5641C32.5651 23.0828 32.1463 23.5016 31.6276 23.5016H6.06508C5.81508 23.5016 5.57757 23.4016 5.40257 23.2266L3.90257 21.7266C3.72132 21.5453 3.62758 21.3078 3.62758 21.0516C3.62758 20.8016 3.73382 20.5578 3.91507 20.3828L5.47757 18.8828C5.65257 18.7141 5.88383 18.6203 6.12758 18.6203H31.6276C32.1463 18.6266 32.5651 19.0453 32.5651 19.5641ZM33.6276 11.1328C33.2526 11.4703 32.6713 11.4391 32.3151 11.0828L28.8963 7.66407C28.6776 7.44532 28.3213 7.44532 28.0963 7.66407L24.9463 10.8141C24.7276 11.0328 24.7276 11.3891 24.9463 11.6078L27.6588 14.3391C28.0213 14.7078 28.0213 15.3016 27.6526 15.6641C27.4713 15.8453 27.2338 15.9328 26.9901 15.9328C26.7463 15.9328 26.5088 15.8391 26.3213 15.6578L18.4026 7.67032C18.1838 7.44532 17.8213 7.44532 17.6026 7.67032L13.4901 11.8203C13.4588 11.8641 13.4276 11.9016 13.3901 11.9391C13.3526 11.9766 13.3151 12.0078 13.2776 12.0328L9.67757 15.6578C9.31507 16.0266 8.72132 16.0266 8.35257 15.6641C7.98382 15.3016 7.98383 14.7078 8.34633 14.3391L10.9963 11.6703C11.2151 11.4516 11.2151 11.0953 10.9963 10.8766L7.78383 7.66407C7.56508 7.44532 7.20882 7.44532 6.98382 7.66407L3.62132 11.0266C3.26507 11.3828 2.68382 11.4141 2.30882 11.0766C1.90882 10.7141 1.89632 10.0953 2.27757 9.72032L6.72133 5.27656C7.09008 4.90781 7.68382 4.90781 8.04632 5.27656L12.3151 9.54532C12.5338 9.76407 12.8963 9.76407 13.1151 9.54532L17.3276 5.29532C17.4276 5.19532 17.5463 5.11407 17.6776 5.06407C18.0338 4.93282 18.4151 5.03282 18.6651 5.28282L22.8276 9.47657C23.0463 9.69532 23.4088 9.70157 23.6276 9.47657L27.8276 5.27656C28.1963 4.90781 28.7901 4.90781 29.1526 5.27656L33.6526 9.77656C34.0338 10.1516 34.0213 10.7703 33.6276 11.1328Z" fill="#313131"/>
</svg>
