<svg width="36" height="36" viewBox="0 0 36 36" fill="none" xmlns="http://www.w3.org/2000/svg">
<path d="M10.2366 11.8794L14.1618 15.8087C14.5294 16.1767 14.5294 16.7692 14.1618 17.1309C13.9811 17.3118 13.7381 17.4053 13.5014 17.4053C13.2646 17.4053 13.0216 17.3118 12.841 17.1309L10.5482 14.8357C10.3114 14.5987 9.90642 14.7671 9.90642 15.1039V17.0935C9.90642 17.3929 10.0248 17.6798 10.2366 17.8918L14.1618 21.8211C14.5294 22.1891 14.5294 22.7816 14.1618 23.1433C13.9811 23.3242 13.7381 23.4178 13.5014 23.4178C13.2646 23.4178 13.0216 23.3242 12.841 23.1433L10.5482 20.8481C10.3114 20.6111 9.90642 20.7795 9.90642 21.1163V25.4573C9.90642 25.9874 9.46406 26.4178 8.92824 26.3928C8.42357 26.3679 8.03728 25.9375 8.03728 25.4323V21.1538C8.03728 20.817 7.6323 20.6486 7.39554 20.8856L5.15881 23.1246C4.80368 23.4801 4.22425 23.5113 3.85042 23.1745C3.45167 22.8128 3.43921 22.1953 3.81927 21.8211L7.70707 17.9292C7.9189 17.7172 8.03728 17.4303 8.03728 17.1309V15.1413C8.03728 14.8045 7.6323 14.6361 7.39554 14.8731L5.14012 17.1309C4.77253 17.4989 4.18063 17.4989 3.81927 17.1309C3.45167 16.7629 3.45167 16.1704 3.81927 15.8087L7.70707 11.9168C7.9189 11.7047 8.03728 11.4178 8.03728 11.1185V9.15382C8.03728 8.81703 7.6323 8.64863 7.39554 8.88563L5.14012 11.1434C4.77253 11.5114 4.18063 11.5114 3.81927 11.1434C3.45167 10.7754 3.45167 10.1829 3.81927 9.82118L8.15566 5.48025C8.31765 5.19335 8.62294 5 8.97185 5C9.27091 5 9.53882 5.14345 9.71327 5.36798L14.1618 9.82118C14.5294 10.1892 14.5294 10.7817 14.1618 11.1434C13.9811 11.3243 13.7381 11.4178 13.5014 11.4178C13.2646 11.4178 13.0216 11.3243 12.841 11.1434L10.5482 8.84821C10.3114 8.61121 9.90642 8.7796 9.90642 9.1164V11.081C9.90642 11.3804 10.0248 11.6673 10.2366 11.8794ZM0.934568 30.8834H13.4765C16.4608 30.8834 18.8783 28.4635 18.8783 25.476V10.4698C18.8783 8.51765 20.4608 6.93346 22.4109 6.93346H34.9528C35.47 6.93346 35.8874 6.51558 35.8874 5.99792C35.8874 5.48025 35.47 5.06237 34.9528 5.06237H22.4109C19.4265 5.06237 17.0091 7.48231 17.0091 10.4698V25.476C17.0091 27.4281 15.4266 29.0123 13.4765 29.0123H0.934568C0.41744 29.0123 0 29.4302 0 29.9479C0 30.4655 0.41744 30.8834 0.934568 30.8834ZM26.9156 9.55299C27.2146 9.55299 27.4825 9.69644 27.657 9.92097L32.1055 14.3742C32.4731 14.7421 32.4731 15.3347 32.1055 15.6964C31.9248 15.8773 31.6818 15.9708 31.4451 15.9708C31.2083 15.9708 30.9653 15.8773 30.7847 15.6964L28.4918 13.4012C28.2551 13.1642 27.8501 13.3326 27.8501 13.6694V15.634C27.8501 15.9334 27.9685 16.2203 28.1803 16.4324L32.1055 20.3617C32.4731 20.7296 32.4731 21.3222 32.1055 21.6839C31.9248 21.8648 31.6818 21.9583 31.4451 21.9583C31.2083 21.9583 30.9653 21.8648 30.7847 21.6839L28.4918 19.3887C28.2551 19.1517 27.8501 19.3201 27.8501 19.6569V21.6465C27.8501 21.9458 27.9685 22.2327 28.1803 22.4448L32.1055 26.3741C32.4731 26.7421 32.4731 27.3346 32.1055 27.6963C31.9248 27.8772 31.6818 27.9708 31.4451 27.9708C31.2083 27.9708 30.9653 27.8772 30.7847 27.6963L28.4918 25.4011C28.2551 25.1641 27.8501 25.3325 27.8501 25.6693V30.0103C27.8501 30.5404 27.4078 30.9707 26.8719 30.9458C26.3673 30.9208 25.981 30.4905 25.981 29.9853V25.7067C25.981 25.3699 25.576 25.2015 25.3392 25.4386L23.1025 27.6776C22.7474 28.0331 22.1679 28.0643 21.7941 27.7275C21.3954 27.3658 21.3829 26.7483 21.763 26.3741L25.6508 22.4822C25.8626 22.2702 25.981 21.9833 25.981 21.6839V19.6943C25.981 19.3575 25.576 19.1891 25.3392 19.4261L23.0838 21.6839C22.7162 22.0519 22.1243 22.0519 21.763 21.6839C21.3954 21.3159 21.3954 20.7234 21.763 20.3617L25.6508 16.4698C25.8626 16.2577 25.981 15.9708 25.981 15.6715V13.7068C25.981 13.37 25.576 13.2016 25.3392 13.4386L23.0838 15.6964C22.7162 16.0644 22.1243 16.0644 21.763 15.6964C21.3954 15.3284 21.3954 14.7359 21.763 14.3742L26.0994 10.0332C26.2614 9.74633 26.5666 9.55299 26.9156 9.55299Z" fill="#313131"/>
</svg>
