<svg width="36" height="36" viewBox="0 0 36 36" fill="none" xmlns="http://www.w3.org/2000/svg">
<path d="M31.4156 14.4128C30.8972 14.4128 30.4788 13.9924 30.4788 13.4715C30.4788 9.83819 27.5371 6.88257 23.9208 6.88257C22.1158 6.88257 20.4358 7.60422 19.2054 8.89064L21.5475 11.2125C21.9035 11.5702 21.941 12.1537 21.6037 12.5303C21.2414 12.9319 20.6294 12.9444 20.2484 12.5742L18.3372 10.6791C18.1186 10.4594 17.7626 10.4594 17.544 10.6791L15.6641 12.5679C15.483 12.7499 15.2394 12.844 15.002 12.844C14.7647 12.844 14.5211 12.7499 14.34 12.5679C13.9715 12.1977 13.9715 11.6015 14.34 11.2376L16.6884 8.87807C15.458 7.6042 13.7841 6.88257 11.9916 6.88257C8.37541 6.88257 5.43371 9.83819 5.43371 13.4715C5.43371 13.9924 5.01525 14.4128 4.49686 14.4128C3.97848 14.4128 3.56002 13.9924 3.56002 13.4715C3.56002 8.80278 7.34488 5 11.9916 5C14.2651 5 16.3823 5.89109 17.9562 7.48499C19.5301 5.89736 21.6474 5 23.9208 5C28.5676 5 32.3524 8.80278 32.3524 13.4715C32.3524 13.9924 31.934 14.4128 31.4156 14.4128ZM35.9749 21.0018C35.9749 21.5226 35.5565 21.9431 35.0381 21.9431H32.7896C32.7834 21.9431 32.7834 21.9431 32.7771 21.9431C32.7522 21.9431 32.7209 21.9431 32.696 21.9368C32.6835 21.9368 32.6647 21.9305 32.6522 21.9305C32.6397 21.9305 32.621 21.9243 32.6085 21.9243C32.5898 21.918 32.5773 21.918 32.5585 21.9117C32.5461 21.9054 32.5336 21.9054 32.5211 21.8991C32.5023 21.8929 32.4898 21.8866 32.4774 21.8803C32.4649 21.8741 32.4524 21.874 32.4399 21.8678C32.4274 21.8615 32.4149 21.8552 32.3962 21.849C32.3837 21.8427 32.3712 21.8364 32.3524 21.8301C32.34 21.8239 32.3275 21.8176 32.315 21.805C32.3025 21.7987 32.29 21.7925 32.2775 21.7799C32.265 21.7674 32.2525 21.7611 32.2338 21.7486C32.2213 21.7423 32.215 21.736 32.2025 21.7235C32.1776 21.7046 32.1526 21.6858 32.1338 21.6607L30.2227 19.7405C29.9978 19.5146 29.6356 19.5209 29.417 19.7468L26.1693 23.1542C26.1693 23.1542 26.1693 23.1542 26.163 23.1605C26.1568 23.1667 26.1505 23.173 26.1443 23.1793C25.9631 23.355 25.7258 23.4491 25.4885 23.4491C25.2574 23.4491 25.0201 23.3613 24.8389 23.1856C24.8015 23.1479 24.764 23.1103 24.739 23.0663L18.3872 16.697C18.1686 16.4774 17.8126 16.4774 17.594 16.697L11.1797 23.0726C11.1547 23.1103 11.1235 23.1417 11.0923 23.173C10.9111 23.355 10.6676 23.4491 10.4302 23.4491C10.1929 23.4491 9.94932 23.355 9.76819 23.173L9.7557 23.1605L6.33308 19.7217C6.11448 19.502 5.75848 19.502 5.53364 19.7217L3.59749 21.667C3.39763 21.8678 3.12907 21.9556 2.873 21.9368C2.85426 21.9368 2.83552 21.9368 2.81054 21.9368H0.936847C0.418458 21.9368 0 21.5164 0 20.9955C0 20.4747 0.418458 20.0542 0.936847 20.0542H2.54822L5.27132 17.3182C5.63982 16.948 6.23315 16.948 6.5954 17.3182L10.0305 20.7696C10.2491 20.9892 10.6051 20.9892 10.8237 20.7696L17.3254 14.2999C17.6939 13.9359 18.281 13.9359 18.6433 14.2999L25.0638 20.7382C25.2886 20.9641 25.6509 20.9579 25.8695 20.732L29.111 17.3308C29.2858 17.1488 29.5232 17.0421 29.7792 17.0421C30.0291 17.0359 30.2726 17.1363 30.4538 17.3182L33.1769 20.0542H35.0381C35.5565 20.0605 35.9749 20.481 35.9749 21.0018ZM22.5218 26.7499L18.6183 30.6405C18.4371 30.8225 18.1998 30.9167 17.9562 30.9167C17.7127 30.9167 17.4816 30.8225 17.2942 30.6405L13.5156 26.8754C13.1471 26.5115 13.1471 25.9153 13.5093 25.5451C13.8716 25.1748 14.4649 25.1748 14.8334 25.5388L17.5565 28.2497C17.7751 28.4693 18.1311 28.4693 18.3497 28.2497L21.1977 25.4133C21.5662 25.0493 22.1595 25.0493 22.5218 25.4196C22.8903 25.7898 22.8903 26.3859 22.5218 26.7499Z" fill="#313131"/>
</svg>
