<svg width="24" height="24" viewBox="0 0 24 24" fill="none" xmlns="http://www.w3.org/2000/svg">
<g clip-path="url(#clip0_1427_4853)">
<path d="M23.8175 6.84667L17.1533 0.1825C17.0363 0.0657657 16.8778 0.000145376 16.7125 0L7.2875 0C7.1222 0.000145376 6.9637 0.0657657 6.84667 0.1825L0.1825 6.84667C0.0657657 6.9637 0.000145376 7.1222 0 7.2875L0 16.7125C0.000145376 16.8778 0.0657657 17.0363 0.1825 17.1533L6.84667 23.8175C6.9637 23.9342 7.1222 23.9999 7.2875 24H16.7125C16.8778 23.9999 17.0363 23.9342 17.1533 23.8175L23.8175 17.1533C23.9342 17.0363 23.9999 16.8778 24 16.7125V7.2875C23.9999 7.1222 23.9342 6.9637 23.8175 6.84667ZM22.6092 16.6L16.6 22.6071C16.5064 22.7004 16.3797 22.7528 16.2475 22.7529H7.7525C7.62034 22.7528 7.49361 22.7004 7.4 22.6071L1.39292 16.6C1.29963 16.5064 1.2472 16.3797 1.24708 16.2475V7.7525C1.2472 7.62034 1.29963 7.49361 1.39292 7.4L7.4 1.39292C7.49361 1.29963 7.62034 1.2472 7.7525 1.24708H14.5629C14.6483 1.24708 14.7301 1.28096 14.7905 1.34127C14.8509 1.40158 14.8849 1.4834 14.885 1.56875V5.53625C13.9338 5.82792 13.2733 6.79 13.2733 7.99708V14.0271C13.2733 15.6996 14.6254 17.1125 16.2262 17.1125H18.2917C19.2058 17.1125 20.0238 16.6842 20.4804 15.9671C20.9038 15.3004 20.9442 14.4863 20.5908 13.7308C20.5544 13.6534 20.5024 13.5843 20.4381 13.5278C20.3738 13.4713 20.2986 13.4286 20.2172 13.4024C20.1357 13.3761 20.0498 13.3669 19.9646 13.3752C19.8794 13.3836 19.7969 13.4093 19.7221 13.4508C19.4333 13.6113 19.3321 13.9742 19.4688 14.275C19.6771 14.7371 19.5629 15.0858 19.4271 15.2975C19.2008 15.6533 18.7758 15.8654 18.2904 15.8654H16.2262C15.3175 15.8654 14.52 15.0067 14.52 14.0271V7.99708C14.52 7.34708 14.8596 6.68958 15.5087 6.68958H15.54H15.5462C16.0879 6.71375 16.4346 7.01125 16.7417 7.71708L17.0525 8.43083C17.0866 8.50919 17.0882 8.59787 17.0569 8.6774C17.0257 8.75693 16.9641 8.8208 16.8858 8.855L16.7642 8.9075C16.6774 8.94365 16.5997 8.99857 16.5367 9.06833C16.4576 9.15719 16.4055 9.26676 16.3865 9.38419C16.3676 9.50162 16.3825 9.62202 16.4296 9.73125L17.6825 12.6325C17.7312 12.744 17.8113 12.8388 17.913 12.9054C18.0148 12.972 18.1338 13.0075 18.2554 13.0075C18.3394 13.008 18.4227 12.9912 18.5 12.9583L20.5083 12.0908C20.6173 12.0433 20.7104 11.9658 20.7768 11.8673C20.8432 11.7688 20.8802 11.6534 20.8833 11.5346C20.885 11.4405 20.8661 11.3472 20.8279 11.2612L19.5779 8.37C19.512 8.2185 19.3888 8.09926 19.2352 8.03836C19.0816 7.97746 18.9102 7.97984 18.7583 8.045L18.6171 8.10583C18.5389 8.13975 18.4504 8.14125 18.3711 8.11C18.2918 8.07875 18.2282 8.01731 18.1942 7.93917L17.8813 7.22083C17.4708 6.27833 16.8946 5.71875 16.1283 5.5225V1.56417C16.1321 1.32958 16.4229 1.22 16.5867 1.38542L22.6071 7.4C22.7004 7.49361 22.7528 7.62034 22.7529 7.7525V16.2475C22.7528 16.3797 22.7004 16.5064 22.6071 16.6H22.6092ZM18.1183 9.68333L18.3904 9.56583C18.4687 9.5319 18.5572 9.53039 18.6365 9.56164C18.7159 9.59288 18.7796 9.65433 18.8138 9.7325L19.3171 10.8992C19.3339 10.9379 19.343 10.9796 19.3438 11.0218C19.3445 11.0641 19.3369 11.106 19.3214 11.1454C19.306 11.1847 19.2829 11.2205 19.2535 11.2509C19.2242 11.2813 19.1892 11.3057 19.1504 11.3225L18.875 11.4392C18.7967 11.4731 18.7082 11.4746 18.6289 11.4434C18.5495 11.4121 18.4858 11.3507 18.4517 11.2725L17.9483 10.1058C17.9315 10.067 17.9225 10.0253 17.9219 9.98297C17.9212 9.94067 17.9289 9.89866 17.9445 9.85933C17.9601 9.82001 17.9833 9.78415 18.0128 9.75381C18.0422 9.72346 18.0774 9.69923 18.1163 9.6825L18.1183 9.68333ZM10.5096 8.91667H9.39333L10.1508 6.77667C10.1746 6.70979 10.1867 6.63932 10.1867 6.56833C10.1906 6.28465 10.1382 6.00302 10.0323 5.73979C9.92653 5.47655 9.76945 5.23697 9.57024 5.03497C9.37104 4.83296 9.13367 4.67256 8.87194 4.56308C8.61021 4.45359 8.32933 4.39721 8.04563 4.39721C7.76192 4.39721 7.48104 4.45359 7.21931 4.56308C6.95758 4.67256 6.72022 4.83296 6.52101 5.03497C6.3218 5.23697 6.16473 5.47655 6.0589 5.73979C5.95308 6.00302 5.90063 6.28465 5.90458 6.56833C5.90447 6.62787 5.91303 6.6871 5.93 6.74417L6.56958 8.91667H5.52167C5.36422 8.92819 5.21697 8.99886 5.1095 9.11449C5.00202 9.23012 4.94228 9.38214 4.94228 9.54C4.94228 9.69787 5.00202 9.84988 5.1095 9.96551C5.21697 10.0811 5.36422 10.1518 5.52167 10.1633H10.5096C10.5953 10.1696 10.6813 10.1581 10.7624 10.1297C10.8435 10.1012 10.9178 10.0563 10.9807 9.99778C11.0436 9.93929 11.0938 9.86845 11.1282 9.78968C11.1625 9.71092 11.1802 9.62592 11.1802 9.54C11.1802 9.45408 11.1625 9.36909 11.1282 9.29032C11.0938 9.21155 11.0436 9.14071 10.9807 9.08222C10.9178 9.02372 10.8435 8.97883 10.7624 8.95035C10.6813 8.92186 10.5953 8.9104 10.5096 8.91667ZM7.97292 8.91667C7.94302 8.91672 7.91391 8.90709 7.88995 8.88921C7.86599 8.87133 7.84846 8.84617 7.84 8.8175L7.18667 6.59917C7.16202 6.51799 7.15929 6.43174 7.17875 6.34917C7.22632 6.16114 7.3337 5.99366 7.48473 5.87197C7.63576 5.75028 7.82224 5.68096 8.01609 5.67448C8.20993 5.66799 8.40064 5.72467 8.55946 5.83599C8.71829 5.94731 8.83663 6.10724 8.89667 6.29167C8.92797 6.39292 8.92534 6.50163 8.88917 6.60125L8.10292 8.82167C8.09387 8.84909 8.07648 8.87299 8.05316 8.89003C8.02985 8.90707 8.00179 8.91638 7.97292 8.91667ZM10.5096 11.4104H5.52167C5.36422 11.4219 5.21697 11.4926 5.1095 11.6082C5.00202 11.7239 4.94228 11.8759 4.94228 12.0338C4.94228 12.1916 5.00202 12.3436 5.1095 12.4593C5.21697 12.5749 5.36422 12.6456 5.52167 12.6571H10.5096C10.667 12.6456 10.8143 12.5749 10.9218 12.4593C11.0292 12.3436 11.089 12.1916 11.089 12.0338C11.089 11.8759 11.0292 11.7239 10.9218 11.6082C10.8143 11.4926 10.667 11.4219 10.5096 11.4104ZM10.5096 13.8925H5.52167C5.36366 13.9033 5.21565 13.9737 5.10756 14.0895C4.99946 14.2052 4.93934 14.3577 4.93934 14.516C4.93934 14.6744 4.99946 14.8269 5.10756 14.9426C5.21565 15.0584 5.36366 15.1288 5.52167 15.1396H6.55125L5.95833 17.3583C5.94455 17.4108 5.93755 17.4649 5.9375 17.5192C5.9375 18.0781 6.15954 18.6142 6.55477 19.0094C6.95001 19.4046 7.48606 19.6267 8.045 19.6267C8.60394 19.6267 9.13999 19.4046 9.53523 19.0094C9.93046 18.6142 10.1525 18.0781 10.1525 17.5192C10.1526 17.4595 10.1441 17.4001 10.1271 17.3429L9.47792 15.1379H10.5092C10.6672 15.1271 10.8152 15.0567 10.9233 14.941C11.0314 14.8252 11.0915 14.6727 11.0915 14.5144C11.0915 14.356 11.0314 14.2035 10.9233 14.0878C10.8152 13.972 10.6672 13.9016 10.5092 13.8908L10.5096 13.8925ZM8.04542 18.38C7.85278 18.38 7.6657 18.3155 7.51399 18.1968C7.36228 18.0781 7.25468 17.912 7.20833 17.725C7.1902 17.6469 7.19192 17.5656 7.21333 17.4883L7.81333 15.2383C7.82123 15.2089 7.83861 15.1829 7.8628 15.1644C7.88699 15.1458 7.91661 15.1358 7.94708 15.1358H8.07208C8.10192 15.1358 8.13097 15.1455 8.15486 15.1633C8.17875 15.1812 8.1962 15.2064 8.20458 15.235L8.86667 17.4829C8.89355 17.5737 8.89355 17.6704 8.86667 17.7612C8.81434 17.9389 8.70623 18.095 8.55833 18.2064C8.41043 18.3178 8.23059 18.3787 8.04542 18.38Z" fill="#313131"/>
</g>
<defs>
<clipPath id="clip0_1427_4853">
<rect width="24" height="24" fill="white"/>
</clipPath>
</defs>
</svg>
