<svg width="24" height="24" viewBox="0 0 24 24" fill="none" xmlns="http://www.w3.org/2000/svg">
<g clip-path="url(#clip0_1427_4854)">
<path d="M23.8175 6.84667L17.1533 0.1825C17.0363 0.0657657 16.8778 0.000145376 16.7125 0L7.2875 0C7.1222 0.000145376 6.9637 0.0657657 6.84667 0.1825L0.1825 6.84667C0.0657657 6.9637 0.000145376 7.1222 0 7.2875L0 16.7125C0.000145376 16.8778 0.0657657 17.0363 0.1825 17.1533L6.84667 23.8175C6.9637 23.9342 7.1222 23.9999 7.2875 24H16.7125C16.8778 23.9999 17.0363 23.9342 17.1533 23.8175L23.8175 17.1533C23.9342 17.0363 23.9999 16.8778 24 16.7125V7.2875C23.9999 7.1222 23.9342 6.9637 23.8175 6.84667ZM14.3479 13.0133V15.95C14.3479 17.2533 13.3125 18.3413 12.0092 18.3613C11.6943 18.3657 11.3817 18.3076 11.0894 18.1903C10.7972 18.073 10.5311 17.8988 10.3068 17.6779C10.0824 17.4569 9.90409 17.1936 9.78226 16.9032C9.66044 16.6128 9.59749 16.3012 9.59708 15.9863V13.0112C9.59688 12.7827 9.62986 12.5553 9.695 12.3363C9.70948 12.2886 9.73444 12.2449 9.76804 12.2082C9.80165 12.1714 9.84304 12.1427 9.8892 12.1241C9.93535 12.1055 9.98509 12.0974 10.0348 12.1005C10.0844 12.1036 10.1328 12.1178 10.1763 12.1421C10.7231 12.455 11.3422 12.6196 11.9723 12.6196C12.6023 12.6196 13.2215 12.455 13.7683 12.1421C13.8118 12.1178 13.8602 12.1035 13.9099 12.1004C13.9596 12.0972 14.0094 12.1052 14.0556 12.1239C14.1019 12.1425 14.1433 12.1712 14.1769 12.208C14.2106 12.2447 14.2355 12.2886 14.25 12.3363C14.3151 12.5553 14.3481 12.7827 14.3479 13.0112V13.0133ZM11.9729 5.63833C12.6033 5.63922 13.2229 5.47441 13.7696 5.16042C13.8129 5.13631 13.8611 5.12218 13.9106 5.11904C13.96 5.1159 14.0096 5.12384 14.0556 5.14229C14.1016 5.16073 14.143 5.18921 14.1766 5.22564C14.2102 5.26208 14.2353 5.30556 14.25 5.35292C14.3148 5.57106 14.3476 5.79744 14.3475 6.025V8.9975C14.3475 9.22607 14.3144 9.45344 14.2492 9.6725C14.2347 9.72012 14.2097 9.76389 14.1761 9.8006C14.1425 9.83731 14.1011 9.86603 14.055 9.88465C14.0088 9.90328 13.9591 9.91133 13.9094 9.90821C13.8597 9.9051 13.8114 9.8909 13.7679 9.86667C13.221 9.55378 12.6019 9.38919 11.9719 9.38919C11.3418 9.38919 10.7227 9.55378 10.1758 9.86667C10.1324 9.8909 10.084 9.9051 10.0343 9.90821C9.98468 9.91133 9.93494 9.90328 9.88878 9.88465C9.84263 9.86603 9.80123 9.83731 9.76762 9.8006C9.73402 9.76389 9.70906 9.72012 9.69458 9.6725C9.62947 9.45342 9.59649 9.22605 9.59667 8.9975V6.025C9.59642 5.79746 9.62912 5.57108 9.69375 5.35292C9.70823 5.3053 9.73319 5.26153 9.76679 5.22482C9.8004 5.18811 9.84179 5.15938 9.88795 5.14076C9.9341 5.12214 9.98384 5.11409 10.0335 5.1172C10.0832 5.12032 10.1315 5.13451 10.175 5.15875C10.7219 5.47283 11.3418 5.63764 11.9725 5.63667L11.9729 5.63833ZM11.125 4.23292C11.0821 4.21609 11.0453 4.18674 11.0194 4.14869C10.9934 4.11063 10.9795 4.06564 10.9795 4.01958C10.9795 3.97352 10.9934 3.92853 11.0194 3.89048C11.0453 3.85243 11.0821 3.82307 11.125 3.80625C11.6711 3.59745 12.2751 3.59745 12.8212 3.80625C12.8641 3.82307 12.9009 3.85243 12.9269 3.89048C12.9528 3.92853 12.9667 3.97352 12.9667 4.01958C12.9667 4.06564 12.9528 4.11063 12.9269 4.14869C12.9009 4.18674 12.8641 4.21609 12.8212 4.23292C12.2752 4.44234 11.671 4.44234 11.125 4.23292ZM12.8154 10.7917C12.8583 10.8086 12.895 10.838 12.9209 10.8761C12.9468 10.9142 12.9607 10.9592 12.9607 11.0052C12.9607 11.0513 12.9468 11.0963 12.9209 11.1343C12.895 11.1724 12.8583 11.2018 12.8154 11.2188C12.2725 11.4254 11.6725 11.4254 11.1296 11.2188C11.0866 11.202 11.0496 11.1727 11.0236 11.1345C10.9975 11.0964 10.9836 11.0514 10.9836 11.0052C10.9836 10.9591 10.9975 10.914 11.0236 10.8759C11.0496 10.8378 11.0866 10.8084 11.1296 10.7917C11.6725 10.585 12.2725 10.585 12.8154 10.7917ZM14.3479 2.01458C14.3479 2.24203 14.3149 2.46827 14.25 2.68625C14.2356 2.7339 14.2106 2.77772 14.1771 2.81448C14.1435 2.85124 14.1021 2.88 14.0559 2.89867C14.0098 2.91733 13.96 2.92542 13.9103 2.92233C13.8606 2.91925 13.8122 2.90507 13.7688 2.88083C13.2218 2.5674 12.6023 2.4025 11.9719 2.4025C11.3415 2.4025 10.722 2.5674 10.175 2.88083C10.1315 2.90507 10.0831 2.91925 10.0334 2.92233C9.98374 2.92542 9.93399 2.91733 9.88783 2.89867C9.84167 2.88 9.80027 2.85124 9.76669 2.81448C9.7331 2.77772 9.70818 2.7339 9.69375 2.68625C9.62909 2.46823 9.59639 2.24199 9.59667 2.01458V1.62083C9.59667 1.52138 9.63618 1.42599 9.7065 1.35567C9.77683 1.28534 9.87221 1.24583 9.97167 1.24583H13.975C14.0745 1.24583 14.1698 1.28534 14.2402 1.35567C14.3105 1.42599 14.35 1.52138 14.35 1.62083L14.3479 2.01458ZM16.2471 22.7529H7.75292C7.62041 22.7529 7.49333 22.7003 7.39958 22.6067L1.79792 17.005C1.76595 16.9731 1.74414 16.9324 1.73524 16.8881C1.72634 16.8437 1.73074 16.7978 1.74788 16.756C1.76503 16.7142 1.79416 16.6783 1.8316 16.653C1.86905 16.6277 1.91314 16.6141 1.95833 16.6138H2.9925C3.15484 16.6154 3.31165 16.5548 3.43074 16.4445C3.54983 16.3341 3.62217 16.1824 3.63292 16.0204C3.63681 15.936 3.62352 15.8516 3.59385 15.7724C3.56419 15.6932 3.51877 15.6209 3.46034 15.5598C3.40191 15.4987 3.33169 15.45 3.25393 15.4168C3.17616 15.3836 3.09247 15.3666 3.00792 15.3667H1.62083C1.52138 15.3667 1.42599 15.3272 1.35567 15.2568C1.28534 15.1865 1.24583 15.0911 1.24583 14.9917V12.9958C1.24583 12.8964 1.28534 12.801 1.35567 12.7307C1.42599 12.6603 1.52138 12.6208 1.62083 12.6208H4.91667C5.07896 12.6225 5.23572 12.5619 5.35475 12.4515C5.47377 12.3412 5.54603 12.1895 5.55667 12.0275C5.56037 11.9433 5.54703 11.8593 5.51744 11.7805C5.48786 11.7016 5.44263 11.6295 5.38449 11.5686C5.32634 11.5076 5.25648 11.4591 5.1791 11.4258C5.10171 11.3925 5.0184 11.3753 4.93417 11.375H1.62083C1.52138 11.375 1.42599 11.3355 1.35567 11.2652C1.28534 11.1948 1.24583 11.0995 1.24583 11V9.00417C1.24583 8.90471 1.28534 8.80933 1.35567 8.739C1.42599 8.66868 1.52138 8.62917 1.62083 8.62917H2.9925C3.1539 8.6309 3.30991 8.57114 3.42885 8.46202C3.54779 8.35291 3.62075 8.20262 3.63292 8.04167C3.63681 7.9572 3.62352 7.87283 3.59385 7.79365C3.56419 7.71447 3.51877 7.64214 3.46034 7.58102C3.40191 7.5199 3.33169 7.47128 3.25393 7.43809C3.17616 7.40489 3.09247 7.38783 3.00792 7.38792H1.95833C1.913 7.38793 1.86868 7.3745 1.83098 7.34932C1.79328 7.32414 1.76389 7.28834 1.74654 7.24646C1.72919 7.20458 1.72465 7.15848 1.7335 7.11402C1.74235 7.06956 1.76419 7.02872 1.79625 6.99667L7.39958 1.39333C7.49333 1.29969 7.62041 1.24709 7.75292 1.24708H7.97625C8.07571 1.24708 8.17109 1.28659 8.24142 1.35692C8.31174 1.42724 8.35125 1.52263 8.35125 1.62208V2.01583C8.35056 2.6313 8.50765 3.23668 8.8075 3.77417C8.84973 3.84952 8.8719 3.93445 8.8719 4.02083C8.8719 4.10721 8.84973 4.19215 8.8075 4.2675C8.50742 4.80465 8.34991 5.40971 8.35 6.025V8.9975C8.34953 9.61374 8.50735 10.2198 8.80833 10.7575C8.85056 10.8329 8.87273 10.9179 8.87273 11.0044C8.87273 11.0908 8.85056 11.1758 8.80833 11.2513C8.50735 11.789 8.34953 12.395 8.35 13.0112V15.9379C8.35 17.9321 9.9425 19.5867 11.9367 19.6046C12.4153 19.6089 12.89 19.5185 13.3334 19.3384C13.7769 19.1583 14.1803 18.8922 14.5203 18.5554C14.8604 18.2187 15.1304 17.8179 15.3148 17.3762C15.4992 16.9345 15.5943 16.4607 15.5946 15.9821V13.0112C15.5951 12.395 15.4372 11.789 15.1362 11.2513C15.0938 11.1759 15.0715 11.0909 15.0715 11.0044C15.0715 10.9179 15.0938 10.8329 15.1362 10.7575C15.4372 10.2198 15.5951 9.61374 15.5946 8.9975V6.025C15.5953 5.4094 15.4382 4.80389 15.1383 4.26625C15.0961 4.1909 15.0739 4.10596 15.0739 4.01958C15.0739 3.9332 15.0961 3.84827 15.1383 3.77292C15.4382 3.23543 15.5953 2.63005 15.5946 2.01458V1.62083C15.5946 1.52138 15.6341 1.42599 15.7044 1.35567C15.7747 1.28534 15.8701 1.24583 15.9696 1.24583H16.2483C16.3808 1.24584 16.5079 1.29844 16.6017 1.39208L22.2021 6.995C22.2341 7.02705 22.256 7.06789 22.2648 7.11235C22.2737 7.15682 22.2691 7.20291 22.2518 7.24479C22.2344 7.28668 22.2051 7.32247 22.1674 7.34765C22.1297 7.37283 22.0853 7.38627 22.04 7.38625H20.9833C20.821 7.38452 20.6641 7.44505 20.545 7.5554C20.4259 7.66576 20.3536 7.81755 20.3429 7.97958C20.339 8.06387 20.3523 8.14807 20.3818 8.22711C20.4113 8.30615 20.4566 8.37839 20.5148 8.43948C20.573 8.50056 20.643 8.54923 20.7205 8.58255C20.798 8.61587 20.8815 8.63314 20.9658 8.63333H22.3792C22.4786 8.63333 22.574 8.67284 22.6443 8.74317C22.7147 8.81349 22.7542 8.90888 22.7542 9.00833V11.0042C22.7542 11.1036 22.7147 11.199 22.6443 11.2693C22.574 11.3397 22.4786 11.3792 22.3792 11.3792H18.9883C18.826 11.3774 18.6691 11.438 18.55 11.5483C18.4309 11.6587 18.3586 11.8105 18.3479 11.9725C18.3442 12.0567 18.3576 12.1408 18.3872 12.2196C18.4168 12.2985 18.4621 12.3706 18.5202 12.4316C18.5784 12.4925 18.6483 12.5411 18.7258 12.5743C18.8032 12.6076 18.8866 12.6248 18.9708 12.625H22.3792C22.4786 12.625 22.574 12.6645 22.6443 12.7348C22.7147 12.8052 22.7542 12.9005 22.7542 13V14.9958C22.7542 15.0953 22.7147 15.1907 22.6443 15.261C22.574 15.3313 22.4786 15.3708 22.3792 15.3708H20.9833C20.8219 15.369 20.6658 15.4287 20.5469 15.5379C20.4279 15.647 20.355 15.7973 20.3429 15.9583C20.339 16.0426 20.3523 16.1268 20.3818 16.2059C20.4113 16.2849 20.4566 16.3571 20.5148 16.4182C20.573 16.4793 20.643 16.528 20.7205 16.5613C20.798 16.5946 20.8815 16.6119 20.9658 16.6121H22.0417C22.087 16.6121 22.1313 16.6255 22.169 16.6507C22.2067 16.6759 22.2361 16.7117 22.2535 16.7535C22.2708 16.7954 22.2754 16.8415 22.2665 16.886C22.2577 16.9304 22.2358 16.9713 22.2038 17.0033L16.6004 22.6067C16.5067 22.7003 16.3796 22.7529 16.2471 22.7529Z" fill="#313131"/>
</g>
<defs>
<clipPath id="clip0_1427_4854">
<rect width="24" height="24" fill="white"/>
</clipPath>
</defs>
</svg>
