<svg width="24" height="24" viewBox="0 0 24 24" fill="none" xmlns="http://www.w3.org/2000/svg">
<g clip-path="url(#clip0_1427_4849)">
<path d="M23.8175 6.84667L17.1533 0.1825C17.0363 0.0657657 16.8778 0.000145376 16.7125 0L7.2875 0C7.1222 0.000145376 6.9637 0.0657657 6.84667 0.1825L0.1825 6.84667C0.0657657 6.9637 0.000145376 7.1222 0 7.2875L0 16.7125C0.000145376 16.8778 0.0657657 17.0363 0.1825 17.1533L6.84667 23.8175C6.9637 23.9342 7.1222 23.9999 7.2875 24H16.7125C16.8778 23.9999 17.0363 23.9342 17.1533 23.8175L23.8175 17.1533C23.9342 17.0363 23.9999 16.8778 24 16.7125V7.2875C23.9999 7.1222 23.9342 6.9637 23.8175 6.84667ZM8.995 22.7529H7.75333C7.68755 22.753 7.62241 22.74 7.56164 22.7149C7.50086 22.6897 7.44565 22.6528 7.39917 22.6063L1.39375 16.6008C1.34716 16.5543 1.31022 16.499 1.28505 16.4382C1.25988 16.3773 1.24698 16.3121 1.24708 16.2463V9.0075C1.24708 8.90804 1.28659 8.81266 1.35692 8.74234C1.42724 8.67201 1.52263 8.6325 1.62208 8.6325H7C7.09946 8.6325 7.19484 8.67201 7.26517 8.74234C7.33549 8.81266 7.375 8.90804 7.375 9.0075V12C7.375 12.0995 7.33549 12.1948 7.26517 12.2652C7.19484 12.3355 7.09946 12.375 7 12.375H6.02042C5.85805 12.3733 5.70118 12.4338 5.58207 12.5442C5.46296 12.6545 5.39065 12.8063 5.38 12.9683C5.37618 13.0526 5.38943 13.1367 5.41897 13.2156C5.44851 13.2946 5.49371 13.3668 5.55187 13.4278C5.61002 13.4888 5.67993 13.5375 5.75737 13.5708C5.83481 13.6041 5.91819 13.6214 6.0025 13.6217H7.53167C7.59755 13.6216 7.66279 13.6346 7.72364 13.6598C7.78449 13.6851 7.83975 13.7221 7.88625 13.7688L8.225 14.1075C8.27154 14.154 8.30845 14.2092 8.33362 14.27C8.35879 14.3307 8.37172 14.3959 8.37167 14.4617V16.9875C8.37167 17.087 8.33216 17.1823 8.26183 17.2527C8.19151 17.323 8.09612 17.3625 7.99667 17.3625H7.01792C6.85555 17.3608 6.69868 17.4213 6.57957 17.5317C6.46046 17.642 6.38815 17.7938 6.3775 17.9558C6.37374 18.04 6.38703 18.1241 6.4166 18.203C6.44616 18.2819 6.49137 18.354 6.54952 18.415C6.60767 18.476 6.67756 18.5246 6.75497 18.5579C6.83238 18.5912 6.91573 18.6085 7 18.6087H8.52958C8.59536 18.6087 8.66051 18.6216 8.72128 18.6468C8.78206 18.672 8.83727 18.7089 8.88375 18.7554L9.2225 19.0942C9.26909 19.1407 9.30603 19.196 9.3312 19.2568C9.35637 19.3177 9.36927 19.3829 9.36917 19.4487V22.3788C9.36895 22.4779 9.32945 22.573 9.25933 22.6431C9.18921 22.7132 9.09417 22.7527 8.995 22.7529ZM14.3663 14V17.5242C14.3662 17.59 14.3533 17.6551 14.328 17.7159C14.3028 17.7767 14.2658 17.8319 14.2192 17.8783L13.5525 18.545C13.4358 18.662 13.3701 18.8205 13.37 18.9858V22.3788C13.37 22.4782 13.3305 22.5736 13.2602 22.6439C13.1898 22.7142 13.0945 22.7538 12.995 22.7538H10.9904C10.891 22.7538 10.7956 22.7142 10.7253 22.6439C10.6549 22.5736 10.6154 22.4782 10.6154 22.3788V18.9829C10.6156 18.8176 10.5503 18.6589 10.4338 18.5417L9.76708 17.875C9.72054 17.8285 9.68363 17.7733 9.65846 17.7125C9.63329 17.6518 9.62037 17.5866 9.62042 17.5208V13.995C9.62027 13.8297 9.55465 13.6712 9.43792 13.5542L8.77125 12.8875C8.67742 12.7933 8.62469 12.6659 8.62458 12.5329V8.01C8.62458 7.84424 8.55874 7.68527 8.44153 7.56806C8.32432 7.45085 8.16534 7.385 7.99958 7.385H1.9675C1.9215 7.38511 1.8765 7.37154 1.83822 7.34602C1.79994 7.3205 1.77011 7.28418 1.75252 7.24167C1.73493 7.19916 1.73036 7.15238 1.73941 7.10728C1.74846 7.06217 1.77071 7.02077 1.80333 6.98833L7.39917 1.3925C7.44565 1.34596 7.50086 1.30905 7.56164 1.28388C7.62241 1.25871 7.68755 1.24578 7.75333 1.24583H16.2467C16.3124 1.24578 16.3776 1.25871 16.4384 1.28388C16.4991 1.30905 16.5543 1.34596 16.6008 1.3925L22.1967 6.98833C22.2293 7.02077 22.2515 7.06217 22.2606 7.10728C22.2696 7.15238 22.2651 7.19916 22.2475 7.24167C22.2299 7.28418 22.2001 7.3205 22.1618 7.34602C22.1235 7.37154 22.0785 7.38511 22.0325 7.385H15.9908C15.8251 7.385 15.6661 7.45085 15.5489 7.56806C15.4317 7.68527 15.3658 7.84424 15.3658 8.01V12.5317C15.3657 12.6646 15.313 12.7921 15.2192 12.8862L14.5479 13.5571C14.49 13.6153 14.4442 13.6845 14.413 13.7605C14.3818 13.8365 14.3659 13.9179 14.3663 14ZM22.6063 16.6025L16.6008 22.6063C16.5543 22.6528 16.4991 22.6897 16.4384 22.7149C16.3776 22.74 16.3124 22.753 16.2467 22.7529H14.9896C14.8901 22.7529 14.7947 22.7134 14.7244 22.6431C14.6541 22.5728 14.6146 22.4774 14.6146 22.3779V19.4517C14.6146 19.3859 14.6276 19.3207 14.6528 19.2599C14.6781 19.1991 14.715 19.1439 14.7617 19.0975L15.1 18.7588C15.1465 18.7121 15.2018 18.6751 15.2626 18.6498C15.3235 18.6246 15.3887 18.6116 15.4546 18.6117H16.9546C17.117 18.6134 17.2738 18.5529 17.3929 18.4425C17.512 18.3322 17.5844 18.1804 17.595 18.0183C17.5988 17.9339 17.5855 17.8496 17.5558 17.7704C17.5261 17.6913 17.4807 17.619 17.4223 17.558C17.3638 17.4969 17.2936 17.4483 17.2159 17.4151C17.1382 17.382 17.0545 17.3649 16.97 17.365H15.9875C15.888 17.365 15.7927 17.3255 15.7223 17.2552C15.652 17.1848 15.6125 17.0895 15.6125 16.99V14.4642C15.6124 14.3983 15.6254 14.333 15.6507 14.2722C15.6759 14.2113 15.7129 14.1561 15.7596 14.1096L16.1012 13.7679C16.1477 13.7213 16.2029 13.6843 16.2637 13.6591C16.3244 13.6338 16.3896 13.6208 16.4554 13.6208H17.9554C18.1178 13.6226 18.2746 13.562 18.3938 13.4517C18.5129 13.3413 18.5852 13.1895 18.5958 13.0275C18.5995 12.9433 18.5862 12.8593 18.5566 12.7805C18.527 12.7016 18.4818 12.6295 18.4237 12.5686C18.3655 12.5076 18.2956 12.4591 18.2183 12.4258C18.1409 12.3925 18.0576 12.3753 17.9733 12.375H16.9879C16.8885 12.375 16.7931 12.3355 16.7228 12.2652C16.6524 12.1948 16.6129 12.0995 16.6129 12V9.0075C16.6129 8.90804 16.6524 8.81266 16.7228 8.74234C16.7931 8.67201 16.8885 8.6325 16.9879 8.6325H22.3788C22.4782 8.6325 22.5736 8.67201 22.6439 8.74234C22.7142 8.81266 22.7538 8.90804 22.7538 9.0075V16.2463C22.7537 16.3122 22.7407 16.3774 22.7154 16.4383C22.6901 16.4991 22.653 16.5544 22.6063 16.6008V16.6025ZM12.0121 4.39417C11.8463 4.39417 11.6874 4.46001 11.5701 4.57723C11.4529 4.69444 11.3871 4.85341 11.3871 5.01917V9.00958C11.3979 9.16759 11.4683 9.31559 11.584 9.42369C11.6998 9.53179 11.8523 9.59191 12.0106 9.59191C12.169 9.59191 12.3215 9.53179 12.4372 9.42369C12.553 9.31559 12.6234 9.16759 12.6342 9.00958V5.01708C12.6337 4.85212 12.5681 4.69401 12.4516 4.57725C12.335 4.46048 12.177 4.39452 12.0121 4.39375V4.39417ZM12 10.8779C11.8342 10.8779 11.6753 10.9438 11.5581 11.061C11.4408 11.1782 11.375 11.3372 11.375 11.5029V12.0029C11.3858 12.1609 11.4562 12.3089 11.572 12.417C11.6877 12.5251 11.8402 12.5852 11.9985 12.5852C12.1569 12.5852 12.3094 12.5251 12.4251 12.417C12.5409 12.3089 12.6113 12.1609 12.6221 12.0029V11.5C12.6213 11.3352 12.5555 11.1775 12.439 11.061C12.3225 10.9445 12.1648 10.8787 12 10.8779Z" fill="#313131"/>
</g>
<defs>
<clipPath id="clip0_1427_4849">
<rect width="24" height="24" fill="white"/>
</clipPath>
</defs>
</svg>
