<svg width="24" height="24" viewBox="0 0 24 24" fill="none" xmlns="http://www.w3.org/2000/svg">
<g clip-path="url(#clip0_1427_4848)">
<path d="M23.8175 6.84667L17.1533 0.1825C17.0363 0.0657657 16.8778 0.000145376 16.7125 0L7.2875 0C7.1222 0.000145376 6.9637 0.0657657 6.84667 0.1825L0.1825 6.84667C0.0657657 6.9637 0.000145376 7.1222 0 7.2875L0 16.7125C0.000145376 16.8778 0.0657657 17.0363 0.1825 17.1533L6.84667 23.8175C6.9637 23.9342 7.1222 23.9999 7.2875 24H16.7125C16.8778 23.9999 17.0363 23.9342 17.1533 23.8175L23.8175 17.1533C23.9342 17.0363 23.9999 16.8778 24 16.7125V7.2875C23.9999 7.1222 23.9342 6.9637 23.8175 6.84667ZM7.75292 1.24708H16.2471C16.3796 1.24709 16.5067 1.29969 16.6004 1.39333L19.1758 3.96875C19.2101 4.00374 19.2334 4.04805 19.2427 4.09616C19.2521 4.14427 19.2471 4.19406 19.2283 4.23934C19.2096 4.28462 19.178 4.3234 19.1374 4.35085C19.0968 4.37831 19.049 4.39322 19 4.39375H14.285C14.2131 4.39415 14.1426 4.37354 14.0822 4.33446C14.0218 4.29538 13.9741 4.23953 13.945 4.17375C13.78 3.79387 13.5077 3.47047 13.1614 3.24332C12.8151 3.01616 12.41 2.89514 11.9958 2.89514C11.5817 2.89514 11.1766 3.01616 10.8303 3.24332C10.484 3.47047 10.2116 3.79387 10.0467 4.17375C10.0176 4.23953 9.96988 4.29538 9.90948 4.33446C9.84909 4.37354 9.7786 4.39415 9.70667 4.39375H5C4.951 4.39322 4.90323 4.37831 4.86264 4.35085C4.82204 4.3234 4.79041 4.28462 4.77168 4.23934C4.75294 4.19406 4.74793 4.14427 4.75726 4.09616C4.7666 4.04805 4.78986 4.00374 4.82417 3.96875L7.39958 1.39333C7.49333 1.29969 7.62041 1.24709 7.75292 1.24708ZM17.3363 13.9971L16.1071 18.0954C16.0837 18.1721 16.0364 18.2393 15.9721 18.2872C15.9077 18.335 15.8298 18.361 15.7496 18.3613H12.9925C12.8934 18.3613 12.7983 18.322 12.7281 18.2522C12.6578 18.1823 12.6181 18.0874 12.6175 17.9883V13.4954C12.6175 13.396 12.657 13.3006 12.7273 13.2303C12.7977 13.1599 12.893 13.1204 12.9925 13.1204H17.0725L17.3363 13.9971ZM7.895 18.0933L6.66667 13.995L6.84875 13.3883C6.872 13.3116 6.91921 13.2444 6.98348 13.1964C7.04774 13.1485 7.12567 13.1225 7.20583 13.1221H11C11.0995 13.1221 11.1948 13.1616 11.2652 13.2319C11.3355 13.3022 11.375 13.3976 11.375 13.4971V17.9863C11.3744 18.0853 11.3347 18.1802 11.2644 18.2501C11.1942 18.3199 11.0991 18.3592 11 18.3592H8.2525C8.17232 18.3589 8.09434 18.3329 8.03 18.2851C7.96565 18.2372 7.91834 18.17 7.895 18.0933ZM7.44583 11.395L7.895 9.895C7.91834 9.81829 7.96565 9.75109 8.03 9.70324C8.09434 9.6554 8.17232 9.62944 8.2525 9.62917H15.7475C15.8277 9.62944 15.9057 9.6554 15.97 9.70324C16.0343 9.75109 16.0817 9.81829 16.105 9.895L16.5542 11.395C16.5704 11.4507 16.5735 11.5094 16.5632 11.5665C16.553 11.6236 16.5296 11.6775 16.4949 11.724C16.4603 11.7705 16.4153 11.8084 16.3636 11.8346C16.3118 11.8608 16.2547 11.8746 16.1967 11.875H7.80333C7.74533 11.8746 7.6882 11.8608 7.63645 11.8346C7.5847 11.8084 7.53973 11.7705 7.50508 11.724C7.47043 11.6775 7.44705 11.6236 7.43677 11.5665C7.42649 11.5094 7.42959 11.4507 7.44583 11.395ZM11.9958 5.895C11.8225 5.89459 11.6532 5.84282 11.5092 5.74623C11.3653 5.64964 11.2532 5.51257 11.1871 5.35231C11.121 5.19206 11.1039 5.01582 11.1379 4.84584C11.1719 4.67586 11.2555 4.51977 11.3782 4.39729C11.5008 4.2748 11.657 4.19141 11.8271 4.15764C11.9971 4.12387 12.1733 4.14124 12.3335 4.20756C12.4936 4.27388 12.6305 4.38617 12.7269 4.53025C12.8233 4.67433 12.8748 4.84374 12.875 5.01708C12.8749 5.13241 12.8521 5.24658 12.8078 5.35308C12.7636 5.45958 12.6988 5.55632 12.6171 5.63777C12.5355 5.71922 12.4386 5.78378 12.332 5.82778C12.2254 5.87177 12.1112 5.89433 11.9958 5.89417V5.895ZM22.6067 16.6033L16.6004 22.6067C16.5067 22.7003 16.3796 22.7529 16.2471 22.7529H7.75292C7.62041 22.7529 7.49333 22.7003 7.39958 22.6067L1.39333 16.6004C1.29969 16.5067 1.24709 16.3796 1.24708 16.2471V7.75292C1.24709 7.62041 1.29969 7.49333 1.39333 7.39958L3.00583 5.78667C3.09965 5.69318 3.22672 5.64073 3.35917 5.64083H9.70833C9.78032 5.64046 9.85085 5.66107 9.9113 5.70014C9.97176 5.73921 10.0195 5.79505 10.0487 5.86083C10.2648 6.35686 10.6611 6.75239 11.1575 6.9675C11.2235 6.99656 11.2795 7.04426 11.3187 7.10474C11.358 7.16521 11.3787 7.23583 11.3783 7.30792V8.01083C11.3783 8.11029 11.3388 8.20567 11.2685 8.276C11.1982 8.34632 11.1028 8.38583 11.0033 8.38583H7.51125C7.37714 8.38603 7.24664 8.42935 7.13905 8.50941C7.03145 8.58947 6.95246 8.70201 6.91375 8.83042L5.86875 12.3133V12.3188L5.41875 13.8188C5.38378 13.9356 5.38378 14.0602 5.41875 14.1771L6.915 19.165C6.95379 19.2933 7.03281 19.4058 7.1404 19.4858C7.24799 19.5657 7.37844 19.609 7.5125 19.6092H16.4888C16.6228 19.609 16.7533 19.5657 16.8609 19.4858C16.9684 19.4058 17.0475 19.2933 17.0863 19.165L18.5833 14.1742C18.6183 14.0573 18.6183 13.9327 18.5833 13.8158L18.1338 12.3158C18.1338 12.3137 18.1338 12.3117 18.1317 12.31L17.0871 8.82708C17.0484 8.69875 16.9695 8.58625 16.862 8.5062C16.7544 8.42615 16.624 8.38278 16.49 8.3825H12.9967C12.8972 8.3825 12.8018 8.34299 12.7315 8.27267C12.6612 8.20234 12.6217 8.10696 12.6217 8.0075V7.30458C12.6213 7.23272 12.6419 7.16231 12.6809 7.10194C12.7199 7.04157 12.7756 6.99385 12.8413 6.96458C13.3346 6.74888 13.7281 6.3546 13.9429 5.86083C13.9721 5.79505 14.0199 5.73921 14.0804 5.70014C14.1408 5.66107 14.2114 5.64046 14.2833 5.64083H20.6408C20.7733 5.64073 20.9004 5.69318 20.9942 5.78667L22.6067 7.39958C22.7003 7.49333 22.7529 7.62041 22.7529 7.75292V16.2471C22.7529 16.3796 22.7003 16.5067 22.6067 16.6004V16.6033Z" fill="#313131"/>
</g>
<defs>
<clipPath id="clip0_1427_4848">
<rect width="24" height="24" fill="white"/>
</clipPath>
</defs>
</svg>
