<svg width="24" height="24" viewBox="0 0 24 24" fill="none" xmlns="http://www.w3.org/2000/svg">
<g clip-path="url(#clip0_1427_4856)">
<path d="M23.8175 6.84667L17.1533 0.1825C17.0363 0.0657657 16.8778 0.000145376 16.7125 0L7.2875 0C7.1222 0.000145376 6.9637 0.0657657 6.84667 0.1825L0.1825 6.84667C0.0657657 6.9637 0.000145376 7.1222 0 7.2875L0 16.7125C0.000145376 16.8778 0.0657657 17.0363 0.1825 17.1533L6.84667 23.8175C6.9637 23.9342 7.1222 23.9999 7.2875 24H16.7125C16.8778 23.9999 17.0363 23.9342 17.1533 23.8175L23.8175 17.1533C23.9342 17.0363 23.9999 16.8778 24 16.7125V7.2875C23.9999 7.1222 23.9342 6.9637 23.8175 6.84667ZM6.18417 21.3913L4.60083 19.8058C4.53112 19.7356 4.49199 19.6406 4.49199 19.5417C4.49199 19.4427 4.53112 19.3477 4.60083 19.2775L5.73208 18.1433C5.8024 18.0731 5.89771 18.0337 5.99708 18.0337C6.09646 18.0337 6.19177 18.0731 6.26208 18.1433L7.84125 19.7354C7.91072 19.8056 7.94968 19.9004 7.94968 19.9992C7.94968 20.0979 7.91072 20.1927 7.84125 20.2629L6.71625 21.3904C6.68145 21.4256 6.64005 21.4535 6.59442 21.4725C6.54879 21.4916 6.49984 21.5015 6.45038 21.5015C6.40093 21.5016 6.35195 21.4919 6.30626 21.473C6.26057 21.4541 6.21908 21.4263 6.18417 21.3913ZM7.66 22.7529C7.60841 22.7531 7.55749 22.7412 7.51125 22.7183C7.37833 22.6529 7.35542 22.5133 7.46 22.4083L9.32208 20.5417C9.33593 20.5282 9.35068 20.5156 9.36625 20.5042C9.38745 20.4881 9.40762 20.4707 9.42667 20.4521C9.44718 20.4312 9.46638 20.4091 9.48417 20.3858C9.4955 20.3704 9.50789 20.3558 9.52125 20.3421L11.7146 18.1438C11.7849 18.0735 11.8802 18.0341 11.9796 18.0341C12.079 18.0341 12.1743 18.0735 12.2446 18.1438L16.455 22.3925C16.4864 22.424 16.509 22.4633 16.5204 22.5063C16.5277 22.5357 16.5282 22.5664 16.5218 22.596C16.5154 22.6257 16.5024 22.6535 16.4836 22.6773C16.4648 22.7011 16.4408 22.7203 16.4135 22.7334C16.3861 22.7465 16.3562 22.7532 16.3258 22.7529H7.66ZM17.25 21.4246L16.1038 20.2667C16.0344 20.1965 15.9955 20.1018 15.9955 20.0031C15.9955 19.9045 16.0344 19.8098 16.1038 19.7396L17.6958 18.1438C17.7307 18.1089 17.772 18.0813 17.8175 18.0624C17.863 18.0436 17.9118 18.0339 17.961 18.0339C18.0103 18.0339 18.0591 18.0436 18.1046 18.0624C18.1501 18.0813 18.1914 18.1089 18.2262 18.1438L19.375 19.305C19.4447 19.3752 19.4838 19.4702 19.4838 19.5692C19.4838 19.6681 19.4447 19.7631 19.375 19.8333L17.7817 21.4267C17.7467 21.4616 17.7052 21.4892 17.6595 21.508C17.6138 21.5268 17.5648 21.5363 17.5154 21.5361C17.466 21.5359 17.4171 21.526 17.3716 21.5068C17.326 21.4877 17.2847 21.4597 17.25 21.4246ZM22.6067 16.6004L20.7854 18.4217C20.7506 18.4565 20.7092 18.4841 20.6637 18.503C20.6182 18.5218 20.5695 18.5315 20.5202 18.5315C20.471 18.5315 20.4222 18.5218 20.3767 18.503C20.3312 18.4841 20.2898 18.4565 20.255 18.4217L18.4071 16.5558C18.3492 16.4974 18.2803 16.451 18.2045 16.4193C18.1286 16.3875 18.0472 16.3711 17.965 16.3708C17.7993 16.371 17.6404 16.4369 17.5233 16.5542L15.2317 18.8521C15.1614 18.9223 15.066 18.9618 14.9667 18.9618C14.8673 18.9618 14.772 18.9223 14.7017 18.8521L12.4263 16.5563C12.3684 16.498 12.2996 16.4517 12.2238 16.42C12.148 16.3883 12.0667 16.3719 11.9846 16.3717C11.819 16.3719 11.6603 16.4379 11.5433 16.555L9.25167 18.8538C9.18135 18.924 9.08604 18.9634 8.98667 18.9634C8.88729 18.9634 8.79198 18.924 8.72167 18.8538L6.43875 16.5542C6.38087 16.4959 6.31207 16.4496 6.23629 16.4179C6.1605 16.3862 6.07922 16.3698 5.99708 16.3696C5.83138 16.3697 5.67251 16.4357 5.55542 16.5529L3.7175 18.395C3.64722 18.465 3.55209 18.5043 3.45292 18.5043C3.35375 18.5043 3.25861 18.465 3.18833 18.395L1.39333 16.6004C1.29969 16.5067 1.24709 16.3796 1.24708 16.2471V7.75292C1.24709 7.62041 1.29969 7.49333 1.39333 7.39958L7.39958 1.39333C7.49333 1.29969 7.62041 1.24709 7.75292 1.24708H16.2471C16.3796 1.24709 16.5067 1.29969 16.6004 1.39333L22.6067 7.39958C22.7003 7.49333 22.7529 7.62041 22.7529 7.75292V16.2471C22.7529 16.3796 22.7003 16.5067 22.6067 16.6004ZM12 6.395C11.4844 6.39492 10.9803 6.54777 10.5515 6.83422C10.1228 7.12066 9.78861 7.52784 9.5913 8.00424C9.39399 8.48063 9.34241 9.00484 9.44308 9.51056C9.54374 10.0163 9.79214 10.4808 10.1568 10.8453C10.5215 11.2098 10.9862 11.458 11.4919 11.5584C11.9977 11.6588 12.5219 11.607 12.9982 11.4095C13.4745 11.2119 13.8815 10.8776 14.1677 10.4487C14.454 10.0198 14.6066 9.51564 14.6062 9C14.6051 8.30923 14.3302 7.64709 13.8416 7.15876C13.353 6.67043 12.6908 6.39577 12 6.395ZM12 10.3608C11.7312 10.3608 11.4683 10.2811 11.2448 10.1318C11.0212 9.98245 10.847 9.77019 10.744 9.52183C10.6411 9.27347 10.6141 9.00017 10.6665 8.73647C10.7188 8.47277 10.8482 8.23051 11.0382 8.04032C11.2282 7.85013 11.4703 7.72054 11.734 7.66794C11.9976 7.61534 12.271 7.64209 12.5194 7.7448C12.7679 7.84751 12.9803 8.02158 13.1298 8.245C13.2794 8.46842 13.3593 8.73115 13.3596 9C13.3596 9.3607 13.2164 9.70664 12.9614 9.96181C12.7065 10.217 12.3607 10.3605 12 10.3608ZM15.9888 4.125L15.3333 4.78125C15.2639 4.8508 15.1754 4.89834 15.0791 4.9179C14.9827 4.93747 14.8828 4.9282 14.7917 4.89125C14.2032 4.64838 13.5859 4.4823 12.955 4.39708C12.8656 4.38455 12.7837 4.34018 12.7244 4.27214C12.6651 4.20409 12.6323 4.11694 12.6321 4.02667V3.35625C12.6338 3.19388 12.5733 3.03702 12.4629 2.9179C12.3526 2.79879 12.2008 2.72648 12.0387 2.71583C11.9544 2.71172 11.87 2.72476 11.7908 2.75417C11.7116 2.78357 11.6392 2.82873 11.5779 2.88692C11.5167 2.9451 11.4678 3.0151 11.4344 3.09269C11.4009 3.17028 11.3836 3.25384 11.3833 3.33833V4.025C11.3831 4.11533 11.3503 4.20254 11.2908 4.27059C11.2314 4.33865 11.1495 4.38297 11.06 4.39542C10.4274 4.4797 9.80828 4.64509 9.21792 4.8875C9.12719 4.92443 9.02757 4.93374 8.93157 4.91424C8.83557 4.89474 8.74747 4.84732 8.67833 4.77792L8.025 4.125C7.91142 4.00893 7.75767 3.94078 7.59539 3.93458C7.4331 3.92838 7.27461 3.9846 7.1525 4.09167C7.0902 4.14853 7.04006 4.21741 7.00509 4.29417C6.97012 4.37093 6.95104 4.45397 6.94902 4.53829C6.947 4.62262 6.96206 4.70648 6.99331 4.78482C7.02455 4.86317 7.07133 4.93438 7.13083 4.99417L7.51375 5.37708C7.54754 5.41095 7.57364 5.4517 7.59028 5.49655C7.60693 5.5414 7.61372 5.58931 7.6102 5.63702C7.60668 5.68473 7.59294 5.73113 7.5699 5.77305C7.54685 5.81498 7.51506 5.85145 7.47667 5.88C6.50833 6.60292 5.65833 7.56 4.99542 8.67875C4.99415 8.6806 4.99304 8.68255 4.99208 8.68458L4.98917 8.69042C4.98 8.70625 4.97167 8.72167 4.96417 8.73792C4.96 8.74667 4.95667 8.75542 4.95333 8.76417C4.95 8.77292 4.945 8.78333 4.94167 8.79333C4.93833 8.80333 4.93417 8.81667 4.93083 8.82833C4.9275 8.84 4.92625 8.84333 4.92417 8.85083C4.92208 8.85833 4.91875 8.87583 4.91625 8.88833C4.91375 8.90083 4.91333 8.90292 4.9125 8.91C4.91167 8.91708 4.90958 8.93375 4.90875 8.94542C4.90792 8.95708 4.90667 8.9625 4.90625 8.97125C4.90583 8.98 4.90625 8.99167 4.90625 9.00167C4.90625 9.01167 4.90625 9.0225 4.90625 9.0325C4.90625 9.0425 4.90625 9.04958 4.90875 9.05833C4.91125 9.06708 4.90875 9.08167 4.9125 9.09375C4.91625 9.10583 4.915 9.10792 4.91625 9.11542C4.9175 9.12292 4.92125 9.14042 4.92417 9.15292C4.92708 9.16542 4.92833 9.16792 4.93083 9.175C4.93333 9.18208 4.9375 9.19875 4.94167 9.21042C4.94583 9.22208 4.94917 9.22958 4.95333 9.23958C4.9575 9.24958 4.96 9.25708 4.96417 9.26583C4.97167 9.28167 4.98 9.2975 4.98917 9.31292L4.99208 9.31917C4.99304 9.3212 4.99415 9.32315 4.99542 9.325C5.6525 10.4342 6.49542 11.3846 7.45375 12.1054C7.49161 12.134 7.52292 12.1704 7.54558 12.2121C7.56825 12.2538 7.58175 12.2999 7.58518 12.3472C7.58861 12.3945 7.58189 12.4421 7.56548 12.4866C7.54907 12.5311 7.52333 12.5716 7.49 12.6054L7.125 12.9729C6.88 13.2179 6.86583 13.62 7.11 13.8658C7.22691 13.9832 7.38561 14.0493 7.55124 14.0497C7.71686 14.05 7.87587 13.9847 7.99333 13.8679L8.64708 13.2125C8.71639 13.1427 8.80486 13.095 8.90129 13.0755C8.99771 13.056 9.09775 13.0655 9.18875 13.1029C9.78601 13.3512 10.4131 13.5206 11.0542 13.6067C11.1435 13.6192 11.2253 13.6635 11.2846 13.7315C11.3439 13.7994 11.3768 13.8865 11.3771 13.9767V14.6588C11.3754 14.8211 11.436 14.9779 11.5464 15.097C11.6567 15.2161 11.8084 15.2884 11.9704 15.2992C12.0548 15.3032 12.1391 15.29 12.2182 15.2605C12.2973 15.2311 12.3697 15.1858 12.4309 15.1276C12.492 15.0694 12.5408 14.9994 12.5741 14.9218C12.6075 14.8442 12.6248 14.7607 12.625 14.6763V13.9767C12.6254 13.8863 12.6583 13.7992 12.7178 13.7312C12.7773 13.6632 12.8593 13.619 12.9487 13.6067C13.5665 13.5237 14.1714 13.3632 14.7492 13.1292C14.8399 13.0926 14.9394 13.0835 15.0352 13.1032C15.131 13.1228 15.2189 13.1703 15.2879 13.2396L16.0104 13.9625C16.1279 14.0794 16.287 14.1448 16.4527 14.1445C16.6185 14.1441 16.7772 14.0779 16.8942 13.9604C17.1379 13.7146 17.1238 13.3125 16.8787 13.0675L16.4583 12.6479C16.4245 12.614 16.3983 12.5731 16.3817 12.5281C16.3651 12.4831 16.3584 12.4351 16.362 12.3873C16.3656 12.3394 16.3795 12.293 16.4028 12.251C16.426 12.2091 16.4581 12.1726 16.4967 12.1442C17.4763 11.4192 18.3363 10.4546 19.0054 9.32542C19.0067 9.32357 19.0078 9.32162 19.0088 9.31958L19.0117 9.31333C19.0208 9.29792 19.0292 9.28208 19.0367 9.26625C19.0408 9.2575 19.0442 9.24875 19.0475 9.24C19.0508 9.23125 19.0558 9.22042 19.0592 9.21083C19.0625 9.20125 19.0667 9.18708 19.07 9.17542C19.0733 9.16375 19.0746 9.16083 19.0767 9.15333C19.0788 9.14583 19.0821 9.12833 19.0842 9.11583C19.0859 9.10869 19.0873 9.10145 19.0883 9.09417C19.0883 9.08208 19.0912 9.07042 19.0921 9.05875C19.0929 9.04708 19.0942 9.04167 19.0946 9.03292C19.095 9.02417 19.0946 9.0125 19.0946 9.00208C19.0946 8.99167 19.0946 8.98167 19.0946 8.97167C19.0946 8.96167 19.0946 8.95458 19.0921 8.94583C19.0896 8.93708 19.0921 8.92208 19.0883 8.91042C19.0873 8.90312 19.086 8.89589 19.0842 8.88875C19.0822 8.87625 19.0797 8.86375 19.0767 8.85125C19.0767 8.84375 19.0725 8.83625 19.07 8.82875C19.0675 8.82125 19.0633 8.80542 19.0592 8.79375C19.055 8.78208 19.0517 8.77417 19.0475 8.76458C19.0433 8.755 19.0408 8.74708 19.0367 8.73833C19.0292 8.72208 19.0208 8.70667 19.0117 8.69083L19.0088 8.685C19.0078 8.68297 19.0067 8.68102 19.0054 8.67917C18.3446 7.56333 17.4967 6.60833 16.5317 5.8875C16.4933 5.85895 16.4616 5.8225 16.4386 5.78061C16.4156 5.73872 16.4019 5.69238 16.3984 5.64472C16.3949 5.59706 16.4016 5.5492 16.4182 5.50439C16.4348 5.45958 16.4609 5.41886 16.4946 5.385L16.8838 4.99625C16.9433 4.93646 16.99 4.86525 17.0213 4.78691C17.0525 4.70856 17.0676 4.6247 17.0656 4.54038C17.0635 4.45605 17.0445 4.37301 17.0095 4.29625C16.9745 4.2195 16.9244 4.15061 16.8621 4.09375C16.7402 3.98617 16.5817 3.92944 16.4192 3.93525C16.2567 3.94106 16.1026 4.00898 15.9888 4.125ZM17.5967 8.79167C17.6391 8.85394 17.6618 8.92755 17.6618 9.00292C17.6618 9.07828 17.6391 9.1519 17.5967 9.21417C16.9729 10.1183 16.2083 10.875 15.3558 11.4167C14.3113 12.0833 13.1821 12.4221 12 12.4221C10.8179 12.4221 9.68875 12.0833 8.64417 11.4167C7.79292 10.875 7.02708 10.1175 6.40333 9.21167C6.36088 9.1494 6.33817 9.07578 6.33817 9.00042C6.33817 8.92505 6.36088 8.85144 6.40333 8.78917C7.02833 7.88375 7.79292 7.12833 8.64417 6.58458C9.68875 5.91792 10.8179 5.57917 12 5.57917C13.1821 5.57917 14.3113 5.9175 15.3558 6.58458C16.2083 7.12917 16.9729 7.88458 17.5967 8.79167Z" fill="#313131"/>
</g>
<defs>
<clipPath id="clip0_1427_4856">
<rect width="24" height="24" fill="white"/>
</clipPath>
</defs>
</svg>
