<svg width="24" height="24" viewBox="0 0 24 24" fill="none" xmlns="http://www.w3.org/2000/svg">
<g clip-path="url(#clip0_1427_4855)">
<path d="M23.8175 6.84667L17.1533 0.1825C17.0363 0.0657657 16.8778 0.000145376 16.7125 0L7.2875 0C7.1222 0.000145376 6.9637 0.0657657 6.84667 0.1825L0.1825 6.84667C0.0657657 6.9637 0.000145376 7.1222 0 7.2875L0 16.7125C0.000145376 16.8778 0.0657657 17.0363 0.1825 17.1533L6.84667 23.8175C6.9637 23.9342 7.1222 23.9999 7.2875 24H16.7125C16.8778 23.9999 17.0363 23.9342 17.1533 23.8175L23.8175 17.1533C23.9342 17.0363 23.9999 16.8778 24 16.7125V7.2875C23.9999 7.1222 23.9342 6.9637 23.8175 6.84667ZM1.39458 7.39833L7.39833 1.39458C7.44518 1.34778 7.5008 1.31066 7.56199 1.28535C7.62319 1.26004 7.68878 1.24704 7.755 1.24708H16.245C16.3789 1.24707 16.5073 1.30011 16.6021 1.39458L18.8983 3.69125C18.9682 3.76151 19.0074 3.85656 19.0074 3.95563C19.0074 4.05469 18.9682 4.14974 18.8983 4.22L16.375 6.74208C16.3044 6.81261 16.2144 6.8606 16.1165 6.87996C16.0186 6.89932 15.9171 6.88918 15.825 6.85083C15.0879 6.54536 14.2979 6.38833 13.5 6.38875H9.0575C9.01262 6.3884 8.96884 6.37485 8.9316 6.34979C8.89437 6.32474 8.86533 6.28928 8.84809 6.24784C8.83086 6.2064 8.8262 6.16081 8.83469 6.11674C8.84318 6.07267 8.86444 6.03207 8.89583 6L10.4213 4.47458C10.5371 4.3609 10.6052 4.20719 10.6114 4.04496C10.6176 3.88273 10.5615 3.72428 10.4546 3.60208C10.3977 3.53978 10.3288 3.48964 10.2521 3.45467C10.1753 3.4197 10.0923 3.40063 10.008 3.3986C9.92364 3.39658 9.83977 3.41164 9.76143 3.44289C9.68308 3.47414 9.61187 3.52092 9.55208 3.58042L6.55917 6.57292C6.44263 6.69004 6.37721 6.84853 6.37721 7.01375C6.37721 7.17897 6.44263 7.33746 6.55917 7.45458L9.55208 10.4475C9.66929 10.5647 9.82823 10.6305 9.99396 10.6305C10.1597 10.6305 10.3186 10.5647 10.4358 10.4475C10.6796 10.2017 10.6654 9.79958 10.4204 9.55458L8.89583 8.02625C8.86388 7.99426 8.84212 7.95352 8.8333 7.90916C8.82449 7.86481 8.82902 7.81885 8.84632 7.77707C8.86362 7.73529 8.89291 7.69958 8.9305 7.67444C8.96809 7.6493 9.01228 7.63587 9.0575 7.63583H13.5C13.9457 7.63539 14.3894 7.69667 14.8183 7.81792C14.8569 7.8286 14.892 7.8492 14.9201 7.87765C14.9483 7.90611 14.9684 7.94144 14.9787 7.98012C14.9889 8.0188 14.9889 8.0595 14.9785 8.09814C14.9681 8.13679 14.9478 8.17205 14.9196 8.20042L4.22 18.8983C4.14974 18.9682 4.05469 19.0074 3.95563 19.0074C3.85656 19.0074 3.76151 18.9682 3.69125 18.8983L1.39458 16.6017C1.34778 16.5548 1.31066 16.4992 1.28535 16.438C1.26004 16.3768 1.24704 16.3112 1.24708 16.245V7.755C1.24704 7.68878 1.26004 7.62319 1.28535 7.56199C1.31066 7.5008 1.34778 7.44518 1.39458 7.39833ZM18.3471 12.53C18.3225 15.1879 16.0708 17.3633 13.4129 17.3633H8.07208C8.02687 17.3633 7.98267 17.3499 7.94508 17.3247C7.9075 17.2996 7.8782 17.2639 7.8609 17.2221C7.84361 17.1803 7.83908 17.1344 7.84789 17.09C7.8567 17.0457 7.87846 17.0049 7.91042 16.9729L16.0975 8.78417C16.1641 8.71795 16.253 8.67912 16.3469 8.67534C16.4407 8.67156 16.5325 8.70311 16.6042 8.76375C17.1557 9.22307 17.5982 9.79927 17.8996 10.4507C18.2011 11.102 18.3539 11.8123 18.3471 12.53ZM22.6054 16.6021L16.6021 22.6054C16.5073 22.6999 16.3789 22.7529 16.245 22.7529H7.755C7.68878 22.753 7.62319 22.74 7.56199 22.7146C7.5008 22.6893 7.44518 22.6522 7.39833 22.6054L5.10167 20.3088C5.03182 20.2385 4.99262 20.1434 4.99262 20.0444C4.99262 19.9453 5.03182 19.8503 5.10167 19.78L6.125 18.7567C6.21978 18.6621 6.34818 18.6089 6.48208 18.6087H13.4108C16.7983 18.6087 19.5879 15.8833 19.5942 12.4958C19.5961 11.6297 19.413 10.7731 19.0571 9.98337C18.7013 9.19366 18.1809 8.48905 17.5308 7.91667C17.4922 7.88296 17.4609 7.84168 17.4389 7.7954C17.4168 7.74912 17.4045 7.69881 17.4027 7.64757C17.4008 7.59634 17.4095 7.54528 17.4282 7.49754C17.4469 7.44979 17.4751 7.40639 17.5112 7.37L19.78 5.10125C19.8503 5.03141 19.9453 4.9922 20.0444 4.9922C20.1434 4.9922 20.2385 5.03141 20.3088 5.10125L22.6054 7.3975C22.6999 7.49232 22.7529 7.62073 22.7529 7.75458V16.245C22.7529 16.3789 22.6999 16.5073 22.6054 16.6021Z" fill="#313131"/>
</g>
<defs>
<clipPath id="clip0_1427_4855">
<rect width="24" height="24" fill="white"/>
</clipPath>
</defs>
</svg>
