<svg width="24" height="24" viewBox="0 0 24 24" fill="none" xmlns="http://www.w3.org/2000/svg">
<g clip-path="url(#clip0_1427_4847)">
<path d="M23.8175 6.84667L17.1533 0.1825C17.0363 0.0657657 16.8778 0.000145376 16.7125 0L7.2875 0C7.1222 0.000145376 6.9637 0.0657657 6.84667 0.1825L0.1825 6.84667C0.0657657 6.9637 0.000145376 7.1222 0 7.2875L0 16.7125C0.000145376 16.8778 0.0657657 17.0363 0.1825 17.1533L6.84667 23.8175C6.9637 23.9342 7.1222 23.9999 7.2875 24H16.7125C16.8778 23.9999 17.0363 23.9342 17.1533 23.8175L23.8175 17.1533C23.9342 17.0363 23.9999 16.8778 24 16.7125V7.2875C23.9999 7.1222 23.9342 6.9637 23.8175 6.84667ZM18.2133 20.9942L16.6004 22.6067C16.5067 22.7003 16.3796 22.7529 16.2471 22.7529H7.75292C7.62041 22.7529 7.49333 22.7003 7.39958 22.6067L5.78667 20.9942C5.69318 20.9004 5.64073 20.7733 5.64083 20.6408V7.01292C5.64083 6.91346 5.68034 6.81808 5.75067 6.74775C5.82099 6.67743 5.91638 6.63792 6.01583 6.63792H7.38667V7.51292C7.38667 7.67868 7.45251 7.83765 7.56973 7.95486C7.68694 8.07207 7.84591 8.13792 8.01167 8.13792H15.99C16.1558 8.13792 16.3147 8.07207 16.4319 7.95486C16.5492 7.83765 16.615 7.67868 16.615 7.51292V6.63792H17.9858C18.0853 6.63792 18.1807 6.67743 18.251 6.74775C18.3213 6.81808 18.3608 6.91346 18.3608 7.01292V20.6408C18.3607 20.7065 18.3476 20.7716 18.3222 20.8322C18.2969 20.8928 18.2599 20.9479 18.2133 20.9942ZM8.63333 6.51292V5.51667C8.63333 5.41721 8.67284 5.32183 8.74317 5.2515C8.81349 5.18118 8.90888 5.14167 9.00833 5.14167H10.5163C10.5984 5.14165 10.6797 5.12545 10.7555 5.09399C10.8314 5.06253 10.9003 5.01644 10.9583 4.95833L11.75 4.16667C11.8203 4.09644 11.9156 4.057 12.015 4.057C12.1144 4.057 12.2097 4.09644 12.28 4.16667L13.0717 4.95833C13.1887 5.07507 13.3472 5.14069 13.5125 5.14083H14.9963C15.0957 5.14083 15.1911 5.18034 15.2614 5.25067C15.3317 5.32099 15.3713 5.41638 15.3713 5.51583V6.51208C15.3713 6.61154 15.3317 6.70692 15.2614 6.77725C15.1911 6.84757 15.0957 6.88708 14.9963 6.88708H9.00792C8.90868 6.88697 8.81353 6.84753 8.74331 6.7774C8.6731 6.70726 8.63355 6.61216 8.63333 6.51292ZM22.6067 16.6004L19.9958 19.2113C19.9639 19.2431 19.9233 19.2648 19.879 19.2736C19.8348 19.2823 19.7889 19.2778 19.7473 19.2606C19.7056 19.2433 19.67 19.2141 19.6449 19.1766C19.6198 19.1392 19.6063 19.0951 19.6063 19.05V6.01458C19.6063 5.84882 19.5404 5.68985 19.4232 5.57264C19.306 5.45543 19.147 5.38958 18.9813 5.38958H16.6138V4.51833C16.6138 4.35257 16.5479 4.1936 16.4307 4.07639C16.3135 3.95918 16.1545 3.89333 15.9888 3.89333H13.9721C13.8407 3.89387 13.7144 3.84233 13.6208 3.75L12.4542 2.58333C12.337 2.4668 12.1786 2.40138 12.0133 2.40138C11.8481 2.40138 11.6896 2.4668 11.5725 2.58333L10.4058 3.75C10.3123 3.84344 10.1855 3.89602 10.0533 3.89625H8.01167C7.84591 3.89625 7.68694 3.9621 7.56973 4.07931C7.45251 4.19652 7.38667 4.35549 7.38667 4.52125V5.39417H5.01708C4.85132 5.39417 4.69235 5.46001 4.57514 5.57722C4.45793 5.69444 4.39208 5.85341 4.39208 6.01917V19.05C4.392 19.0951 4.37857 19.1392 4.35347 19.1766C4.32838 19.2141 4.29275 19.2433 4.25107 19.2606C4.2094 19.2778 4.16356 19.2823 4.11932 19.2736C4.07508 19.2648 4.03443 19.2431 4.0025 19.2113L1.39333 16.6004C1.29969 16.5067 1.24709 16.3796 1.24708 16.2471V7.75292C1.24709 7.62041 1.29969 7.49333 1.39333 7.39958L7.39958 1.39333C7.49333 1.29969 7.62041 1.24709 7.75292 1.24708H16.2471C16.3796 1.24709 16.5067 1.29969 16.6004 1.39333L22.6067 7.39958C22.7003 7.49333 22.7529 7.62041 22.7529 7.75292V16.2471C22.7529 16.3796 22.7003 16.5067 22.6067 16.6004ZM15.99 10.3792H11.0083C10.8509 10.3907 10.7036 10.4614 10.5962 10.577C10.4887 10.6926 10.4289 10.8446 10.4289 11.0025C10.4289 11.1604 10.4887 11.3124 10.5962 11.428C10.7036 11.5436 10.8509 11.6143 11.0083 11.6258H15.99C16.0757 11.6321 16.1618 11.6206 16.2428 11.5922C16.3239 11.5637 16.3982 11.5188 16.4611 11.4603C16.5241 11.4018 16.5742 11.3309 16.6086 11.2522C16.6429 11.1734 16.6606 11.0884 16.6606 11.0025C16.6606 10.9166 16.6429 10.8316 16.6086 10.7528C16.5742 10.6741 16.5241 10.6032 16.4611 10.5447C16.3982 10.4862 16.3239 10.4413 16.2428 10.4128C16.1618 10.3844 16.0757 10.3729 15.99 10.3792ZM15.99 14.3692H11.0083C10.8503 14.38 10.7023 14.4504 10.5942 14.5661C10.4861 14.6819 10.426 14.8343 10.426 14.9927C10.426 15.1511 10.4861 15.3036 10.5942 15.4193C10.7023 15.535 10.8503 15.6054 11.0083 15.6163H15.99C16.0755 15.6221 16.1612 15.6103 16.242 15.5816C16.3227 15.5529 16.3966 15.508 16.4593 15.4495C16.5219 15.391 16.5718 15.3203 16.6059 15.2417C16.6401 15.1631 16.6577 15.0784 16.6577 14.9927C16.6577 14.907 16.6401 14.8223 16.6059 14.7437C16.5718 14.6651 16.5219 14.5944 16.4593 14.5359C16.3966 14.4775 16.3227 14.4325 16.242 14.4038C16.1612 14.3751 16.0755 14.3633 15.99 14.3692ZM15.99 18.3592H11.0083C10.8503 18.37 10.7023 18.4404 10.5942 18.5561C10.4861 18.6719 10.426 18.8243 10.426 18.9827C10.426 19.1411 10.4861 19.2936 10.5942 19.4093C10.7023 19.525 10.8503 19.5954 11.0083 19.6063H15.99C16.0755 19.6121 16.1612 19.6003 16.242 19.5716C16.3227 19.5429 16.3966 19.498 16.4593 19.4395C16.5219 19.381 16.5718 19.3103 16.6059 19.2317C16.6401 19.1531 16.6577 19.0684 16.6577 18.9827C16.6577 18.897 16.6401 18.8123 16.6059 18.7337C16.5718 18.6551 16.5219 18.5844 16.4593 18.5259C16.3966 18.4675 16.3227 18.4225 16.242 18.3938C16.1612 18.3651 16.0755 18.3533 15.99 18.3592ZM8.50875 10.3792H8.01708C7.85964 10.3907 7.71239 10.4614 7.60491 10.577C7.49744 10.6926 7.4377 10.8446 7.4377 11.0025C7.4377 11.1604 7.49744 11.3124 7.60491 11.428C7.71239 11.5436 7.85964 11.6143 8.01708 11.6258H8.50875C8.66619 11.6143 8.81345 11.5436 8.92092 11.428C9.0284 11.3124 9.08814 11.1604 9.08814 11.0025C9.08814 10.8446 9.0284 10.6926 8.92092 10.577C8.81345 10.4614 8.66619 10.3907 8.50875 10.3792ZM8.50875 14.3692H8.01708C7.85908 14.38 7.71107 14.4504 7.60298 14.5661C7.49488 14.6819 7.43475 14.8343 7.43475 14.9927C7.43475 15.1511 7.49488 15.3036 7.60298 15.4193C7.71107 15.535 7.85908 15.6054 8.01708 15.6163H8.50875C8.66675 15.6054 8.81476 15.535 8.92286 15.4193C9.03096 15.3036 9.09108 15.1511 9.09108 14.9927C9.09108 14.8343 9.03096 14.6819 8.92286 14.5661C8.81476 14.4504 8.66675 14.38 8.50875 14.3692ZM8.50875 18.3592H8.01708C7.85908 18.37 7.71107 18.4404 7.60298 18.5561C7.49488 18.6719 7.43475 18.8243 7.43475 18.9827C7.43475 19.1411 7.49488 19.2936 7.60298 19.4093C7.71107 19.525 7.85908 19.5954 8.01708 19.6063H8.50875C8.66675 19.5954 8.81476 19.525 8.92286 19.4093C9.03096 19.2936 9.09108 19.1411 9.09108 18.9827C9.09108 18.8243 9.03096 18.6719 8.92286 18.5561C8.81476 18.4404 8.66675 18.37 8.50875 18.3592Z" fill="#313131"/>
</g>
<defs>
<clipPath id="clip0_1427_4847">
<rect width="24" height="24" fill="white"/>
</clipPath>
</defs>
</svg>
