<svg width="24" height="24" viewBox="0 0 24 24" fill="none" xmlns="http://www.w3.org/2000/svg">
<g clip-path="url(#clip0_1427_4845)">
<path d="M0 7.2875V16.7125C0.000145376 16.8778 0.0657657 17.0363 0.1825 17.1533L6.84667 23.8175C6.9637 23.9342 7.1222 23.9999 7.2875 24H16.7125C16.8778 23.9999 17.0363 23.9342 17.1533 23.8175L23.8175 17.1533C23.9342 17.0363 23.9999 16.8778 24 16.7125V7.2875C23.9999 7.1222 23.9342 6.9637 23.8175 6.84667L17.1533 0.1825C17.0363 0.0657657 16.8778 0.000145376 16.7125 0L7.2875 0C7.1222 0.000145376 6.9637 0.0657657 6.84667 0.1825L0.1825 6.84667C0.0657657 6.9637 0.000145376 7.1222 0 7.2875H0ZM1.24708 16.2458V7.75292C1.24709 7.62041 1.29969 7.49333 1.39333 7.39958L7.39958 1.39333C7.49333 1.29969 7.62041 1.24709 7.75292 1.24708H16.2471C16.3796 1.24709 16.5067 1.29969 16.6004 1.39333L22.6067 7.39958C22.7003 7.49333 22.7529 7.62041 22.7529 7.75292V16.2471C22.7529 16.3796 22.7003 16.5067 22.6067 16.6004L20.9942 18.2133C20.9004 18.3068 20.7733 18.3593 20.6408 18.3592H10.0158C9.91638 18.3592 9.82099 18.3197 9.75067 18.2493C9.68034 18.179 9.64083 18.0836 9.64083 17.9842V13.0071C9.64083 12.9076 9.68034 12.8122 9.75067 12.7419C9.82099 12.6716 9.91638 12.6321 10.0158 12.6321H16.9667C17.0722 12.6333 17.1764 12.6083 17.2699 12.5594C17.3634 12.5105 17.4434 12.4391 17.5025 12.3517C17.5813 12.2316 17.6163 12.088 17.6017 11.9451C17.587 11.8022 17.5236 11.6687 17.4221 11.5671L15.1225 9.27292C15.0877 9.23809 15.06 9.19675 15.0412 9.15124C15.0223 9.10574 15.0126 9.05696 15.0126 9.00771C15.0126 8.95845 15.0223 8.90968 15.0412 8.86417C15.06 8.81867 15.0877 8.77732 15.1225 8.7425L17.4379 6.44625C17.54 6.34496 17.604 6.21157 17.6192 6.06857C17.6344 5.92557 17.5998 5.78171 17.5213 5.66125C17.462 5.57366 17.382 5.50214 17.2883 5.45313C17.1947 5.40411 17.0903 5.37912 16.9846 5.38042H10.0154C9.91596 5.38042 9.82058 5.34091 9.75025 5.27058C9.67993 5.20026 9.64042 5.10487 9.64042 5.00542V4.01958C9.64017 3.93524 9.62285 3.85182 9.58951 3.77435C9.55617 3.69688 9.50749 3.62696 9.44641 3.56879C9.38533 3.51063 9.31311 3.46544 9.2341 3.43593C9.15509 3.40642 9.07092 3.3932 8.98667 3.39708C8.82467 3.40763 8.67288 3.47985 8.56252 3.5989C8.45215 3.71794 8.39161 3.87476 8.39333 4.03708V17.9854C8.39333 18.0849 8.35382 18.1803 8.2835 18.2506C8.21317 18.3209 8.11779 18.3604 8.01833 18.3604H7.02458C6.94003 18.3603 6.85634 18.3774 6.77857 18.4106C6.70081 18.4438 6.63059 18.4924 6.57216 18.5535C6.51373 18.6146 6.46831 18.687 6.43865 18.7662C6.40898 18.8453 6.39569 18.9297 6.39958 19.0142C6.41055 19.1763 6.48323 19.328 6.60267 19.4381C6.7221 19.5483 6.87921 19.6084 7.04167 19.6063H19.6008L16.6008 22.6063C16.5071 22.6999 16.38 22.7525 16.2475 22.7525H7.75292C7.62041 22.7525 7.49333 22.6999 7.39958 22.6063L1.39333 16.6004C1.29969 16.5067 1.24709 16.3796 1.24708 16.2471V16.2458ZM13.3488 9.00625C13.3487 9.08844 13.3649 9.16983 13.3963 9.24576C13.4278 9.32169 13.4739 9.39067 13.5321 9.44875L15.0833 10.9975C15.1153 11.0293 15.1371 11.0699 15.1459 11.1141C15.1548 11.1582 15.1503 11.2041 15.1331 11.2457C15.1158 11.2874 15.0866 11.323 15.0491 11.348C15.0116 11.373 14.9676 11.3863 14.9225 11.3862H10.0154C9.91596 11.3862 9.82058 11.3467 9.75025 11.2764C9.67993 11.2061 9.64042 11.1107 9.64042 11.0112V7.0025C9.64042 6.90304 9.67993 6.80766 9.75025 6.73734C9.82058 6.66701 9.91596 6.6275 10.0154 6.6275H14.9321C14.9773 6.62743 15.0214 6.64081 15.059 6.66593C15.0965 6.69105 15.1257 6.72679 15.1429 6.76857C15.16 6.81036 15.1644 6.85631 15.1553 6.90057C15.1463 6.94482 15.1243 6.98538 15.0921 7.01708L13.5333 8.56458C13.4751 8.62246 13.4288 8.69126 13.3971 8.76705C13.3654 8.84283 13.349 8.92411 13.3488 9.00625Z" fill="#313131"/>
</g>
<defs>
<clipPath id="clip0_1427_4845">
<rect width="24" height="24" fill="white"/>
</clipPath>
</defs>
</svg>
