<svg width="24" height="24" viewBox="0 0 24 24" fill="none" xmlns="http://www.w3.org/2000/svg">
<g clip-path="url(#clip0_1427_4850)">
<path d="M11.375 12V13.995C11.3687 14.0807 11.3802 14.1668 11.4087 14.2478C11.4372 14.3289 11.4821 14.4032 11.5405 14.4661C11.599 14.5291 11.6699 14.5793 11.7487 14.6136C11.8274 14.6479 11.9124 14.6656 11.9983 14.6656C12.0843 14.6656 12.1692 14.6479 12.248 14.6136C12.3268 14.5793 12.3976 14.5291 12.4561 14.4661C12.5146 14.4032 12.5595 14.3289 12.588 14.2478C12.6165 14.1668 12.6279 14.0807 12.6217 13.995V12C12.6101 11.8426 12.5395 11.6953 12.4238 11.5878C12.3082 11.4804 12.1562 11.4206 11.9983 11.4206C11.8405 11.4206 11.6885 11.4804 11.5728 11.5878C11.4572 11.6953 11.3865 11.8426 11.375 12ZM11.9854 15.5983C11.8197 15.5983 11.6607 15.6642 11.5435 15.7814C11.4263 15.8986 11.3604 16.0576 11.3604 16.2233V16.7233C11.3546 16.8088 11.3664 16.8946 11.395 16.9753C11.4237 17.056 11.4687 17.13 11.5272 17.1926C11.5857 17.2552 11.6564 17.3051 11.735 17.3393C11.8135 17.3734 11.8983 17.391 11.984 17.391C12.0696 17.391 12.1544 17.3734 12.233 17.3393C12.3115 17.3051 12.3823 17.2552 12.4407 17.1926C12.4992 17.13 12.5442 17.056 12.5729 16.9753C12.6016 16.8946 12.6133 16.8088 12.6075 16.7233V16.2233C12.6075 16.0584 12.5423 15.9001 12.4261 15.783C12.3098 15.6659 12.152 15.5995 11.9871 15.5983H11.9854ZM12.4271 8.06792C12.31 7.95138 12.1515 7.88596 11.9863 7.88596C11.821 7.88596 11.6625 7.95138 11.5454 8.06792L5.56167 14.0529C5.44513 14.17 5.37971 14.3285 5.37971 14.4938C5.37971 14.659 5.44513 14.8175 5.56167 14.9346L11.5471 20.92C11.6642 21.0365 11.8227 21.102 11.9879 21.102C12.1531 21.102 12.3116 21.0365 12.4288 20.92L18.4142 14.9346C18.5307 14.8175 18.5961 14.659 18.5961 14.4938C18.5961 14.3285 18.5307 14.17 18.4142 14.0529L12.4271 8.06792ZM11.7229 19.3333L7.14917 14.7587C7.07894 14.6884 7.0395 14.5931 7.0395 14.4938C7.0395 14.3944 7.07894 14.2991 7.14917 14.2288L11.7229 9.655C11.7932 9.58478 11.8885 9.54533 11.9879 9.54533C12.0873 9.54533 12.1826 9.58478 12.2529 9.655L16.8267 14.2288C16.8969 14.2991 16.9363 14.3944 16.9363 14.4938C16.9363 14.5931 16.8969 14.6884 16.8267 14.7587L12.2529 19.3333C12.1826 19.4036 12.0873 19.443 11.9879 19.443C11.8885 19.443 11.7932 19.4036 11.7229 19.3333ZM23.8175 6.84667L17.1533 0.1825C17.0363 0.0657657 16.8778 0.000145376 16.7125 0L7.2875 0C7.1222 0.000145376 6.9637 0.0657657 6.84667 0.1825L0.1825 6.84667C0.0657657 6.9637 0.000145376 7.1222 0 7.2875L0 16.7125C0.000145376 16.8778 0.0657657 17.0363 0.1825 17.1533L6.84667 23.8175C6.9637 23.9342 7.1222 23.9999 7.2875 24H16.7125C16.8778 23.9999 17.0363 23.9342 17.1533 23.8175L23.8175 17.1533C23.9342 17.0363 23.9999 16.8778 24 16.7125V7.2875C23.9999 7.1222 23.9342 6.9637 23.8175 6.84667ZM7.7525 1.24708H16.2475C16.3797 1.2472 16.5064 1.29963 16.6 1.39292L22.4167 7.20833C22.4868 7.27863 22.5261 7.37385 22.5261 7.47312C22.5261 7.5724 22.4868 7.66762 22.4167 7.73792L21.7583 8.39333C21.7235 8.42829 21.6821 8.45603 21.6365 8.47496C21.5909 8.49389 21.5421 8.50363 21.4927 8.50363C21.4434 8.50363 21.3945 8.49389 21.3489 8.47496C21.3033 8.45603 21.2619 8.42829 21.2271 8.39333L19.4242 6.57083C19.3662 6.5125 19.2974 6.46618 19.2215 6.4345C19.1457 6.40283 19.0643 6.38643 18.9821 6.38625C18.8164 6.3864 18.6575 6.45234 18.5404 6.56958L17.2533 7.86125C17.2185 7.89608 17.1772 7.92372 17.1317 7.94257C17.0862 7.96142 17.0374 7.97113 16.9881 7.97113C16.9389 7.97113 16.8901 7.96142 16.8446 7.94257C16.7991 7.92372 16.7577 7.89608 16.7229 7.86125L12.4367 3.57875C12.3195 3.46222 12.1611 3.3968 11.9958 3.3968C11.8306 3.3968 11.6721 3.46222 11.555 3.57875L7.2775 7.85458C7.24266 7.88954 7.20126 7.91728 7.15568 7.93621C7.1101 7.95514 7.06123 7.96488 7.01188 7.96488C6.96252 7.96488 6.91365 7.95514 6.86807 7.93621C6.82249 7.91728 6.78109 7.88954 6.74625 7.85458L5.47083 6.56292C5.41312 6.50456 5.3444 6.45823 5.26866 6.42662C5.19292 6.39501 5.11166 6.37874 5.02958 6.37875C4.86394 6.37879 4.70508 6.44458 4.58792 6.56167L2.80458 8.35C2.73427 8.42023 2.63896 8.45967 2.53958 8.45967C2.44021 8.45967 2.3449 8.42023 2.27458 8.35L1.625 7.69917C1.5549 7.62887 1.51554 7.53365 1.51554 7.43438C1.51554 7.3351 1.5549 7.23988 1.625 7.16958L7.4 1.39292C7.49361 1.29963 7.62034 1.2472 7.7525 1.24708ZM22.6071 16.6L16.6 22.6071C16.5064 22.7004 16.3797 22.7528 16.2475 22.7529H7.7525C7.62034 22.7528 7.49361 22.7004 7.4 22.6071L1.39292 16.6C1.29963 16.5064 1.2472 16.3797 1.24708 16.2475V9.6375C1.24708 9.59231 1.26049 9.54815 1.2856 9.51058C1.31072 9.47302 1.34642 9.44375 1.38817 9.42649C1.42993 9.40922 1.47587 9.40473 1.52018 9.41359C1.56449 9.42245 1.60517 9.44426 1.63708 9.47625L2.09833 9.9375C2.21536 10.0542 2.37387 10.1199 2.53917 10.12C2.70458 10.1196 2.86311 10.0537 2.98 9.93667L4.75917 8.15292C4.79401 8.11789 4.83544 8.0901 4.88106 8.07114C4.92668 8.05217 4.97559 8.04241 5.025 8.04241C5.07441 8.04241 5.12332 8.05217 5.16894 8.07114C5.21456 8.0901 5.25599 8.11789 5.29083 8.15292L5.86708 8.73625C5.9368 8.80649 5.97592 8.90145 5.97592 9.00042C5.97592 9.09938 5.9368 9.19434 5.86708 9.26458L5.58125 9.55042C5.46511 9.66388 5.39692 9.81757 5.39071 9.97981C5.38451 10.1421 5.44078 10.3005 5.54792 10.4225C5.60475 10.4848 5.67361 10.535 5.75035 10.57C5.8271 10.605 5.91013 10.6241 5.99445 10.6262C6.07878 10.6283 6.16264 10.6132 6.24101 10.582C6.31937 10.5508 6.3906 10.5041 6.45042 10.4446L7.39042 9.50458C7.41222 9.4886 7.43283 9.47106 7.45208 9.45208C7.4727 9.4313 7.4919 9.40917 7.50958 9.38583L11.7312 5.16667C11.8015 5.09657 11.8968 5.0572 11.996 5.0572C12.0953 5.0572 12.1905 5.09657 12.2608 5.16667L17.5417 10.4458C17.6592 10.5627 17.8183 10.628 17.9841 10.6276C18.1498 10.6271 18.3085 10.5608 18.4254 10.4433C18.6692 10.1975 18.655 9.79542 18.41 9.55083L18.1321 9.27292C18.062 9.20262 18.0226 9.1074 18.0226 9.00813C18.0226 8.90885 18.062 8.81363 18.1321 8.74333L18.7125 8.16C18.7473 8.12498 18.7888 8.09719 18.8344 8.07822C18.88 8.05926 18.9289 8.0495 18.9783 8.0495C19.0277 8.0495 19.0767 8.05926 19.1223 8.07822C19.1679 8.09719 19.2093 8.12498 19.2442 8.16L21.0462 9.98C21.104 10.0387 21.1728 10.0854 21.2487 10.1175C21.3245 10.1495 21.406 10.1662 21.4883 10.1667C21.6536 10.1665 21.8121 10.1009 21.9292 9.98417L22.3612 9.55167C22.3933 9.51985 22.434 9.49822 22.4783 9.48949C22.5225 9.48076 22.5684 9.48532 22.6101 9.5026C22.6518 9.51988 22.6874 9.54912 22.7126 9.58661C22.7377 9.62411 22.7511 9.6682 22.7513 9.71333V16.2475C22.7516 16.3794 22.6998 16.5061 22.6071 16.6Z" fill="#313131"/>
</g>
<defs>
<clipPath id="clip0_1427_4850">
<rect width="24" height="24" fill="white"/>
</clipPath>
</defs>
</svg>
