<svg width="24" height="24" viewBox="0 0 24 24" fill="none" xmlns="http://www.w3.org/2000/svg">
<g clip-path="url(#clip0_1427_4857)">
<path d="M23.8175 6.84667L17.1533 0.1825C17.0363 0.0657657 16.8778 0.000145376 16.7125 0L7.2875 0C7.1222 0.000145376 6.9637 0.0657657 6.84667 0.1825L0.1825 6.84667C0.0657657 6.9637 0.000145376 7.1222 0 7.2875L0 16.7125C0.000145376 16.8778 0.0657657 17.0363 0.1825 17.1533L6.84667 23.8175C6.9637 23.9342 7.1222 23.9999 7.2875 24H16.7125C16.8778 23.9999 17.0363 23.9342 17.1533 23.8175L23.8175 17.1533C23.9342 17.0363 23.9999 16.8778 24 16.7125V7.2875C23.9999 7.1222 23.9342 6.9637 23.8175 6.84667ZM8.47 1.24708C8.51717 1.24715 8.56377 1.25745 8.60658 1.27726C8.64939 1.29708 8.6874 1.32595 8.71797 1.36187C8.74855 1.39779 8.77097 1.43992 8.7837 1.48535C8.79642 1.53078 8.79914 1.57842 8.79167 1.625L8.40458 4.14167C8.35917 4.29792 8.29083 4.37917 8.26542 4.39583C8.23227 4.39583 8.20047 4.38266 8.17703 4.35922C8.15359 4.33578 8.14042 4.30399 8.14042 4.27083V1.57333C8.14042 1.53021 8.14896 1.48751 8.16557 1.44771C8.18217 1.40791 8.2065 1.37179 8.23715 1.34145C8.2678 1.31111 8.30416 1.28715 8.34413 1.27095C8.38409 1.25476 8.42688 1.24664 8.47 1.24708ZM5.375 20.58L4.66667 19.875C4.70833 19.75 4.80208 19.6221 5 19.6221C5.09946 19.6221 5.19484 19.6616 5.26517 19.7319C5.33549 19.8022 5.375 19.8976 5.375 19.9971V20.58ZM11.0046 22.7529H7.75458C7.62243 22.7528 7.49569 22.7004 7.40208 22.6071L6.76792 21.9729C6.67463 21.8793 6.6222 21.7526 6.62208 21.6204V20.0258C6.62208 19.1329 5.91375 18.3854 5.02 18.375C4.64898 18.3688 4.28771 18.494 4 18.7283C3.92846 18.7868 3.83788 18.8167 3.74562 18.8125C3.65335 18.8083 3.56589 18.7701 3.5 18.7054L1.39292 16.6C1.29963 16.5064 1.2472 16.3797 1.24708 16.2475V7.7525C1.2472 7.62034 1.29963 7.49361 1.39292 7.4L6.5075 2.28542C6.53938 2.25351 6.58 2.23177 6.62424 2.22296C6.66847 2.21415 6.71433 2.21867 6.75599 2.23593C6.79766 2.2532 6.83327 2.28244 6.85831 2.31995C6.88335 2.35746 6.8967 2.40156 6.89667 2.44667V4.24125C6.89667 4.94958 7.42708 5.56375 8.13417 5.63375C8.84125 5.70375 9.41333 5.22667 9.62042 4.42542C9.62542 4.40542 9.62958 4.38375 9.63292 4.36458L10.0733 1.52417C10.0853 1.44721 10.1243 1.37706 10.1835 1.32639C10.2426 1.27573 10.318 1.24789 10.3958 1.24792H11.0025C11.0517 1.24792 11.1005 1.25762 11.146 1.27646C11.1915 1.29531 11.2328 1.32293 11.2677 1.35775C11.3025 1.39257 11.3301 1.43391 11.349 1.47941C11.3678 1.52491 11.3775 1.57367 11.3775 1.62292V22.3792C11.3772 22.4784 11.3375 22.5735 11.2672 22.6435C11.1969 22.7136 11.1017 22.7529 11.0025 22.7529H11.0046ZM22.6071 16.6L16.6 22.6071C16.5064 22.7004 16.3797 22.7528 16.2475 22.7529H12.9975C12.898 22.7529 12.8027 22.7134 12.7323 22.6431C12.662 22.5728 12.6225 22.4774 12.6225 22.3779V1.62083C12.6225 1.52138 12.662 1.42599 12.7323 1.35567C12.8027 1.28534 12.898 1.24583 12.9975 1.24583H16.2475C16.3797 1.24595 16.5064 1.29838 16.6 1.39167L22.6071 7.4C22.7004 7.49361 22.7528 7.62034 22.7529 7.7525V16.2475C22.7528 16.3797 22.7004 16.5064 22.6071 16.6ZM15.0504 6.57125C14.9337 6.68828 14.8681 6.84679 14.8679 7.01208V17.5854C14.8679 17.7512 14.9338 17.9101 15.051 18.0274C15.1682 18.1446 15.3272 18.2104 15.4929 18.2104H19.4833C19.6491 18.2104 19.8081 18.1446 19.9253 18.0274C20.0425 17.9101 20.1083 17.7512 20.1083 17.5854V7.01208C20.1082 6.84679 20.0426 6.68828 19.9258 6.57125L18.925 5.57375C18.8079 5.45722 18.6494 5.3918 18.4842 5.3918C18.3189 5.3918 18.1605 5.45722 18.0433 5.57375L17.4867 6.13042L16.93 5.57375C16.8129 5.45709 16.6543 5.39159 16.489 5.39159C16.3236 5.39159 16.1651 5.45709 16.0479 5.57375L15.0504 6.57125ZM18.2196 7.16083C18.2899 7.09086 18.385 7.05158 18.4842 7.05158C18.5833 7.05158 18.6785 7.09086 18.7488 7.16083C18.8188 7.23106 18.8582 7.3262 18.8583 7.42542V16.5875C18.8583 16.687 18.8188 16.7823 18.7485 16.8527C18.6782 16.923 18.5828 16.9625 18.4833 16.9625C18.3839 16.9625 18.2885 16.923 18.2182 16.8527C18.1478 16.7823 18.1083 16.687 18.1083 16.5875V7.42542C18.1086 7.37617 18.1186 7.32746 18.1376 7.28206C18.1567 7.23666 18.1846 7.19547 18.2196 7.16083ZM16.2246 7.16083C16.2948 7.09099 16.3899 7.05179 16.489 7.05179C16.588 7.05179 16.6831 7.09099 16.7533 7.16083C16.8234 7.23106 16.8628 7.3262 16.8629 7.42542V16.5875C16.8629 16.687 16.8234 16.7823 16.7531 16.8527C16.6828 16.923 16.5874 16.9625 16.4879 16.9625C16.3885 16.9625 16.2931 16.923 16.2228 16.8527C16.1524 16.7823 16.1129 16.687 16.1129 16.5875V7.42542C16.1132 7.37614 16.1233 7.32741 16.1424 7.28201C16.1616 7.23661 16.1895 7.19544 16.2246 7.16083ZM5 6.38875C4.7679 6.38598 4.53814 6.43525 4.32759 6.53295C4.11704 6.63066 3.93106 6.7743 3.78333 6.95333C3.62449 7.14772 3.51017 7.37454 3.4484 7.61785C3.38664 7.86117 3.37893 8.11506 3.42583 8.36167L3.88417 11.3467C3.8875 11.3671 3.89167 11.3883 3.89667 11.4075C4.09 12.1575 4.60792 12.625 5.25 12.625C5.61381 12.6237 5.96226 12.4782 6.21904 12.2205C6.47582 11.9628 6.62 11.6138 6.62 11.25V8.00833C6.61857 7.57916 6.44742 7.16798 6.14391 6.86455C5.8404 6.56111 5.42917 6.39007 5 6.38875ZM5.375 11.25C5.375 11.2832 5.36183 11.3149 5.33839 11.3384C5.31495 11.3618 5.28315 11.375 5.25 11.375C5.22458 11.3583 5.15667 11.2771 5.11125 11.1213L4.65625 8.16292C4.65625 8.15667 4.65625 8.15042 4.65292 8.14417C4.63836 8.07591 4.63872 8.00532 4.65396 7.93722C4.66921 7.86912 4.69898 7.80511 4.74125 7.74958C4.77241 7.71179 4.81194 7.68177 4.8567 7.66188C4.90146 7.64199 4.95024 7.63279 4.99917 7.635C5.04841 7.635 5.09718 7.6447 5.14267 7.66355C5.18817 7.68239 5.22951 7.71001 5.26433 7.74483C5.29915 7.77966 5.32678 7.821 5.34562 7.86649C5.36447 7.91199 5.37417 7.96075 5.37417 8.01L5.375 11.25ZM8.51792 12.375C8.08831 12.376 7.67658 12.5471 7.37276 12.8508C7.06894 13.1545 6.89777 13.5662 6.89667 13.9958V17.2379C6.89755 17.6014 7.04234 17.9498 7.29939 18.2069C7.55644 18.4639 7.90482 18.6087 8.26833 18.6096C8.90875 18.6096 9.42667 18.1438 9.62042 17.3938C9.62542 17.3738 9.62958 17.3521 9.63292 17.3329L10.0913 14.3479C10.1382 14.1012 10.1305 13.8473 10.0687 13.6039C10.0069 13.3605 9.8926 13.1336 9.73375 12.9392C9.58599 12.7604 9.40011 12.617 9.18974 12.5194C8.97937 12.4217 8.74982 12.3724 8.51792 12.375ZM8.86417 14.1308C8.86417 14.1371 8.86167 14.1433 8.86083 14.1496L8.40583 17.1079C8.36042 17.2646 8.29208 17.3454 8.26667 17.3621C8.23351 17.3621 8.20172 17.3489 8.17828 17.3255C8.15484 17.302 8.14167 17.2702 8.14167 17.2371V13.995C8.14167 13.8955 8.18118 13.8002 8.2515 13.7298C8.32183 13.6595 8.41721 13.62 8.51667 13.62C8.56563 13.6179 8.61441 13.6272 8.65917 13.6471C8.70393 13.6671 8.74344 13.6972 8.77458 13.735C8.81715 13.7905 8.8472 13.8545 8.86266 13.9227C8.87813 13.9909 8.87864 14.0616 8.86417 14.13V14.1308Z" fill="#313131"/>
</g>
<defs>
<clipPath id="clip0_1427_4857">
<rect width="24" height="24" fill="white"/>
</clipPath>
</defs>
</svg>
