<svg width="24" height="24" viewBox="0 0 24 24" fill="none" xmlns="http://www.w3.org/2000/svg">
<g clip-path="url(#clip0_1427_4852)">
<path d="M15.1179 6.93V5.01708C15.1071 4.85908 15.0367 4.71107 14.921 4.60297C14.8052 4.49488 14.6527 4.43475 14.4944 4.43475C14.336 4.43475 14.1835 4.49488 14.0678 4.60297C13.952 4.71107 13.8816 4.85908 13.8708 5.01708V6.93L12.2146 5.97375C12.1435 5.92631 12.0635 5.89394 11.9794 5.87864C11.8954 5.86334 11.8091 5.86544 11.7259 5.88481C11.6426 5.90418 11.5643 5.9404 11.4956 5.99124C11.427 6.04208 11.3694 6.10646 11.3266 6.1804C11.2838 6.25434 11.2566 6.33628 11.2467 6.42114C11.2368 6.506 11.2445 6.59199 11.2691 6.6738C11.2937 6.75561 11.3349 6.8315 11.39 6.89678C11.4451 6.96205 11.5131 7.01534 11.5896 7.05333L13.2463 8.01167L11.5896 8.96792C11.4566 9.05576 11.3622 9.19107 11.3257 9.34619C11.2892 9.5013 11.3133 9.66451 11.3932 9.80243C11.473 9.94036 11.6025 10.0426 11.7551 10.0882C11.9078 10.1338 12.0722 10.1194 12.2146 10.0479L13.8708 9.08958V11.0025C13.8816 11.1605 13.952 11.3085 14.0678 11.4166C14.1835 11.5247 14.336 11.5848 14.4944 11.5848C14.6527 11.5848 14.8052 11.5247 14.921 11.4166C15.0367 11.3085 15.1071 11.1605 15.1179 11.0025V9.08958L16.7742 10.0479C16.9166 10.1194 17.0809 10.1338 17.2336 10.0882C17.3863 10.0426 17.5158 9.94036 17.5956 9.80243C17.6754 9.66451 17.6995 9.5013 17.663 9.34619C17.6265 9.19107 17.5321 9.05576 17.3992 8.96792L15.7425 8.01167L17.3992 7.05333C17.5313 6.96513 17.6248 6.82993 17.6609 6.67521C17.6969 6.5205 17.6726 6.35788 17.593 6.2204C17.5134 6.08293 17.3845 5.98092 17.2324 5.9351C17.0803 5.88929 16.9164 5.90311 16.7742 5.97375L15.1179 6.93ZM23.8175 6.84667L17.1533 0.1825C17.0363 0.0657657 16.8778 0.000145376 16.7125 0L7.2875 0C7.1222 0.000145376 6.9637 0.0657657 6.84667 0.1825L0.1825 6.84667C0.0657657 6.9637 0.000145376 7.1222 0 7.2875L0 16.7125C0.000145376 16.8778 0.0657657 17.0363 0.1825 17.1533L6.84667 23.8175C6.9637 23.9342 7.1222 23.9999 7.2875 24H16.7125C16.8778 23.9999 17.0363 23.9342 17.1533 23.8175L23.8175 17.1533C23.9342 17.0363 23.9999 16.8778 24 16.7125V7.2875C23.9999 7.1222 23.9342 6.9637 23.8175 6.84667ZM1.24708 16.2475V14.765C1.247 14.6988 1.26011 14.6333 1.28566 14.5723C1.3112 14.5113 1.34865 14.456 1.39583 14.4096L5.73458 10.1333C5.80505 10.0643 5.89989 10.0258 5.99855 10.0262C6.09722 10.0265 6.19175 10.0658 6.26167 10.1354L11.3417 15.2154C11.3768 15.2505 11.4046 15.2922 11.4236 15.338C11.4426 15.3839 11.4524 15.4331 11.4524 15.4827C11.4524 15.5324 11.4426 15.5815 11.4236 15.6274C11.4046 15.6732 11.3768 15.7149 11.3417 15.75L10.2625 16.8333C10.2274 16.8687 10.1856 16.8969 10.1396 16.916C10.0936 16.9352 10.0442 16.9451 9.99438 16.9451C9.94452 16.9451 9.89515 16.9352 9.84913 16.916C9.80311 16.8969 9.76135 16.8687 9.72625 16.8333L8.45833 15.5513C8.37078 15.4639 8.25927 15.4045 8.13793 15.3805C8.01658 15.3565 7.89085 15.3691 7.77667 15.4167C7.68686 15.4471 7.6053 15.4979 7.53833 15.565L6.27292 16.8333C6.23778 16.8688 6.19598 16.8969 6.14993 16.9161C6.10388 16.9353 6.05448 16.9451 6.00458 16.9451C5.95469 16.9451 5.90529 16.9353 5.85924 16.9161C5.81318 16.8969 5.77138 16.8688 5.73625 16.8333L4.46833 15.5538C4.38106 15.466 4.26968 15.4061 4.14832 15.3817C4.02696 15.3573 3.90109 15.3694 3.78667 15.4167C3.69682 15.447 3.61523 15.4978 3.54833 15.565L2.22125 16.8929C2.18618 16.9281 2.14449 16.9561 2.09858 16.9752C2.05268 16.9942 2.00346 17.0041 1.95375 17.0041C1.90404 17.0041 1.85482 16.9942 1.80892 16.9752C1.76301 16.9561 1.72132 16.9281 1.68625 16.8929L1.39458 16.6012C1.34794 16.5549 1.3109 16.4998 1.28559 16.4391C1.26028 16.3784 1.2472 16.3133 1.24708 16.2475ZM16.2471 22.7529H7.75292C7.62041 22.7529 7.49333 22.7003 7.39958 22.6067L3.10292 18.31C3.03211 18.2391 2.99234 18.1429 2.99234 18.0427C2.99234 17.9425 3.03211 17.8463 3.10292 17.7754L3.74458 17.1325C3.77968 17.0971 3.82144 17.069 3.86747 17.0498C3.91349 17.0306 3.96285 17.0207 4.01271 17.0207C4.06257 17.0207 4.11193 17.0306 4.15795 17.0498C4.20397 17.069 4.24574 17.0971 4.28083 17.1325L5.56083 18.4242C5.61831 18.4823 5.68668 18.5285 5.76203 18.5602C5.83739 18.5919 5.91826 18.6084 6 18.6087C6.1657 18.6086 6.32457 18.5427 6.44167 18.4254L7.73333 17.1338C7.76843 17.0983 7.81019 17.0702 7.85622 17.051C7.90224 17.0319 7.9516 17.022 8.00146 17.022C8.05132 17.022 8.10068 17.0319 8.1467 17.051C8.19272 17.0702 8.23449 17.0983 8.26958 17.1338L9.55 18.4254C9.60774 18.4836 9.67641 18.5298 9.75207 18.5613C9.82772 18.5928 9.90887 18.6091 9.99083 18.6092C10.1564 18.6089 10.3151 18.543 10.4321 18.4258L12.2213 16.6342C12.2564 16.599 12.298 16.5711 12.344 16.552C12.3899 16.533 12.4391 16.5232 12.4888 16.5232C12.5384 16.5232 12.5876 16.533 12.6336 16.552C12.6795 16.5711 12.7211 16.599 12.7563 16.6342L17.3996 21.2729C17.4704 21.3439 17.5102 21.4401 17.5102 21.5404C17.5102 21.6407 17.4704 21.7369 17.3996 21.8079L16.6004 22.6067C16.5067 22.7003 16.3796 22.7529 16.2471 22.7529ZM18.2812 20.3913L13.7812 15.8913C13.7491 15.859 13.7272 15.8179 13.7183 15.7732C13.7095 15.7285 13.7141 15.6822 13.7315 15.6401C13.7489 15.598 13.7784 15.562 13.8162 15.5366C13.8541 15.5112 13.8986 15.4976 13.9442 15.4975L18.5054 15.4888C18.6379 15.4888 18.765 15.5414 18.8587 15.635L20.9475 17.7233C21.0184 17.7943 21.0583 17.8905 21.0583 17.9908C21.0583 18.0912 21.0184 18.1874 20.9475 18.2583L18.8154 20.3904C18.7446 20.4612 18.6486 20.5011 18.5485 20.5012C18.4484 20.5014 18.3523 20.4618 18.2812 20.3913ZM22.6067 16.5996L22.3646 16.8417C22.3295 16.8768 22.2878 16.9047 22.2419 16.9238C22.196 16.9428 22.1468 16.9526 22.0971 16.9526C22.0474 16.9526 21.9982 16.9428 21.9523 16.9238C21.9064 16.9047 21.8647 16.8768 21.8296 16.8417L19.4129 14.425C19.2959 14.3083 19.1374 14.2426 18.9721 14.2425L12.3546 14.2546C12.2888 14.2549 12.2236 14.2421 12.1628 14.217C12.102 14.1919 12.0468 14.1549 12.0004 14.1083L6.44292 8.55333C6.32632 8.43742 6.16875 8.37212 6.00435 8.37157C5.83994 8.37103 5.68194 8.43528 5.56458 8.55042L1.24708 12.8054V7.75292C1.24709 7.62041 1.29969 7.49333 1.39333 7.39958L7.39958 1.39333C7.49333 1.29969 7.62041 1.24709 7.75292 1.24708H16.2471C16.3796 1.24709 16.5067 1.29969 16.6004 1.39333L22.6067 7.39958C22.7003 7.49333 22.7529 7.62041 22.7529 7.75292V16.2471C22.7529 16.3796 22.7003 16.5067 22.6067 16.6004V16.5996Z" fill="#313131"/>
</g>
<defs>
<clipPath id="clip0_1427_4852">
<rect width="24" height="24" fill="white"/>
</clipPath>
</defs>
</svg>
