<svg width="24" height="24" viewBox="0 0 24 24" fill="none" xmlns="http://www.w3.org/2000/svg">
<g clip-path="url(#clip0_1427_4858)">
<path d="M23.8175 6.84667L17.1533 0.1825C17.0363 0.0657657 16.8778 0.000145376 16.7125 0L7.2875 0C7.1222 0.000145376 6.9637 0.0657657 6.84667 0.1825L0.1825 6.84667C0.0657657 6.9637 0.000145376 7.1222 0 7.2875L0 16.7125C0.000145376 16.8778 0.0657657 17.0363 0.1825 17.1533L6.84667 23.8175C6.9637 23.9342 7.1222 23.9999 7.2875 24H16.7125C16.8778 23.9999 17.0363 23.9342 17.1533 23.8175L23.8175 17.1533C23.9342 17.0363 23.9999 16.8778 24 16.7125V7.2875C23.9999 7.1222 23.9342 6.9637 23.8175 6.84667ZM21.0304 6.375H13.0033C12.955 6.37505 12.9072 6.36559 12.8626 6.34715C12.8179 6.3287 12.7774 6.30164 12.7432 6.26751C12.709 6.23338 12.6819 6.19285 12.6634 6.14823C12.6449 6.10362 12.6354 6.0558 12.6354 6.0075C12.6354 5.9592 12.6449 5.91138 12.6634 5.86677C12.6819 5.82215 12.709 5.78162 12.7432 5.74749C12.7774 5.71336 12.8179 5.6863 12.8626 5.66785C12.9072 5.64941 12.955 5.63995 13.0033 5.64H20.6413C20.7734 5.64012 20.9001 5.69255 20.9938 5.78583L21.1925 5.98417C21.2244 6.01624 21.2461 6.05704 21.2549 6.10144C21.2637 6.14583 21.2591 6.19182 21.2418 6.23362C21.2244 6.27542 21.1951 6.31115 21.1575 6.33631C21.1199 6.36147 21.0757 6.37493 21.0304 6.375ZM15.0046 9.63083H15.9846C16.147 9.63257 16.3038 9.57204 16.4229 9.46168C16.542 9.35132 16.6144 9.19953 16.625 9.0375C16.6289 8.95325 16.6157 8.86908 16.5862 8.79007C16.5566 8.71106 16.5114 8.63884 16.4533 8.57776C16.3951 8.51668 16.3252 8.468 16.2477 8.43466C16.1703 8.40131 16.0868 8.384 16.0025 8.38375H14.4725C14.34 8.38375 14.2129 8.33114 14.1192 8.2375L13.8946 8.01333C13.8625 7.98137 13.8406 7.94058 13.8317 7.89616C13.8228 7.85174 13.8273 7.80568 13.8446 7.76381C13.8619 7.72195 13.8913 7.68617 13.929 7.66101C13.9666 7.63585 14.0109 7.62245 14.0563 7.6225L22.3854 7.61917C22.4337 7.61911 22.4815 7.62858 22.5261 7.64703C22.5707 7.66548 22.6113 7.69255 22.6454 7.72668C22.6795 7.76082 22.7066 7.80135 22.7251 7.84597C22.7435 7.89058 22.753 7.93839 22.7529 7.98667V11.0087C22.753 11.057 22.7435 11.1049 22.7251 11.1495C22.7066 11.1941 22.6796 11.2347 22.6454 11.2689C22.6113 11.3031 22.5708 11.3302 22.5261 11.3487C22.4815 11.3671 22.4337 11.3767 22.3854 11.3767H15.0054C14.906 11.3767 14.8106 11.3372 14.7403 11.2668C14.6699 11.1965 14.6304 11.1011 14.6304 11.0017V10.0046C14.6307 9.90549 14.6703 9.81055 14.7404 9.74052C14.8105 9.67049 14.9055 9.63105 15.0046 9.63083ZM22.7546 12.9913V13.0042C22.7546 13.1016 22.7159 13.1951 22.6469 13.264C22.578 13.3329 22.4846 13.3717 22.3871 13.3717H6.98958C6.89212 13.3717 6.79864 13.3329 6.72972 13.264C6.6608 13.1951 6.62208 13.1016 6.62208 13.0042V12.9913C6.62203 12.943 6.63149 12.8951 6.64994 12.8505C6.66838 12.8059 6.69544 12.7653 6.72957 12.7311C6.76371 12.6969 6.80424 12.6698 6.84885 12.6513C6.89347 12.6329 6.94129 12.6233 6.98958 12.6233H22.3854C22.4337 12.6233 22.4815 12.6329 22.5261 12.6513C22.5708 12.6698 22.6113 12.6969 22.6454 12.7311C22.6796 12.7653 22.7066 12.8059 22.7251 12.8505C22.7435 12.8951 22.753 12.943 22.7529 12.9913H22.7546ZM1.39292 7.4L7.4 1.39292C7.49361 1.29963 7.62034 1.2472 7.7525 1.24708H16.2475C16.3797 1.2472 16.5064 1.29963 16.6 1.39292L19.2083 4.00292C19.2404 4.03489 19.2623 4.07567 19.2712 4.12009C19.2801 4.16451 19.2756 4.21057 19.2583 4.25244C19.241 4.2943 19.2116 4.33008 19.1739 4.35524C19.1363 4.3804 19.092 4.3938 19.0467 4.39375H12.0121C11.8463 4.39375 11.6874 4.4596 11.5701 4.57681C11.4529 4.69402 11.3871 4.85299 11.3871 5.01875V7.01375C11.3871 7.17919 11.4527 7.33787 11.5696 7.455L13.2363 9.12167C13.3295 9.21528 13.382 9.34201 13.3821 9.47417V11.0042C13.3821 11.1036 13.3426 11.199 13.2722 11.2693C13.2019 11.3397 13.1065 11.3792 13.0071 11.3792H6C5.83424 11.3792 5.67527 11.445 5.55806 11.5622C5.44085 11.6794 5.375 11.8384 5.375 12.0042V13.9992C5.37515 14.1645 5.44077 14.323 5.5575 14.44L7.22417 16.1067C7.31745 16.2003 7.36988 16.327 7.37 16.4592V18.0229C7.37 18.1204 7.33128 18.2139 7.26236 18.2828C7.19344 18.3517 7.09997 18.3904 7.0025 18.3904H3.38542C3.31993 18.3904 3.25508 18.3775 3.19459 18.3524C3.13409 18.3273 3.07915 18.2905 3.03292 18.2442L1.39292 16.6C1.29963 16.5064 1.2472 16.3797 1.24708 16.2475V7.7525C1.2472 7.62034 1.29963 7.49361 1.39292 7.4ZM16.2475 22.7529H7.7525C7.62034 22.7528 7.49361 22.7004 7.4 22.6071L4.81667 20.0238C4.78457 19.9918 4.76268 19.951 4.75379 19.9066C4.74489 19.8622 4.74939 19.8161 4.7667 19.7742C4.78402 19.7324 4.81338 19.6966 4.85106 19.6714C4.88873 19.6463 4.93303 19.6329 4.97833 19.6329H19.02C19.0653 19.6329 19.1096 19.6463 19.1473 19.6714C19.185 19.6966 19.2143 19.7324 19.2316 19.7742C19.2489 19.8161 19.2534 19.8622 19.2445 19.9066C19.2357 19.951 19.2138 19.9918 19.1817 20.0238L16.5983 22.6071C16.5051 22.7 16.3791 22.7524 16.2475 22.7529ZM20.6146 18.3862H8.98458C8.88712 18.3862 8.79364 18.3475 8.72472 18.2786C8.6558 18.2097 8.61708 18.1162 8.61708 18.0188V16.9813C8.61708 16.8838 8.6558 16.7903 8.72472 16.7214C8.79364 16.6525 8.88712 16.6138 8.98458 16.6138H10.0263C10.1886 16.6154 10.3454 16.5548 10.4645 16.4445C10.5836 16.3341 10.6559 16.1824 10.6667 16.0204C10.6706 15.936 10.6573 15.8516 10.6276 15.7724C10.5979 15.6932 10.5525 15.6209 10.4941 15.5598C10.4357 15.4987 10.3654 15.45 10.2877 15.4168C10.2099 15.3836 10.1262 15.3666 10.0417 15.3667H8.45833C8.32632 15.3664 8.19976 15.314 8.10625 15.2208L7.89417 15.0087C7.86215 14.9768 7.84033 14.9361 7.83149 14.8917C7.82264 14.8474 7.82717 14.8014 7.84448 14.7596C7.8618 14.7179 7.89113 14.6822 7.92876 14.6571C7.96638 14.632 8.01061 14.6187 8.05583 14.6188H22.3854C22.4829 14.6188 22.5764 14.6575 22.6453 14.7264C22.7142 14.7953 22.7529 14.8888 22.7529 14.9863V16.2475C22.7528 16.3797 22.7004 16.5064 22.6071 16.6L20.9671 18.24C20.8735 18.3334 20.7468 18.386 20.6146 18.3862Z" fill="#313131"/>
</g>
<defs>
<clipPath id="clip0_1427_4858">
<rect width="24" height="24" fill="white"/>
</clipPath>
</defs>
</svg>
