<svg width="24" height="24" viewBox="0 0 24 24" fill="none" xmlns="http://www.w3.org/2000/svg">
<g clip-path="url(#clip0_1427_4843)">
<path d="M23.8175 6.84667L17.1533 0.1825C17.0363 0.0657657 16.8778 0.000145376 16.7125 0L7.2875 0C7.1222 0.000145376 6.9637 0.0657657 6.84667 0.1825L0.1825 6.84667C0.0657657 6.9637 0.000145376 7.1222 0 7.2875L0 16.7125C0.000145376 16.8778 0.0657657 17.0363 0.1825 17.1533L6.84667 23.8175C6.9637 23.9342 7.1222 23.9999 7.2875 24H16.7125C16.8778 23.9999 17.0363 23.9342 17.1533 23.8175L23.8175 17.1533C23.9342 17.0363 23.9999 16.8778 24 16.7125V7.2875C23.9999 7.1222 23.9342 6.9637 23.8175 6.84667ZM7.75292 1.24708H16.2471C16.3796 1.24709 16.5067 1.29969 16.6004 1.39333L20.2054 5C20.2375 5.03225 20.2593 5.07326 20.2681 5.11789C20.2769 5.16251 20.2723 5.20874 20.2549 5.25075C20.2375 5.29277 20.208 5.32869 20.1702 5.35399C20.1324 5.37928 20.088 5.39283 20.0425 5.39292H3.95833C3.91278 5.39299 3.86822 5.37957 3.8303 5.35433C3.79237 5.3291 3.76278 5.29319 3.74525 5.25114C3.72773 5.20909 3.72306 5.16279 3.73184 5.11809C3.74062 5.07339 3.76246 5.0323 3.79458 5L7.39958 1.395C7.44587 1.34833 7.5009 1.31125 7.56152 1.28586C7.62215 1.26048 7.68719 1.24731 7.75292 1.24708ZM16.2471 22.7529H7.75292C7.62041 22.7529 7.49333 22.7003 7.39958 22.6067L3.79708 19.0042C3.7649 18.9721 3.74294 18.9312 3.73397 18.8867C3.72499 18.8421 3.72941 18.796 3.74665 18.7539C3.7639 18.7119 3.79321 18.6759 3.83088 18.6505C3.86856 18.6251 3.9129 18.6115 3.95833 18.6113L20.0417 18.6087C20.0872 18.6088 20.1316 18.6224 20.1694 18.6477C20.2072 18.673 20.2367 18.7089 20.2541 18.7509C20.2715 18.7929 20.2761 18.8392 20.2673 18.8838C20.2585 18.9284 20.2367 18.9694 20.2046 19.0017L16.5996 22.6067C16.506 22.7001 16.3793 22.7527 16.2471 22.7529ZM22.3796 9.87792H20.4304C20.2647 9.87792 20.1057 9.94376 19.9885 10.061C19.8713 10.1782 19.8054 10.3372 19.8054 10.5029V13.5029C19.8054 13.6687 19.8713 13.8276 19.9885 13.9449C20.1057 14.0621 20.2647 14.1279 20.4304 14.1279H22.3796C22.479 14.1279 22.5744 14.1674 22.6447 14.2378C22.7151 14.3081 22.7546 14.4035 22.7546 14.5029V16.4613L21.8471 17.3688H20.4475C20.348 17.3688 20.2527 17.3292 20.1823 17.2589C20.112 17.1886 20.0725 17.0932 20.0725 16.9938V14.9938C20.0725 14.828 20.0067 14.669 19.8894 14.5518C19.7722 14.4346 19.6133 14.3688 19.4475 14.3688H16.4475C16.2817 14.3688 16.1228 14.4346 16.0056 14.5518C15.8883 14.669 15.8225 14.828 15.8225 14.9938V16.9938C15.8225 17.0932 15.783 17.1886 15.7127 17.2589C15.6423 17.3292 15.547 17.3688 15.4475 17.3688H12.4904C12.391 17.3688 12.2956 17.3292 12.2253 17.2589C12.1549 17.1886 12.1154 17.0932 12.1154 16.9938V14.9938C12.1154 14.828 12.0496 14.669 11.9324 14.5518C11.8151 14.4346 11.6562 14.3688 11.4904 14.3688H8.49042C8.32466 14.3688 8.16569 14.4346 8.04848 14.5518C7.93126 14.669 7.86542 14.828 7.86542 14.9938V16.9938C7.86542 17.0932 7.82591 17.1886 7.75558 17.2589C7.68526 17.3292 7.58987 17.3688 7.49042 17.3688H4.53333C4.43388 17.3688 4.33849 17.3292 4.26817 17.2589C4.19784 17.1886 4.15833 17.0932 4.15833 16.9938V14.9938C4.15833 14.828 4.09249 14.669 3.97528 14.5518C3.85806 14.4346 3.69909 14.3688 3.53333 14.3688H1.61667C1.51721 14.3688 1.42183 14.3292 1.3515 14.2589C1.28118 14.1886 1.24167 14.0932 1.24167 13.9938V10.01C1.24167 9.91054 1.28118 9.81516 1.3515 9.74483C1.42183 9.67451 1.51721 9.635 1.61667 9.635H3.53333C3.69909 9.635 3.85806 9.56915 3.97528 9.45194C4.09249 9.33473 4.15833 9.17576 4.15833 9.01V7.01C4.15833 6.91054 4.19784 6.81516 4.26817 6.74483C4.33849 6.67451 4.43388 6.635 4.53333 6.635H7.5C7.59946 6.635 7.69484 6.67451 7.76517 6.74483C7.83549 6.81516 7.875 6.91054 7.875 7.01V9.01C7.875 9.17576 7.94085 9.33473 8.05806 9.45194C8.17527 9.56915 8.33424 9.635 8.5 9.635H11.5C11.6658 9.635 11.8247 9.56915 11.9419 9.45194C12.0592 9.33473 12.125 9.17576 12.125 9.01V7.01C12.125 6.91054 12.1645 6.81516 12.2348 6.74483C12.3052 6.67451 12.4005 6.635 12.5 6.635H15.4646C15.564 6.635 15.6594 6.67451 15.7297 6.74483C15.8001 6.81516 15.8396 6.91054 15.8396 7.01V9.01C15.8396 9.17576 15.9054 9.33473 16.0226 9.45194C16.1399 9.56915 16.2988 9.635 16.4646 9.635H19.4646C19.6303 9.635 19.7893 9.56915 19.9065 9.45194C20.0237 9.33473 20.0896 9.17576 20.0896 9.01V7.01C20.0896 6.91054 20.1291 6.81516 20.1994 6.74483C20.2697 6.67451 20.3651 6.635 20.4646 6.635H21.8625L22.77 7.5425V9.50083C22.7703 9.55154 22.7602 9.60178 22.7405 9.64851C22.7208 9.69524 22.6919 9.73748 22.6554 9.77269C22.6189 9.8079 22.5756 9.83534 22.5282 9.85336C22.4808 9.87137 22.4303 9.87959 22.3796 9.8775V9.87792ZM7.51458 9.87792H4.51458C4.34882 9.87792 4.18985 9.94376 4.07264 10.061C3.95543 10.1782 3.88958 10.3372 3.88958 10.5029V13.5029C3.88958 13.6687 3.95543 13.8276 4.07264 13.9449C4.18985 14.0621 4.34882 14.1279 4.51458 14.1279H7.51458C7.68034 14.1279 7.83931 14.0621 7.95653 13.9449C8.07374 13.8276 8.13958 13.6687 8.13958 13.5029V10.5C8.13892 10.3347 8.07278 10.1763 7.95564 10.0597C7.8385 9.943 7.67991 9.8775 7.51458 9.8775V9.87792ZM15.4729 9.87792H12.4729C12.3072 9.87792 12.1482 9.94376 12.031 10.061C11.9138 10.1782 11.8479 10.3372 11.8479 10.5029V13.5029C11.8479 13.6687 11.9138 13.8276 12.031 13.9449C12.1482 14.0621 12.3072 14.1279 12.4729 14.1279H15.4729C15.6387 14.1279 15.7976 14.0621 15.9149 13.9449C16.0321 13.8276 16.0979 13.6687 16.0979 13.5029V10.5C16.0973 10.3345 16.0309 10.1759 15.9135 10.0592C15.7961 9.94253 15.6372 9.87717 15.4717 9.8775L15.4729 9.87792Z" fill="#313131"/>
</g>
<defs>
<clipPath id="clip0_1427_4843">
<rect width="24" height="24" fill="white"/>
</clipPath>
</defs>
</svg>
