<svg width="24" height="24" viewBox="0 0 24 24" fill="none" xmlns="http://www.w3.org/2000/svg">
<g clip-path="url(#clip0_1427_4844)">
<path d="M23.8175 6.84667L17.1533 0.1825C17.0363 0.0657657 16.8778 0.000145376 16.7125 0L7.2875 0C7.1222 0.000145376 6.9637 0.0657657 6.84667 0.1825L0.1825 6.84667C0.0657657 6.9637 0.000145376 7.1222 0 7.2875L0 16.7125C0.000145376 16.8778 0.0657657 17.0363 0.1825 17.1533L6.84667 23.8175C6.9637 23.9342 7.1222 23.9999 7.2875 24H16.7125C16.8778 23.9999 17.0363 23.9342 17.1533 23.8175L23.8175 17.1533C23.9342 17.0363 23.9999 16.8778 24 16.7125V7.2875C23.9999 7.1222 23.9342 6.9637 23.8175 6.84667ZM1.39292 7.4L4.00375 4.78917C4.03568 4.75715 4.07641 4.73533 4.12076 4.72649C4.1651 4.71764 4.21108 4.72217 4.25285 4.73948C4.29463 4.7568 4.33032 4.78613 4.3554 4.82376C4.38049 4.86138 4.39383 4.90561 4.39375 4.95083V19.0492C4.39383 19.0944 4.38049 19.1386 4.3554 19.1762C4.33032 19.2139 4.29463 19.2432 4.25285 19.2605C4.21108 19.2778 4.1651 19.2824 4.12076 19.2735C4.07641 19.2647 4.03568 19.2429 4.00375 19.2108L1.39292 16.6C1.29973 16.5065 1.24731 16.3799 1.24708 16.2479V7.75208C1.24731 7.62007 1.29973 7.49351 1.39292 7.4ZM10.6479 21.8583C10.6479 21.8517 10.6479 21.8446 10.6479 21.8375C10.6479 21.8304 10.6479 21.8237 10.6479 21.8171V21.7754C10.6479 21.7683 10.6479 21.7612 10.6479 21.7542C10.6479 21.7471 10.6479 21.7404 10.6479 21.7337V21.6921C10.6479 21.6854 10.6479 21.6783 10.6479 21.6712V21.6083C10.6479 21.6012 10.6479 21.5942 10.6479 21.5871C10.6479 21.58 10.6479 21.5737 10.6479 21.5667V21.525C10.6479 21.5183 10.6479 21.5112 10.6479 21.5046C10.6479 21.4979 10.6479 21.4904 10.6479 21.4833V21.4417C10.6479 21.435 10.6479 21.4279 10.6479 21.4212C10.6479 21.4146 10.6479 21.4075 10.6479 21.4004V21.3587C10.6479 21.3517 10.6479 21.3446 10.6479 21.3379C10.6479 21.3313 10.6479 21.3238 10.6479 21.3167V21.1917C10.6479 21.1846 10.6479 21.1775 10.6479 21.1708C10.6479 21.1642 10.6479 21.1567 10.6479 21.1496V21.1079C10.6479 21.1013 10.6479 21.0946 10.6479 21.0875C10.6479 21.0804 10.6479 21.0738 10.6479 21.0667V21.025C10.6479 21.0179 10.6479 21.0108 10.6479 21.0037C10.6479 20.9967 10.6479 20.99 10.6479 20.9833V20.9417C10.6479 20.935 10.6479 20.9279 10.6479 20.9208V20.7754C10.6479 20.7688 10.6479 20.7617 10.6479 20.755C10.6479 20.7483 10.6479 20.7408 10.6479 20.7342V20.6925C10.6479 20.6854 10.6479 20.6783 10.6479 20.6712C10.6479 20.6642 10.6479 20.6579 10.6479 20.6508V20.6092C10.6479 20.6021 10.6479 20.595 10.6479 20.5883C10.6479 20.5817 10.6479 20.5742 10.6479 20.5671V20.4421C10.6479 20.435 10.6479 20.4279 10.6479 20.4212C10.6479 20.4146 10.6479 20.4071 10.6479 20.4V20.3583C10.6479 20.3517 10.6479 20.345 10.6479 20.3379C10.6479 20.3308 10.6479 20.3242 10.6479 20.3171V20.2754C10.6479 20.2683 10.6479 20.2612 10.6479 20.2546C10.6479 20.2479 10.6479 20.2404 10.6479 20.2333V20.1917C10.6479 20.1846 10.6479 20.1779 10.6479 20.1708V20.0292C10.6479 20.0225 10.6479 20.0154 10.6479 20.0083C10.6479 20.0013 10.6479 19.9946 10.6479 19.9879V19.9463C10.6479 19.9392 10.6479 19.9321 10.6479 19.925C10.6479 19.9179 10.6479 19.9117 10.6479 19.9046V19.8629C10.6479 19.8563 10.6479 19.8492 10.6479 19.8425C10.6479 19.8358 10.6479 19.8283 10.6479 19.8217V19.78C10.6479 19.7729 10.6479 19.7658 10.6479 19.7588V19.6971C10.6479 19.69 10.6479 19.6829 10.6479 19.6763C10.6479 19.6696 10.6479 19.6621 10.6479 19.655V19.6133C10.6479 19.6067 10.6479 19.6 10.6479 19.5929C10.6479 19.5858 10.6479 19.5792 10.6479 19.5721V19.5304C10.6479 19.5233 10.6479 19.5163 10.6479 19.5096C10.6479 19.5029 10.6479 19.4954 10.6479 19.4883V19.4467C10.6479 19.44 10.6479 19.4333 10.6479 19.4263V19.2808C10.6479 19.2738 10.6479 19.2671 10.6479 19.26C10.6479 19.2529 10.6479 19.2463 10.6479 19.2396V19.1979C10.6479 19.1908 10.6479 19.1838 10.6479 19.1767C10.6479 19.1696 10.6479 19.1633 10.6479 19.1562V19.1146C10.6479 19.1079 10.6479 19.1008 10.6479 19.0942C10.6479 19.0875 10.6479 19.08 10.6479 19.0733V19.0317C10.6479 19.0246 10.6479 19.0175 10.6479 19.0104V18.9483C10.6479 18.9417 10.6479 18.9346 10.6479 18.9279C10.6479 18.9213 10.6479 18.9142 10.6479 18.9071V18.8654C10.6479 18.8583 10.6479 18.8513 10.6479 18.8442C10.6479 18.8371 10.6479 18.8308 10.6479 18.8237V18.7821C10.6479 18.775 10.6479 18.7679 10.6479 18.7612C10.6479 18.7546 10.6479 18.7471 10.6479 18.74V18.6983C10.6479 18.6917 10.6479 18.685 10.6479 18.6779V18.5321C10.6479 18.5254 10.6479 18.5188 10.6479 18.5117C10.6479 18.5046 10.6479 18.4979 10.6479 18.4913V18.4496C10.6479 18.4425 10.6479 18.4358 10.6479 18.4288C10.6479 18.4217 10.6479 18.4146 10.6479 18.4075V18.3658C10.6479 18.3587 10.6479 18.3521 10.6479 18.3454C10.6479 18.3388 10.6479 18.3313 10.6479 18.3246V18.2829C10.6479 18.2758 10.6479 18.2688 10.6479 18.2617V18.2C10.6479 18.1929 10.6479 18.1858 10.6479 18.1792C10.6479 18.1725 10.6479 18.165 10.6479 18.1583V18.1167C10.6479 18.1096 10.6479 18.1025 10.6479 18.0954C10.6479 18.0883 10.6479 18.0821 10.6479 18.075V18.0333C10.6479 18.0262 10.6479 18.0192 10.6479 18.0125C10.6479 18.0058 10.6479 17.9983 10.6479 17.9917V17.95C10.6479 17.9429 10.6479 17.9358 10.6479 17.9292V17.7838C10.6479 17.7767 10.6479 17.77 10.6479 17.7629C10.6479 17.7558 10.6479 17.7492 10.6479 17.7421V17.7004C10.6479 17.6933 10.6479 17.6867 10.6479 17.6796C10.6479 17.6725 10.6479 17.6654 10.6479 17.6583V17.6167C10.6479 17.6096 10.6479 17.6029 10.6479 17.5963C10.6479 17.5896 10.6479 17.5821 10.6479 17.5754V17.5338C10.6479 17.5267 10.6479 17.52 10.6479 17.5129V17.4504C10.6479 17.4433 10.6479 17.4367 10.6479 17.43C10.6479 17.4233 10.6479 17.4158 10.6479 17.4092V17.3675C10.6479 17.3604 10.6479 17.3533 10.6479 17.3463C10.6479 17.3392 10.6479 17.3329 10.6479 17.3258V17.2842C10.6479 17.2771 10.6479 17.27 10.6479 17.2633C10.6479 17.2567 10.6479 17.2492 10.6479 17.2425V17.2008C10.6479 17.1938 10.6479 17.1867 10.6479 17.18V17.0375C10.6479 17.0304 10.6479 17.0233 10.6479 17.0167C10.6479 17.01 10.6479 17.0029 10.6479 16.9963V16.9546C10.6479 16.9488 10.6479 16.9425 10.6479 16.9367C10.6479 16.9308 10.6479 16.9242 10.6479 16.9179V16.8808C10.6483 16.8745 10.6483 16.868 10.6479 16.8617C10.6479 16.8554 10.6479 16.8492 10.6479 16.8429V16.8063C10.6479 16.8 10.6479 16.7938 10.6479 16.7879C10.6479 16.7821 10.6479 16.7754 10.6479 16.7692V16.7317C10.6479 16.7254 10.6479 16.7192 10.6479 16.7133C10.6483 16.7071 10.6483 16.7008 10.6479 16.6946L10.65 16.6579C10.65 16.6517 10.65 16.6454 10.65 16.6392V16.6208L10.6525 16.5829V16.5646C10.6525 16.5583 10.6525 16.5525 10.6525 16.5462L10.6554 16.5092V16.49C10.6554 16.4838 10.6554 16.4775 10.6554 16.4713L10.6592 16.4346V16.4163L10.6617 16.3979L10.6654 16.3604C10.6654 16.3546 10.6654 16.3483 10.6654 16.3425C10.6654 16.3367 10.6675 16.33 10.6683 16.3233L10.6725 16.2871C10.6725 16.2808 10.6725 16.2746 10.6746 16.2683C10.6767 16.2621 10.6746 16.2563 10.6775 16.2504L10.6825 16.2129C10.6825 16.2067 10.6825 16.2008 10.6825 16.195C10.6825 16.1892 10.6846 16.1825 10.6858 16.1763L10.6912 16.1396L10.6938 16.1208C10.6938 16.115 10.6938 16.1092 10.6967 16.1033L10.7029 16.0658C10.7029 16.06 10.705 16.0542 10.7058 16.0479C10.7067 16.0417 10.7083 16.0358 10.7092 16.0296L10.7158 15.9933C10.7158 15.9871 10.7179 15.9804 10.7192 15.9742C10.7204 15.9679 10.7217 15.9621 10.7225 15.9558L10.7296 15.9196C10.7296 15.9138 10.7321 15.9079 10.7329 15.9017C10.7338 15.8954 10.7358 15.8896 10.7371 15.8837L10.7446 15.8467L10.7483 15.8288C10.7483 15.8229 10.7513 15.8167 10.7525 15.8104L10.7604 15.7746C10.7604 15.7683 10.7633 15.7625 10.7642 15.7563C10.765 15.75 10.7675 15.7438 10.7688 15.7379L10.7775 15.7017C10.7775 15.6958 10.7804 15.69 10.7817 15.6838C10.7829 15.6775 10.7846 15.6721 10.7863 15.6658L10.7954 15.6296C10.7954 15.6237 10.7983 15.6179 10.7996 15.6117C10.8016 15.6059 10.8033 15.6001 10.8046 15.5942L10.8142 15.5583L10.8333 15.5417L10.8383 15.5238L10.8483 15.4883L10.8533 15.4708L10.8592 15.4525L10.8696 15.4167L10.8746 15.3992C10.8746 15.3937 10.8783 15.3879 10.88 15.3821L10.8917 15.3458L10.8967 15.3283L10.9029 15.3104L10.9146 15.275C10.9146 15.2692 10.9183 15.2638 10.92 15.2579L10.9263 15.24L10.9383 15.2046C10.9404 15.1988 10.9425 15.1929 10.9442 15.1871C10.9458 15.1812 10.9488 15.1754 10.9508 15.1696L10.9629 15.1358C10.9654 15.1296 10.9675 15.1233 10.9696 15.1175L10.9758 15.1008L10.9892 15.0654C10.9892 15.0596 10.9938 15.0538 10.9954 15.0479L11.0025 15.0317L11.0163 14.9958C11.0188 14.99 11.0208 14.9846 11.0229 14.9788C11.025 14.9729 11.0275 14.9675 11.03 14.9621L11.0442 14.9271L11.0513 14.9096C11.0513 14.9042 11.0558 14.8988 11.0583 14.8933L11.0729 14.8592C11.075 14.8533 11.0775 14.8475 11.08 14.8421L11.0879 14.8242L11.1025 14.7917C11.105 14.7858 11.1071 14.78 11.1096 14.7746C11.1121 14.7692 11.115 14.7633 11.1175 14.7575L11.1333 14.7238L11.1408 14.7067L11.1488 14.69L11.1646 14.6571C11.1675 14.6512 11.17 14.6454 11.1725 14.6396L11.1813 14.6225L11.1971 14.5908C11.1996 14.585 11.2025 14.5796 11.205 14.5737L11.2142 14.5567L11.2304 14.5242L11.2392 14.5071L11.2479 14.4908L11.265 14.4588L11.2738 14.4417L11.2825 14.4258L11.3004 14.3929C11.3033 14.3879 11.3063 14.3825 11.3088 14.3771L11.3179 14.3613L11.3367 14.3279C11.34 14.3225 11.3429 14.3171 11.3454 14.3121L11.3554 14.2954L11.3733 14.2646L11.3829 14.2483L11.3929 14.2321L11.4117 14.2004L11.4208 14.185L11.4313 14.1687L11.4508 14.1371L11.4604 14.1213C11.4637 14.1163 11.4671 14.1112 11.47 14.1062L11.4904 14.0746L11.5004 14.0583L11.5108 14.0433L11.5308 14.0129L11.5408 13.9975L11.5521 13.9812L11.5725 13.9508C11.5763 13.9458 11.5796 13.9404 11.5829 13.9354L11.5942 13.9196L11.6146 13.8904L11.625 13.875L11.6362 13.8592L11.6583 13.8288L11.6683 13.8146L11.68 13.7996L11.7021 13.7696L11.7129 13.7546L11.7246 13.74L11.7467 13.7108C11.7508 13.7058 11.7546 13.7004 11.7583 13.6954C11.7621 13.6904 11.7654 13.6867 11.7692 13.6821L11.7925 13.6521L11.8042 13.6367L11.8154 13.6233L11.8388 13.5942C11.8429 13.5896 11.8467 13.5846 11.8508 13.5796C11.855 13.5746 11.8588 13.57 11.8625 13.5654L11.8862 13.5367C11.8904 13.5321 11.8946 13.5267 11.8988 13.5217L11.9096 13.5096L11.9346 13.48C11.9388 13.4754 11.9429 13.4708 11.9467 13.4658C11.9504 13.4608 11.9546 13.4571 11.9588 13.4525L11.9837 13.4238L11.9963 13.4096C12 13.4054 12.0042 13.4012 12.0079 13.3967L12.0338 13.3683L12.0458 13.3546L12.0575 13.3425L12.0842 13.3138C12.0887 13.3092 12.0925 13.3046 12.0967 13.3L12.1092 13.2871L12.1358 13.2596L12.1479 13.2467L12.1613 13.2333L12.1871 13.2071L12.2 13.1938L12.2138 13.1804L12.24 13.1546L12.2529 13.1413L12.2675 13.1275L12.2937 13.1025L12.3063 13.09L12.3217 13.0763L12.3475 13.0517L12.3613 13.0387L12.3746 13.0267L12.4025 13.0013L12.4154 12.9892L12.4313 12.9758L12.4579 12.9521L12.4717 12.9396L12.4863 12.9275L12.515 12.9025L12.5288 12.8908L12.5433 12.8787L12.5717 12.855L12.5858 12.8429L12.6012 12.8304L12.6287 12.8079L12.6429 12.7962L12.6579 12.785L12.6879 12.7612L12.7017 12.75L12.7167 12.7388L12.7467 12.7158L12.7612 12.7046L12.7771 12.6925L12.8058 12.6712C12.8108 12.6679 12.8154 12.6637 12.8204 12.66L12.8367 12.6488L12.8654 12.6279L12.8808 12.6163L12.8954 12.6062L12.9275 12.5838L12.9421 12.5733L12.9567 12.5633L12.9888 12.5417C12.9938 12.5383 12.9987 12.535 13.0033 12.5312L13.0183 12.5217L13.0508 12.5004L13.0658 12.49L13.0804 12.4808L13.1133 12.46L13.1287 12.4496L13.1433 12.4408L13.1763 12.4204L13.1917 12.4104L13.2067 12.4017L13.24 12.3817L13.255 12.3721L13.2708 12.3633L13.3042 12.3438L13.32 12.3342L13.3367 12.325L13.3679 12.3071C13.3737 12.3042 13.3792 12.3008 13.3846 12.2975L13.4021 12.2883L13.4333 12.2713L13.4504 12.2617L13.4667 12.2533L13.4992 12.2358L13.5158 12.2271L13.5312 12.2192L13.5662 12.2013L13.5821 12.1929L13.5983 12.1854L13.6329 12.1679L13.6496 12.1596L13.6671 12.1517L13.6992 12.1362L13.7163 12.1279L13.7337 12.12L13.7675 12.1046L13.7842 12.0967L13.8004 12.0896L13.8363 12.0737L13.8529 12.0662L13.8692 12.0596L13.9038 12.0446C13.9096 12.0424 13.9153 12.0399 13.9208 12.0371L13.9371 12.0308L13.9733 12.0158L13.9904 12.0087L14.0083 12.0021L14.0421 11.9888L14.06 11.9812L14.0754 11.9758L14.1125 11.9621L14.1287 11.9554L14.1475 11.9487L14.1817 11.9367L14.1992 11.93L14.2158 11.9246L14.2529 11.9117L14.2704 11.9054L14.2875 11.9L14.3233 11.8883L14.3413 11.8821C14.3468 11.8808 14.3522 11.8791 14.3575 11.8771L14.3954 11.8654L14.4129 11.8596L14.4292 11.855L14.465 11.8442L14.4837 11.8383L14.5 11.8333L14.5358 11.8233L14.5533 11.8179L14.5725 11.8129L14.6071 11.8038L14.6246 11.7988L14.6421 11.7946L14.68 11.785L14.6979 11.7804L14.7154 11.7763L14.7517 11.7675L14.7696 11.7633L14.7887 11.7592L14.8237 11.7513L14.8421 11.7471L14.8587 11.7438L14.8975 11.7358L14.915 11.7317L14.9329 11.7283L14.97 11.7213C14.9758 11.7213 14.9821 11.7213 14.9879 11.7175L15.0054 11.7146L15.0425 11.7079L15.0617 11.7046L15.0783 11.7021L15.1154 11.6958L15.135 11.6925L15.1513 11.69L15.19 11.6842L15.2083 11.6813L15.2258 11.6792L15.2633 11.6742L15.2821 11.6712L15.3008 11.6692L15.3367 11.6646L15.3554 11.6621H15.3725L15.4121 11.6579L15.4304 11.6558H15.4479L15.4854 11.6525L15.5037 11.6504H15.5217L15.5592 11.6475H15.5788H15.5954L15.6329 11.645H15.6521H15.6692L15.7088 11.6429H15.7275H15.7446H15.7825H15.8017C15.8079 11.6433 15.8142 11.6433 15.8204 11.6429H15.8567H15.8763H16.9246C16.9698 11.6429 17.0139 11.6563 17.0515 11.6814C17.0891 11.7066 17.1183 11.7422 17.1356 11.784C17.1529 11.8258 17.1573 11.8717 17.1485 11.916C17.1396 11.9603 17.1178 12.001 17.0858 12.0329L15.5492 13.5542C15.4844 13.6104 15.4318 13.6794 15.3948 13.7568C15.3578 13.8342 15.3372 13.9184 15.3341 14.0041C15.3311 14.0899 15.3457 14.1754 15.3772 14.2552C15.4086 14.335 15.4561 14.4076 15.5168 14.4682C15.5775 14.5289 15.65 14.5764 15.7298 14.6079C15.8096 14.6393 15.8951 14.6539 15.9809 14.6509C16.0666 14.6479 16.1508 14.6272 16.2282 14.5902C16.3056 14.5532 16.3746 14.5006 16.4308 14.4358L19.4238 11.4433C19.5403 11.3262 19.6057 11.1677 19.6057 11.0025C19.6057 10.8373 19.5403 10.6788 19.4238 10.5617L16.4433 7.58333C16.3298 7.46735 16.1761 7.39929 16.0138 7.39317C15.8516 7.38704 15.6932 7.44332 15.5712 7.55042C15.5089 7.60725 15.4587 7.67611 15.4237 7.75285C15.3887 7.8296 15.3696 7.91263 15.3676 7.99695C15.3655 8.08128 15.3805 8.16515 15.4117 8.24351C15.4429 8.32187 15.4897 8.3931 15.5492 8.45292L17.0875 9.99125C17.1195 10.0232 17.1413 10.0638 17.1502 10.1082C17.159 10.1525 17.1545 10.1984 17.1373 10.2402C17.12 10.2819 17.0907 10.3176 17.0532 10.3427C17.0156 10.3678 16.9714 10.3813 16.9263 10.3813H15.8796H15.8546H15.8333H15.7863C15.7788 10.3808 15.7712 10.3808 15.7638 10.3813C15.7558 10.3813 15.7488 10.3813 15.7413 10.3813H15.6958H15.6717H15.6492L15.6075 10.3833H15.5829H15.5604L15.5154 10.3863L15.4904 10.3883H15.4683L15.4233 10.3921C15.4154 10.3925 15.4075 10.3933 15.3996 10.3946H15.3767L15.3317 10.3988L15.3079 10.4017H15.2846L15.2429 10.4067L15.2183 10.4096H15.1958L15.1492 10.4154L15.1267 10.4188L15.1046 10.4213L15.0596 10.4275L15.0358 10.4313L15.0129 10.4342L14.9713 10.4404L14.9462 10.445L14.925 10.4479L14.88 10.4554L14.8554 10.46L14.8338 10.4633L14.7892 10.4713L14.7658 10.4758L14.7429 10.48L14.6983 10.4888L14.6758 10.4933L14.6525 10.4979L14.6108 10.5067L14.5871 10.5121L14.565 10.5167L14.5188 10.5271L14.4975 10.5321L14.475 10.5371L14.4304 10.5475L14.4075 10.5538L14.385 10.5588L14.3433 10.5696L14.3204 10.5758L14.2979 10.5813L14.2521 10.5938C14.2449 10.5954 14.2378 10.5975 14.2308 10.6L14.2088 10.6054L14.1646 10.6179L14.1425 10.625L14.1213 10.6308L14.0775 10.6438C14.0696 10.6458 14.0617 10.6488 14.0542 10.6513L14.0317 10.6579L13.99 10.6708L13.9667 10.6788L13.945 10.6854L13.9033 10.6996L13.8808 10.7075L13.8583 10.715L13.8167 10.7292L13.7937 10.7375L13.7721 10.745L13.7279 10.7608L13.7075 10.7688L13.685 10.7767L13.6433 10.7925L13.62 10.8017L13.5988 10.8096L13.555 10.8267L13.5342 10.8354L13.5125 10.8438L13.4708 10.8604L13.4487 10.87L13.4271 10.8787L13.3854 10.8967C13.3783 10.8996 13.3708 10.9029 13.3638 10.9067C13.3567 10.9104 13.3492 10.9125 13.3421 10.9154L13.3004 10.9333L13.2788 10.9438L13.2575 10.9529L13.2158 10.9721L13.1958 10.9821L13.175 10.9913L13.1333 11.0121L13.1138 11.0217L13.0925 11.0317L13.0508 11.0517L13.0296 11.0625L13.0087 11.0729L12.9696 11.0929L12.9479 11.1046L12.9275 11.1146L12.8858 11.1362L12.8654 11.1475L12.8454 11.1579L12.8038 11.1808L12.785 11.1917L12.765 11.2025L12.7233 11.2258L12.7042 11.2371L12.6838 11.2483L12.645 11.2708L12.625 11.2833L12.6046 11.295L12.5662 11.3183L12.5458 11.3313L12.5258 11.3429L12.4879 11.3663L12.4675 11.38L12.4479 11.3921L12.4108 11.4158C12.4038 11.4204 12.3971 11.4246 12.3904 11.4296C12.3836 11.4334 12.3771 11.4375 12.3708 11.4421L12.3333 11.4667L12.3142 11.48L12.2942 11.4929L12.2575 11.5179C12.2508 11.5225 12.2442 11.5271 12.2379 11.5321L12.2183 11.545L12.1821 11.5704L12.1629 11.5846L12.1446 11.5975C12.1317 11.6067 12.1187 11.6158 12.1062 11.6254C12.0938 11.635 12.0946 11.6342 12.0888 11.6383L12.07 11.6517L12.0321 11.6804L12.015 11.6938L11.9963 11.7071L11.96 11.735L11.9421 11.7496L11.9233 11.7638L11.8883 11.7913L11.8704 11.8063L11.8521 11.82L11.8154 11.85L11.7988 11.8642L11.7808 11.8787L11.7454 11.9083L11.7283 11.9233C11.7221 11.9279 11.7163 11.9329 11.7104 11.9379L11.6758 11.9675L11.6592 11.9825L11.6417 11.9975L11.6058 12.0292L11.5908 12.0433L11.5725 12.0588L11.5392 12.0892L11.5221 12.1054L11.505 12.1204L11.4704 12.1529L11.4554 12.1679L11.4379 12.1838L11.4046 12.2163L11.3892 12.2317C11.3833 12.2367 11.3779 12.2421 11.3725 12.2475L11.3396 12.28C11.3342 12.285 11.3292 12.2904 11.3242 12.2958L11.3075 12.3121L11.2754 12.3446C11.27 12.3504 11.2646 12.3558 11.2596 12.3617L11.2429 12.3783L11.2117 12.4104L11.1958 12.4279L11.1796 12.4446L11.15 12.4762L11.1333 12.495L11.1175 12.5117L11.0875 12.545L11.0717 12.5629L11.0567 12.5796L11.0271 12.6133C11.0217 12.6192 11.0167 12.6254 11.0117 12.6317C11.0067 12.6379 11.0013 12.6429 10.9963 12.6488L10.9675 12.6821C10.9621 12.6883 10.9567 12.695 10.9517 12.7017C10.9467 12.7083 10.9417 12.7125 10.9371 12.7183L10.9075 12.7537C10.9025 12.7596 10.8979 12.7654 10.8933 12.7717C10.8888 12.7779 10.8833 12.7829 10.8787 12.7887L10.85 12.8242C10.845 12.8304 10.84 12.8367 10.8354 12.8433L10.8212 12.8604L10.7933 12.8958L10.7788 12.915L10.765 12.9325L10.7367 12.9692L10.7233 12.9875L10.7092 13.0058L10.6821 13.0425L10.6687 13.0613L10.6546 13.08L10.6279 13.1171C10.6234 13.1229 10.6192 13.1291 10.6154 13.1354L10.6021 13.1533L10.5746 13.1925C10.5704 13.1983 10.5667 13.2046 10.5625 13.2108C10.5583 13.2171 10.5538 13.2229 10.5492 13.2292L10.5233 13.2675C10.5192 13.2733 10.5154 13.2796 10.5117 13.2854L10.4983 13.3046L10.4729 13.3433C10.4682 13.35 10.464 13.3567 10.4604 13.3633L10.4479 13.3817L10.4233 13.42C10.4192 13.4267 10.415 13.4333 10.4113 13.44C10.4075 13.4467 10.4025 13.4529 10.3988 13.4592L10.3746 13.4979L10.3633 13.5171L10.3508 13.5367L10.3271 13.5783L10.3158 13.5975L10.3042 13.6167L10.2804 13.6583C10.2767 13.665 10.2729 13.6712 10.2696 13.6779C10.2663 13.6846 10.2617 13.6912 10.2579 13.6979L10.2358 13.7367L10.225 13.7571C10.2208 13.7638 10.2171 13.7704 10.2133 13.7771L10.1917 13.8188C10.1879 13.8258 10.1842 13.8325 10.1808 13.8396C10.1775 13.8467 10.1737 13.8525 10.17 13.8592L10.1483 13.9008C10.145 13.9075 10.1413 13.9146 10.1383 13.9212C10.1354 13.9279 10.1308 13.9346 10.1275 13.9412L10.1063 13.9829L10.0967 14.0029C10.0933 14.0092 10.0896 14.0158 10.0863 14.0229C10.0792 14.0367 10.0725 14.0508 10.0654 14.0646C10.0621 14.0712 10.0592 14.0779 10.0563 14.085C10.0533 14.0921 10.0492 14.0983 10.0458 14.105L10.0263 14.1467L10.0167 14.1675C10.0133 14.1742 10.01 14.1813 10.0071 14.1879L9.98792 14.2296C9.985 14.2367 9.98167 14.2433 9.97917 14.2504C9.97667 14.2575 9.9725 14.2642 9.96917 14.2713L9.95042 14.3129L9.94167 14.3333C9.93875 14.34 9.93542 14.3471 9.9325 14.3542L9.91458 14.3958L9.90583 14.4179C9.90292 14.4246 9.89958 14.4317 9.89708 14.4383L9.87958 14.48C9.87667 14.4875 9.87375 14.4946 9.87125 14.5021L9.8625 14.5233L9.84583 14.565C9.84333 14.5725 9.84042 14.58 9.83792 14.5871L9.82917 14.6083L9.81333 14.65C9.81042 14.6571 9.80792 14.6646 9.80542 14.6721C9.80292 14.6796 9.8 14.6858 9.7975 14.6929L9.78125 14.7371C9.77875 14.7446 9.77667 14.7517 9.77417 14.7587C9.77167 14.7658 9.76875 14.7733 9.76625 14.7804L9.75125 14.8221C9.75125 14.8292 9.74667 14.8363 9.74458 14.8433C9.7425 14.8504 9.73917 14.8583 9.73667 14.8658L9.7225 14.9075C9.72 14.915 9.71792 14.9221 9.71583 14.9292C9.71375 14.9362 9.71083 14.9438 9.70833 14.9513L9.695 14.9929C9.6925 15.0004 9.69042 15.0083 9.68833 15.0158C9.68625 15.0233 9.68333 15.0304 9.68125 15.0379L9.66792 15.0821C9.66792 15.0892 9.66375 15.0963 9.66208 15.1033C9.66042 15.1104 9.6575 15.1183 9.65542 15.1258L9.6425 15.1704L9.63667 15.1925C9.63667 15.1996 9.6325 15.2067 9.63083 15.2138L9.61875 15.2583C9.61667 15.2658 9.615 15.2733 9.61333 15.2808L9.60708 15.3033L9.59583 15.3475L9.59083 15.37C9.59083 15.3775 9.58667 15.385 9.585 15.3925L9.57417 15.4371C9.57417 15.4446 9.57083 15.4521 9.56958 15.4592C9.56833 15.4662 9.56583 15.4742 9.56417 15.4817L9.55417 15.5267C9.55417 15.5342 9.55083 15.5413 9.54958 15.5488C9.54833 15.5563 9.54583 15.5642 9.54417 15.5721L9.535 15.6163C9.535 15.6238 9.53208 15.6313 9.53083 15.6388L9.52583 15.6617L9.51708 15.7067L9.51333 15.7296C9.51333 15.7367 9.51042 15.7438 9.50875 15.7513L9.50083 15.7967L9.49708 15.8192C9.49708 15.8267 9.49417 15.8346 9.49292 15.8421L9.48542 15.8871C9.48542 15.8946 9.48542 15.9025 9.48208 15.9104L9.47833 15.9325L9.47125 15.9783L9.46875 16.0004C9.46875 16.0083 9.46583 16.0163 9.465 16.0238L9.45875 16.0688L9.45625 16.0917C9.45625 16.0992 9.45375 16.1067 9.45292 16.1146L9.4475 16.1604C9.4475 16.1679 9.4475 16.175 9.445 16.1825C9.4425 16.19 9.445 16.1983 9.44208 16.2063L9.43708 16.2513C9.43708 16.2588 9.43708 16.2667 9.43708 16.2742L9.43458 16.2971L9.43042 16.3429C9.43042 16.3504 9.43042 16.3583 9.43042 16.3658L9.42792 16.3879L9.42458 16.4338C9.42458 16.4417 9.42458 16.4492 9.42458 16.4567C9.42458 16.4642 9.42458 16.4721 9.42458 16.48L9.40833 16.5417C9.40833 16.5496 9.40833 16.5571 9.40833 16.565C9.40833 16.5729 9.40833 16.58 9.40833 16.5879L9.40583 16.6338C9.40583 16.6417 9.40583 16.6492 9.40583 16.6567C9.40583 16.6642 9.40583 16.6721 9.40583 16.6796V16.725C9.40583 16.7325 9.40583 16.74 9.40583 16.7479C9.40583 16.7558 9.40583 16.7629 9.40583 16.7708V16.8171C9.40542 16.8246 9.40542 16.8321 9.40583 16.8396C9.40583 16.8471 9.40583 16.8546 9.40583 16.8621V16.9329C9.40583 16.9408 9.40583 16.9496 9.40583 16.9579V16.9963C9.40583 17.0033 9.40583 17.0104 9.40583 17.0175V17.0796C9.40583 17.0863 9.40583 17.0933 9.40583 17.1004C9.40583 17.1075 9.40583 17.1142 9.40583 17.1213V17.1629C9.40583 17.17 9.40583 17.1771 9.40583 17.1842C9.40583 17.1913 9.40583 17.1979 9.40583 17.2046V17.2463C9.40583 17.2529 9.40583 17.26 9.40583 17.2671C9.40583 17.2742 9.40583 17.2808 9.40583 17.2879V17.3296C9.40583 17.3367 9.40583 17.3438 9.40583 17.3508C9.40583 17.3579 9.40583 17.3642 9.40583 17.3713V17.4963C9.40583 17.5029 9.40583 17.51 9.40583 17.5167C9.40583 17.5233 9.40583 17.5304 9.40583 17.5375V17.5792C9.40583 17.5858 9.40583 17.5929 9.40583 17.5996C9.40583 17.6063 9.40583 17.6138 9.40583 17.6208V17.6625C9.40583 17.6692 9.40583 17.6763 9.40583 17.6829C9.40583 17.6896 9.40583 17.6967 9.40583 17.7038V17.7454C9.40583 17.7525 9.40583 17.7596 9.40583 17.7663V17.8292C9.40583 17.8358 9.40583 17.8425 9.40583 17.8496C9.40583 17.8567 9.40583 17.8633 9.40583 17.8704V17.9121C9.40583 17.9192 9.40583 17.9263 9.40583 17.9333C9.40583 17.9404 9.40583 17.9471 9.40583 17.9538V17.9954C9.40583 18.0021 9.40583 18.0092 9.40583 18.0163C9.40583 18.0233 9.40583 18.03 9.40583 18.0371V18.0788C9.40583 18.0858 9.40583 18.0929 9.40583 18.1C9.40583 18.1071 9.40583 18.1133 9.40583 18.1204V18.2454C9.40583 18.2525 9.40583 18.2596 9.40583 18.2667C9.40583 18.2738 9.40583 18.28 9.40583 18.2871V18.3288C9.40583 18.3354 9.40583 18.3425 9.40583 18.3492C9.40583 18.3558 9.40583 18.3633 9.40583 18.3704V18.4121C9.40583 18.4188 9.40583 18.4258 9.40583 18.4325C9.40583 18.4392 9.40583 18.4463 9.40583 18.4533V18.495C9.40583 18.5017 9.40583 18.5088 9.40583 18.5154C9.40583 18.5221 9.40583 18.5296 9.40583 18.5367V18.5783C9.40583 18.585 9.40583 18.5921 9.40583 18.5988C9.40583 18.6054 9.40583 18.6125 9.40583 18.6196V18.6613C9.40583 18.6683 9.40583 18.6754 9.40583 18.6821C9.40583 18.6887 9.40583 18.6963 9.40583 18.7033V18.745C9.40583 18.7517 9.40583 18.7583 9.40583 18.7654C9.40583 18.7725 9.40583 18.7792 9.40583 18.7863V18.8279C9.40583 18.835 9.40583 18.8421 9.40583 18.8492C9.40583 18.8563 9.40583 18.8629 9.40583 18.8696V18.9946C9.40583 19.0017 9.40583 19.0088 9.40583 19.0158C9.40583 19.0229 9.40583 19.0292 9.40583 19.0363V19.0779C9.40583 19.0846 9.40583 19.0917 9.40583 19.0983C9.40583 19.105 9.40583 19.1125 9.40583 19.1192V19.1608C9.40583 19.1679 9.40583 19.175 9.40583 19.1821C9.40583 19.1892 9.40583 19.1954 9.40583 19.2025V19.2442C9.40583 19.2508 9.40583 19.2579 9.40583 19.2646V19.3275C9.40583 19.3342 9.40583 19.3408 9.40583 19.3479C9.40583 19.355 9.40583 19.3617 9.40583 19.3688V19.4104C9.40583 19.4175 9.40583 19.4246 9.40583 19.4313C9.40583 19.4379 9.40583 19.4454 9.40583 19.4525V19.4942C9.40583 19.5008 9.40583 19.5075 9.40583 19.5146C9.40583 19.5217 9.40583 19.5283 9.40583 19.5354V19.5771C9.40583 19.5842 9.40583 19.5913 9.40583 19.5979C9.40583 19.6046 9.40583 19.6121 9.40583 19.6192V19.7442C9.40583 19.7513 9.40583 19.7583 9.40583 19.7654C9.40583 19.7725 9.40583 19.7787 9.40583 19.7858V19.8275C9.40583 19.8342 9.40583 19.8413 9.40583 19.8479C9.40583 19.8546 9.40583 19.8621 9.40583 19.8688V19.9104C9.40583 19.9175 9.40583 19.9246 9.40583 19.9317C9.40583 19.9388 9.40583 19.945 9.40583 19.9521V19.9938C9.40583 20.0004 9.40583 20.0075 9.40583 20.0142V20.1596C9.40583 20.1667 9.40583 20.1737 9.40583 20.1804C9.40583 20.1871 9.40583 20.1946 9.40583 20.2017V20.2433C9.40583 20.25 9.40583 20.2567 9.40583 20.2638C9.40583 20.2708 9.40583 20.2775 9.40583 20.2846V20.3263C9.40583 20.3333 9.40583 20.3404 9.40583 20.3471C9.40583 20.3538 9.40583 20.3612 9.40583 20.3683V20.4933C9.40583 20.5004 9.40583 20.5075 9.40583 20.5142C9.40583 20.5208 9.40583 20.5283 9.40583 20.5354V20.5771C9.40583 20.5842 9.40583 20.5908 9.40583 20.5979C9.40583 20.605 9.40583 20.6117 9.40583 20.6183V20.66C9.40583 20.6671 9.40583 20.6742 9.40583 20.6813C9.40583 20.6883 9.40583 20.6946 9.40583 20.7017V20.7433C9.40583 20.75 9.40583 20.7571 9.40583 20.7638V20.9096C9.40583 20.9163 9.40583 20.9233 9.40583 20.93C9.40583 20.9367 9.40583 20.9442 9.40583 20.9508V20.9925C9.40583 20.9996 9.40583 21.0067 9.40583 21.0138C9.40583 21.0208 9.40583 21.0271 9.40583 21.0342V21.0758C9.40583 21.0829 9.40583 21.09 9.40583 21.0967C9.40583 21.1033 9.40583 21.1108 9.40583 21.1179V21.2429C9.40583 21.25 9.40583 21.2571 9.40583 21.2638C9.40583 21.2704 9.40583 21.2779 9.40583 21.285V21.3267C9.40583 21.3338 9.40583 21.3404 9.40583 21.3475C9.40583 21.3546 9.40583 21.3613 9.40583 21.3679V21.4096C9.40583 21.4167 9.40583 21.4233 9.40583 21.4304C9.40583 21.4375 9.40583 21.4446 9.40583 21.4517V21.4933C9.40583 21.5004 9.40583 21.5071 9.40583 21.5138V21.6596C9.40583 21.6663 9.40583 21.6733 9.40583 21.68C9.40583 21.6867 9.40583 21.6942 9.40583 21.7008V21.7425C9.40583 21.7496 9.40583 21.7567 9.40583 21.7638C9.40583 21.7708 9.40583 21.7771 9.40583 21.7842V21.8258C9.40583 21.8329 9.40583 21.84 9.40583 21.8467C9.40583 21.8533 9.40583 21.8604 9.40583 21.8675L9.40833 22.3858C9.40833 22.4853 9.36882 22.5807 9.2985 22.651C9.22817 22.7213 9.13279 22.7608 9.03333 22.7608H7.75208C7.62007 22.7606 7.49351 22.7082 7.4 22.615L5.78667 21.0017C5.74036 20.9555 5.70363 20.9006 5.67861 20.8402C5.65358 20.7798 5.64074 20.715 5.64083 20.6496V3.35833C5.64074 3.29293 5.65358 3.22816 5.67861 3.16773C5.70363 3.10731 5.74036 3.05243 5.78667 3.00625L7.4 1.39292C7.49351 1.29973 7.62007 1.24731 7.75208 1.24708H9.00708C9.10654 1.24708 9.20192 1.28659 9.27225 1.35692C9.34258 1.42724 9.38208 1.52263 9.38208 1.62208V9.9875C9.38046 10.1498 9.44104 10.3066 9.55138 10.4256C9.66173 10.5446 9.81346 10.6169 9.97542 10.6275C10.0597 10.6314 10.1438 10.6182 10.2228 10.5887C10.3019 10.5591 10.3741 10.514 10.4352 10.4558C10.4962 10.3976 10.5449 10.3277 10.5783 10.2502C10.6116 10.1728 10.6289 10.0893 10.6292 10.005V1.62125C10.6292 1.572 10.6389 1.52324 10.6577 1.47774C10.6766 1.43225 10.7042 1.39091 10.739 1.35609C10.7738 1.32126 10.8152 1.29364 10.8607 1.2748C10.9062 1.25595 10.9549 1.24625 11.0042 1.24625H16.25C16.382 1.24648 16.5086 1.2989 16.6021 1.39208L22.6071 7.4C22.7003 7.49351 22.7527 7.62007 22.7529 7.75208V16.25C22.7527 16.382 22.7003 16.5086 22.6071 16.6021L16.6 22.6071C16.5065 22.7003 16.3799 22.7527 16.2479 22.7529H11.0442C10.9475 22.753 10.8545 22.7157 10.7846 22.6489C10.7147 22.582 10.6734 22.4908 10.6692 22.3942L10.6479 21.8583Z" fill="#313131"/>
</g>
<defs>
<clipPath id="clip0_1427_4844">
<rect width="24" height="24" fill="white"/>
</clipPath>
</defs>
</svg>
