<svg width="24" height="24" viewBox="0 0 24 24" fill="none" xmlns="http://www.w3.org/2000/svg">
<g clip-path="url(#clip0_1427_4851)">
<path d="M23.8175 6.84667L17.1533 0.1825C17.0363 0.0657657 16.8778 0.000145376 16.7125 0L7.2875 0C7.1222 0.000145376 6.9637 0.0657657 6.84667 0.1825L0.1825 6.84667C0.0657657 6.9637 0.000145376 7.1222 0 7.2875L0 16.7125C0.000145376 16.8778 0.0657657 17.0363 0.1825 17.1533L6.84667 23.8175C6.9637 23.9342 7.1222 23.9999 7.2875 24H16.7125C16.8778 23.9999 17.0363 23.9342 17.1533 23.8175L23.8175 17.1533C23.9342 17.0363 23.9999 16.8778 24 16.7125V7.2875C23.9999 7.1222 23.9342 6.9637 23.8175 6.84667ZM12.9625 1.24708H16.2471C16.3796 1.24709 16.5067 1.29969 16.6004 1.39333L22.3967 7.18958C22.4313 7.22407 22.4587 7.26505 22.4774 7.31017C22.4962 7.35528 22.5058 7.40365 22.5058 7.4525C22.5058 7.50135 22.4962 7.54972 22.4774 7.59483C22.4587 7.63995 22.4313 7.68093 22.3967 7.71542L21.7563 8.35583C21.7217 8.39057 21.6806 8.41813 21.6354 8.43694C21.5902 8.45575 21.5417 8.46543 21.4927 8.46543C21.4437 8.46543 21.3952 8.45575 21.35 8.43694C21.3048 8.41813 21.2637 8.39057 21.2292 8.35583L19.4242 6.5325C19.3662 6.47417 19.2974 6.42784 19.2215 6.39617C19.1457 6.3645 19.0643 6.3481 18.9821 6.34792C18.8164 6.34806 18.6575 6.41401 18.5404 6.53125L17.25 7.82375C17.2154 7.85831 17.1744 7.88572 17.1293 7.90442C17.0841 7.92313 17.0357 7.93275 16.9869 7.93275C16.938 7.93275 16.8896 7.92313 16.8445 7.90442C16.7993 7.88572 16.7583 7.85831 16.7238 7.82375L12.7371 3.83917C12.6433 3.74549 12.5905 3.6184 12.5904 3.48583V1.61875C12.5904 1.56991 12.6 1.52154 12.6187 1.47642C12.6375 1.4313 12.6649 1.39031 12.6994 1.35579C12.734 1.32128 12.775 1.29391 12.8201 1.27526C12.8653 1.2566 12.9137 1.24703 12.9625 1.24708ZM10.9717 22.7529H7.75292C7.62041 22.7529 7.49333 22.7003 7.39958 22.6067L6.63042 21.8375C6.61083 21.8178 6.59661 21.7934 6.58913 21.7667C6.58164 21.74 6.58113 21.7117 6.58765 21.6847C6.59417 21.6577 6.6075 21.6329 6.62637 21.6125C6.64523 21.5921 6.669 21.5769 6.69542 21.5683L6.70292 21.5658C6.82802 21.5184 6.93556 21.4337 7.01104 21.3232C7.08651 21.2127 7.12629 21.0817 7.125 20.9479V20C7.12663 19.8377 7.06607 19.6809 6.95573 19.5618C6.84539 19.4427 6.69366 19.3703 6.53167 19.3596C6.44738 19.3557 6.36318 19.3689 6.28414 19.3985C6.2051 19.428 6.13286 19.4732 6.07177 19.5314C6.01069 19.5896 5.96202 19.6596 5.9287 19.7371C5.89538 19.8147 5.87811 19.8981 5.87792 19.9825V20.7583C5.87799 20.7863 5.86937 20.8137 5.85325 20.8366C5.83713 20.8595 5.81431 20.8769 5.78792 20.8862C5.76361 20.8951 5.73729 20.8968 5.71205 20.8912C5.68681 20.8856 5.66369 20.8729 5.64542 20.8546L2.78292 17.9921C2.7362 17.9455 2.69915 17.8902 2.67391 17.8293C2.64867 17.7684 2.63573 17.703 2.63583 17.6371V17.005C2.63583 16.68 2.37125 16.3825 2.04667 16.365C1.9647 16.3604 1.88264 16.3722 1.80524 16.3996C1.72785 16.427 1.65667 16.4695 1.59583 16.5246C1.55592 16.5603 1.50378 16.5793 1.45025 16.5776C1.39671 16.5759 1.34589 16.5536 1.30833 16.5154C1.28882 16.496 1.27337 16.4728 1.26285 16.4474C1.25234 16.4219 1.24698 16.3946 1.24708 16.3671V9.04625L2.09833 9.8975C2.15617 9.95549 2.22488 10.0015 2.30052 10.0329C2.37617 10.0643 2.45727 10.0804 2.53917 10.0804C2.70458 10.0801 2.86311 10.0141 2.98 9.89708L4.76125 8.11125C4.79577 8.0764 4.83685 8.04874 4.88212 8.02987C4.92739 8.01099 4.97595 8.00127 5.025 8.00127C5.07405 8.00127 5.12261 8.01099 5.16788 8.02987C5.21315 8.04874 5.25423 8.0764 5.28875 8.11125L5.86917 8.69875C5.93843 8.76839 5.9773 8.86262 5.9773 8.96083C5.9773 9.05905 5.93843 9.15328 5.86917 9.22292L5.58125 9.51083C5.46511 9.6243 5.39692 9.77798 5.39071 9.94023C5.38451 10.1025 5.44078 10.2609 5.54792 10.3829C5.60475 10.4452 5.67361 10.4954 5.75035 10.5304C5.8271 10.5654 5.91013 10.5845 5.99445 10.5866C6.07878 10.5887 6.16264 10.5736 6.24101 10.5424C6.31937 10.5112 6.3906 10.4645 6.45042 10.405L7.39042 9.465C7.43589 9.43164 7.47606 9.3916 7.50958 9.34625L10.9779 5.87917C11.008 5.8491 11.0462 5.82862 11.0879 5.8203C11.1296 5.81198 11.1728 5.8162 11.2121 5.83243C11.2514 5.84866 11.285 5.87617 11.3086 5.91148C11.3323 5.9468 11.3449 5.98833 11.345 6.03083V22.3813C11.345 22.4302 11.3353 22.4787 11.3166 22.5239C11.2978 22.5691 11.2702 22.6101 11.2356 22.6446C11.2009 22.6792 11.1597 22.7065 11.1144 22.7251C11.0691 22.7437 11.0206 22.7531 10.9717 22.7529ZM11.1971 3.89667L7.27583 7.81708C7.24112 7.85169 7.19991 7.8791 7.15458 7.89774C7.10924 7.91637 7.06067 7.92587 7.01165 7.92567C6.96263 7.92548 6.91414 7.9156 6.86895 7.89661C6.82376 7.87762 6.78277 7.84988 6.74833 7.815L5.47083 6.52333C5.41312 6.46498 5.3444 6.41865 5.26866 6.38704C5.19292 6.35542 5.11166 6.33915 5.02958 6.33917C4.86394 6.3392 4.70508 6.40499 4.58792 6.52208L2.8025 8.31375C2.76795 8.34831 2.72693 8.37572 2.68178 8.39442C2.63663 8.41313 2.58824 8.42275 2.53938 8.42275C2.49051 8.42275 2.44212 8.41313 2.39697 8.39442C2.35182 8.37572 2.3108 8.34831 2.27625 8.31375L1.64125 7.6775C1.57158 7.60774 1.53246 7.51317 1.53246 7.41458C1.53246 7.31599 1.57158 7.22143 1.64125 7.15167L7.39958 1.39333C7.49333 1.29969 7.62041 1.24709 7.75292 1.24708H10.9717C11.0205 1.24703 11.0689 1.2566 11.114 1.27526C11.1592 1.29391 11.2002 1.32128 11.2347 1.35579C11.2693 1.39031 11.2967 1.4313 11.3154 1.47642C11.3341 1.52154 11.3438 1.56991 11.3438 1.61875V3.54375C11.3435 3.67617 11.2908 3.80309 11.1971 3.89667ZM16.3683 22.7529H15.6062C15.5637 22.753 15.5222 22.7404 15.4868 22.7168C15.4515 22.6932 15.4239 22.6596 15.4077 22.6204C15.3914 22.5811 15.3872 22.5379 15.3956 22.4962C15.4039 22.4545 15.4245 22.4162 15.4546 22.3863L15.715 22.1254C15.7848 22.0558 15.8793 22.0166 15.9779 22.0166C16.0765 22.0166 16.1711 22.0558 16.2408 22.1254L16.5146 22.3992C16.5528 22.4381 16.5741 22.4905 16.5741 22.545C16.5741 22.5995 16.5528 22.6519 16.5146 22.6908C16.4759 22.73 16.4234 22.7524 16.3683 22.7529ZM22.6442 13.4088L22.2083 13.845C22.1386 13.9147 22.044 13.9538 21.9454 13.9538C21.8468 13.9538 21.7523 13.9147 21.6825 13.845L20.3975 12.5596C20.2804 12.4431 20.1219 12.3776 19.9567 12.3776C19.7914 12.3776 19.633 12.4431 19.5158 12.5596L18.2304 13.845C18.1607 13.9147 18.0661 13.9538 17.9675 13.9538C17.8689 13.9538 17.7743 13.9147 17.7046 13.845L16.4192 12.5596C16.302 12.4431 16.1436 12.3776 15.9783 12.3776C15.8131 12.3776 15.6546 12.4431 15.5375 12.5596L13.5488 14.5488C13.4893 14.6085 13.4425 14.6797 13.4112 14.7581C13.38 14.8364 13.3649 14.9203 13.3669 15.0046C13.369 15.0889 13.388 15.172 13.423 15.2487C13.458 15.3255 13.5081 15.3944 13.5704 15.4513C13.6926 15.5582 13.851 15.6144 14.0133 15.6082C14.1756 15.602 14.3293 15.5339 14.4429 15.4179L15.7154 14.145C15.7852 14.0753 15.8797 14.0362 15.9783 14.0362C16.0769 14.0362 16.1715 14.0753 16.2413 14.145L17.5267 15.4304C17.6438 15.5469 17.8023 15.6124 17.9675 15.6124C18.1327 15.6124 18.2912 15.5469 18.4083 15.4304L19.6933 14.145C19.7631 14.0753 19.8577 14.0362 19.9563 14.0362C20.0548 14.0362 20.1494 14.0753 20.2192 14.145L21.5042 15.4304C21.6213 15.5471 21.7799 15.6126 21.9452 15.6126C22.1105 15.6126 22.2691 15.5471 22.3863 15.4304C22.4162 15.4003 22.4545 15.3797 22.4962 15.3714C22.5379 15.363 22.5811 15.3673 22.6204 15.3835C22.6596 15.3998 22.6932 15.4273 22.7168 15.4627C22.7404 15.498 22.753 15.5396 22.7529 15.5821V16.2488C22.7529 16.3813 22.7003 16.5083 22.6067 16.6021L21.7817 17.4271C21.7119 17.4967 21.6173 17.5359 21.5188 17.5359C21.4202 17.5359 21.3256 17.4967 21.2558 17.4271L20.3971 16.5679C20.28 16.4514 20.1215 16.386 19.9563 16.386C19.791 16.386 19.6325 16.4514 19.5154 16.5679L18.23 17.8533C18.1602 17.923 18.0657 17.9621 17.9671 17.9621C17.8685 17.9621 17.7739 17.923 17.7042 17.8533L16.4188 16.5679C16.3016 16.4514 16.1431 16.386 15.9779 16.386C15.8127 16.386 15.6542 16.4514 15.5371 16.5679L13.5483 18.5571C13.4447 18.6765 13.3902 18.8308 13.3958 18.9888C13.4014 19.1468 13.4667 19.2968 13.5785 19.4086C13.6903 19.5204 13.8403 19.5856 13.9983 19.5912C14.1563 19.5968 14.3106 19.5424 14.43 19.4388L15.715 18.1533C15.7848 18.0837 15.8793 18.0445 15.9779 18.0445C16.0765 18.0445 16.1711 18.0837 16.2408 18.1533L17.5263 19.4388C17.6434 19.5553 17.8019 19.6207 17.9671 19.6207C18.1323 19.6207 18.2908 19.5553 18.4079 19.4388L19.6933 18.1533C19.7631 18.0837 19.8577 18.0445 19.9563 18.0445C20.0548 18.0445 20.1494 18.0837 20.2192 18.1533L20.3742 18.3088C20.4438 18.3782 20.4829 18.4725 20.4831 18.5709C20.4833 18.6692 20.4444 18.7636 20.375 18.8333L17.8067 21.4017C17.7369 21.4713 17.6423 21.5105 17.5438 21.5105C17.4452 21.5105 17.3506 21.4713 17.2808 21.4017L16.4188 20.5417C16.3016 20.4251 16.1431 20.3597 15.9779 20.3597C15.8127 20.3597 15.6542 20.4251 15.5371 20.5417L13.5483 22.5292H13.5462C13.4798 22.5982 13.4002 22.6534 13.3122 22.6914C13.2243 22.7295 13.1296 22.7497 13.0338 22.7508H12.9625C12.9137 22.7509 12.8653 22.7413 12.8201 22.7227C12.775 22.704 12.734 22.6766 12.6994 22.6421C12.6649 22.6076 12.6375 22.5666 12.6187 22.5215C12.6 22.4764 12.5904 22.428 12.5904 22.3792V5.97458C12.5904 5.93204 12.603 5.89045 12.6266 5.85508C12.6502 5.8197 12.6838 5.79213 12.7231 5.77584C12.7624 5.75956 12.8057 5.7553 12.8474 5.76361C12.8891 5.77191 12.9274 5.79241 12.9575 5.8225L17.5417 10.4062C17.6592 10.5231 17.8183 10.5885 17.9841 10.588C18.1498 10.5875 18.3085 10.5213 18.4254 10.4038C18.6692 10.1579 18.655 9.75583 18.41 9.51125L18.13 9.23125C18.0604 9.16156 18.0212 9.06707 18.0212 8.96854C18.0212 8.87002 18.0604 8.77553 18.13 8.70583L18.7133 8.11958C18.7479 8.08489 18.789 8.05736 18.8343 8.03858C18.8796 8.0198 18.9281 8.01013 18.9771 8.01013C19.0261 8.01013 19.0746 8.0198 19.1199 8.03858C19.1651 8.05736 19.2062 8.08489 19.2408 8.11958L21.045 9.94167C21.1028 9.99997 21.1715 10.0463 21.2472 10.0781C21.3229 10.1098 21.4042 10.1263 21.4862 10.1267C21.6515 10.1265 21.8101 10.0609 21.9271 9.94417L22.3825 9.48875C22.4125 9.45862 22.4507 9.43808 22.4924 9.42973C22.5341 9.42138 22.5773 9.4256 22.6166 9.44184C22.6559 9.45809 22.6895 9.48564 22.7131 9.52099C22.7367 9.55634 22.7492 9.59791 22.7492 9.64042V13.1458C22.7502 13.2439 22.7125 13.3384 22.6442 13.4088ZM3.50875 13.3717C3.34299 13.3717 3.18402 13.4375 3.06681 13.5547C2.9496 13.6719 2.88375 13.8309 2.88375 13.9967V14.9942C2.87748 15.0799 2.88894 15.1659 2.91743 15.247C2.94591 15.328 2.9908 15.4024 3.0493 15.4653C3.10779 15.5282 3.17864 15.5784 3.2574 15.6127C3.33617 15.6471 3.42116 15.6648 3.50708 15.6648C3.593 15.6648 3.678 15.6471 3.75676 15.6127C3.83553 15.5784 3.90637 15.5282 3.96487 15.4653C4.02336 15.4024 4.06825 15.328 4.09674 15.247C4.12522 15.1659 4.13669 15.0799 4.13042 14.9942V13.995C4.12998 13.8301 4.06439 13.6721 3.94795 13.5553C3.83151 13.4386 3.67364 13.3725 3.50875 13.3717ZM6.50125 13.3717C6.33549 13.3717 6.17652 13.4375 6.05931 13.5547C5.9421 13.6719 5.87625 13.8309 5.87625 13.9967V14.9942C5.8704 15.0796 5.88219 15.1654 5.91087 15.2461C5.93956 15.3268 5.98454 15.4008 6.04301 15.4634C6.10149 15.526 6.17221 15.576 6.25079 15.6101C6.32936 15.6442 6.41412 15.6618 6.49979 15.6618C6.58546 15.6618 6.67022 15.6442 6.7488 15.6101C6.82737 15.576 6.8981 15.526 6.95657 15.4634C7.01505 15.4008 7.06002 15.3268 7.08871 15.2461C7.1174 15.1654 7.12918 15.0796 7.12333 14.9942V13.995C7.12289 13.8298 7.05708 13.6715 6.94028 13.5547C6.82347 13.4379 6.66518 13.3721 6.5 13.3717H6.50125ZM9.49417 15.6163C9.57624 15.6163 9.65752 15.6001 9.73334 15.5687C9.80917 15.5373 9.87807 15.4912 9.93611 15.4332C9.99415 15.3752 10.0402 15.3063 10.0716 15.2304C10.103 15.1546 10.1192 15.0733 10.1192 14.9913V13.995C10.1084 13.837 10.038 13.689 9.92221 13.5809C9.80647 13.4728 9.654 13.4127 9.49563 13.4127C9.33725 13.4127 9.18478 13.4728 9.06904 13.5809C8.95329 13.689 8.8829 13.837 8.87208 13.995V14.9925C8.87241 15.1575 8.93801 15.3158 9.05455 15.4326C9.17109 15.5495 9.32913 15.6155 9.49417 15.6163ZM5.005 16.3642C4.83924 16.3642 4.68027 16.43 4.56306 16.5472C4.44585 16.6644 4.38 16.8234 4.38 16.9892V17.9867C4.39152 18.1441 4.46219 18.2914 4.57782 18.3988C4.69345 18.5063 4.84547 18.5661 5.00333 18.5661C5.1612 18.5661 5.31321 18.5063 5.42884 18.3988C5.54447 18.2914 5.61515 18.1441 5.62667 17.9867V16.9879C5.62634 16.8229 5.5608 16.6648 5.44435 16.548C5.32789 16.4311 5.16997 16.365 5.005 16.3642ZM7.375 17.9854C7.38581 18.1434 7.45621 18.2914 7.57195 18.3995C7.6877 18.5076 7.84017 18.5677 7.99854 18.5677C8.15692 18.5677 8.30938 18.5076 8.42513 18.3995C8.54088 18.2914 8.61127 18.1434 8.62208 17.9854V16.9879C8.62793 16.9024 8.61615 16.8167 8.58746 16.736C8.55877 16.6552 8.51379 16.5813 8.45532 16.5187C8.39685 16.456 8.32613 16.4061 8.24755 16.372C8.16897 16.3379 8.08421 16.3202 7.99854 16.3202C7.91287 16.3202 7.82811 16.3379 7.74954 16.372C7.67096 16.4061 7.60024 16.456 7.54176 16.5187C7.48329 16.5813 7.43831 16.6552 7.40962 16.736C7.38094 16.8167 7.36915 16.9024 7.375 16.9879V17.9854ZM9.495 21.6012C9.66076 21.6012 9.81973 21.5354 9.93694 21.4182C10.0542 21.301 10.12 21.142 10.12 20.9762V19.9804C10.1092 19.8224 10.0388 19.6744 9.92305 19.5663C9.8073 19.4582 9.65483 19.3981 9.49646 19.3981C9.33808 19.3981 9.18562 19.4582 9.06987 19.5663C8.95412 19.6744 8.88373 19.8224 8.87292 19.9804V20.9779C8.87335 21.1427 8.93888 21.3007 9.05523 21.4175C9.17159 21.5342 9.32935 21.6003 9.49417 21.6012H9.495Z" fill="#313131"/>
</g>
<defs>
<clipPath id="clip0_1427_4851">
<rect width="24" height="24" fill="white"/>
</clipPath>
</defs>
</svg>
