<svg width="24" height="24" viewBox="0 0 24 24" fill="none" xmlns="http://www.w3.org/2000/svg">
<g clip-path="url(#clip0_1427_4842)">
<path d="M23.8175 6.84667L17.1533 0.1825C17.0363 0.0657657 16.8778 0.000145376 16.7125 0L7.2875 0C7.1222 0.000145376 6.9637 0.0657657 6.84667 0.1825L0.1825 6.84667C0.0657657 6.9637 0.000145376 7.1222 0 7.2875L0 16.7125C0.000145376 16.8778 0.0657657 17.0363 0.1825 17.1533L6.84667 23.8175C6.9637 23.9342 7.1222 23.9999 7.2875 24H16.7125C16.8778 23.9999 17.0363 23.9342 17.1533 23.8175L23.8175 17.1533C23.9342 17.0363 23.9999 16.8778 24 16.7125V7.2875C23.9999 7.1222 23.9342 6.9637 23.8175 6.84667ZM8.995 22.7529H7.7525C7.62034 22.7528 7.49361 22.7004 7.4 22.6071L1.39292 16.6C1.29963 16.5064 1.2472 16.3797 1.24708 16.2475V7.7525C1.2472 7.62034 1.29963 7.49361 1.39292 7.4L2.80958 5.98333C2.86652 5.92701 2.93999 5.8904 3.01924 5.87885C3.09849 5.8673 3.17936 5.88143 3.25 5.91917L9.17125 9.11958C9.2306 9.15176 9.28016 9.19937 9.3147 9.25738C9.34925 9.31539 9.36749 9.38165 9.3675 9.44917V22.3788C9.36728 22.4776 9.32802 22.5724 9.25826 22.6425C9.18849 22.7126 9.09388 22.7523 8.995 22.7529ZM22.6071 16.6L16.6 22.6071C16.5064 22.7004 16.3797 22.7528 16.2475 22.7529H14.9808C14.8814 22.7529 14.786 22.7134 14.7157 22.6431C14.6453 22.5728 14.6058 22.4774 14.6058 22.3779V15.5092C14.6076 15.3468 14.547 15.1899 14.4367 15.0708C14.3263 14.9517 14.1745 14.8794 14.0125 14.8688C13.9283 14.8649 13.8442 14.8782 13.7652 14.9077C13.6862 14.9373 13.6141 14.9825 13.553 15.0406C13.492 15.0988 13.4434 15.1687 13.41 15.2461C13.3767 15.3236 13.3594 15.4069 13.3592 15.4913V22.3788C13.3592 22.4782 13.3197 22.5736 13.2493 22.6439C13.179 22.7142 13.0836 22.7538 12.9842 22.7538H10.9904C10.891 22.7538 10.7956 22.7142 10.7253 22.6439C10.6549 22.5736 10.6154 22.4782 10.6154 22.3788V8.85417C10.6155 8.74175 10.5851 8.63142 10.5275 8.53487C10.4699 8.43833 10.3873 8.35918 10.2883 8.30583L6.15417 6.07083C6.10938 6.04663 6.07394 6.00818 6.05347 5.96157C6.033 5.91496 6.02866 5.86285 6.04114 5.8135C6.05362 5.76414 6.08221 5.72036 6.12238 5.68909C6.16255 5.65781 6.21201 5.64083 6.26292 5.64083H12.9854C13.0849 5.64083 13.1803 5.68034 13.2506 5.75067C13.3209 5.82099 13.3604 5.91638 13.3604 6.01583V8.49167C13.3587 8.65404 13.4192 8.8109 13.5296 8.93001C13.6399 9.04913 13.7917 9.12144 13.9538 9.13208C14.038 9.13591 14.1221 9.12265 14.2011 9.09311C14.28 9.06358 14.3522 9.01837 14.4132 8.96022C14.4743 8.90206 14.5229 8.83216 14.5562 8.75471C14.5895 8.67727 14.6068 8.59389 14.6071 8.50958V5.01792C14.6071 4.85216 14.5412 4.69319 14.424 4.57597C14.3068 4.45876 14.1478 4.39292 13.9821 4.39292H4.95125C4.90638 4.39232 4.86268 4.37853 4.82558 4.35328C4.78849 4.32803 4.75964 4.29242 4.74263 4.2509C4.72562 4.20937 4.7212 4.16376 4.72992 4.11974C4.73864 4.07572 4.76011 4.03524 4.79167 4.00333L7.4 1.39292C7.49361 1.29963 7.62034 1.2472 7.7525 1.24708H16.2475C16.3797 1.2472 16.5064 1.29963 16.6 1.39292L22.6071 7.4C22.7004 7.49361 22.7528 7.62034 22.7529 7.7525V16.2475C22.7528 16.3797 22.7004 16.5064 22.6071 16.6ZM17.9038 12.625C17.9491 12.625 17.9934 12.6384 18.031 12.6635C18.0687 12.6887 18.0981 12.7245 18.1154 12.7663C18.1327 12.8082 18.1372 12.8542 18.1283 12.8987C18.1194 12.9431 18.0975 12.9839 18.0654 13.0158L16.5279 14.5533C16.4631 14.6096 16.4106 14.6785 16.3736 14.7559C16.3366 14.8334 16.3159 14.9176 16.3129 15.0033C16.3098 15.0891 16.3245 15.1745 16.3559 15.2544C16.3873 15.3342 16.4349 15.4067 16.4955 15.4674C16.5562 15.5281 16.6287 15.5756 16.7086 15.607C16.7884 15.6384 16.8739 15.6531 16.9596 15.6501C17.0454 15.647 17.1296 15.6264 17.207 15.5894C17.2844 15.5524 17.3534 15.4998 17.4096 15.435L20.4013 12.4433C20.4163 12.4283 20.4304 12.4125 20.4429 12.3963C20.4471 12.3913 20.4508 12.3854 20.455 12.38C20.4592 12.3746 20.4717 12.3587 20.4792 12.3475C20.4867 12.3363 20.4883 12.3321 20.4929 12.3246C20.4975 12.3171 20.505 12.305 20.5104 12.295C20.5158 12.285 20.5183 12.2788 20.5221 12.2708C20.5258 12.2629 20.5321 12.2504 20.5367 12.2396C20.5399 12.232 20.5427 12.2242 20.545 12.2163C20.5492 12.205 20.5537 12.1937 20.5571 12.1821C20.5604 12.1704 20.5608 12.1671 20.5629 12.1592C20.565 12.1513 20.5696 12.135 20.5721 12.1229C20.5746 12.1108 20.5742 12.1067 20.5758 12.0983C20.5775 12.09 20.5796 12.0746 20.5808 12.0625C20.5821 12.0504 20.5808 12.0379 20.5808 12.0258C20.5808 12.0138 20.5808 12.0096 20.5808 12.0017C20.5808 11.9938 20.5808 11.9858 20.5808 11.9775C20.5808 11.9692 20.5808 11.9529 20.5808 11.9408C20.5808 11.9288 20.5775 11.9167 20.5758 11.905C20.5742 11.8933 20.5733 11.8888 20.5721 11.8804C20.5708 11.8721 20.5663 11.8563 20.5629 11.8442C20.5596 11.8321 20.5596 11.8287 20.5571 11.8212C20.5546 11.8138 20.5492 11.7983 20.545 11.7871C20.5427 11.7792 20.5399 11.7714 20.5367 11.7638C20.5321 11.7529 20.5271 11.7429 20.5221 11.7325C20.5171 11.7221 20.5146 11.7163 20.5104 11.7083C20.5063 11.7004 20.4987 11.6883 20.4929 11.6788C20.4871 11.6692 20.4842 11.6633 20.4792 11.6558C20.4742 11.6483 20.4633 11.6342 20.455 11.6233C20.4467 11.6125 20.4471 11.6121 20.4429 11.6071C20.4296 11.5908 20.4154 11.575 20.4013 11.56L17.4221 8.58083C17.3085 8.46476 17.1548 8.39662 16.9925 8.39042C16.8302 8.38422 16.6717 8.44043 16.5496 8.5475C16.4873 8.60436 16.4371 8.67325 16.4022 8.75C16.3672 8.82676 16.3481 8.9098 16.3461 8.99413C16.3441 9.07845 16.3591 9.16231 16.3904 9.24066C16.4216 9.319 16.4684 9.39021 16.5279 9.45L18.0654 10.9875C18.0975 11.0195 18.1194 11.0602 18.1283 11.1047C18.1372 11.1491 18.1327 11.1952 18.1154 11.237C18.0981 11.2789 18.0687 11.3147 18.031 11.3398C17.9934 11.365 17.9491 11.3784 17.9038 11.3783H13.015C12.853 11.3768 12.6965 11.4372 12.5776 11.5471C12.4586 11.6571 12.3861 11.8084 12.375 11.97C12.3709 12.0544 12.384 12.1387 12.4135 12.2178C12.4429 12.297 12.4881 12.3693 12.5462 12.4306C12.6044 12.4918 12.6744 12.5406 12.752 12.574C12.8295 12.6074 12.913 12.6248 12.9975 12.625H17.9038ZM7.5 19.6063C7.66576 19.6063 7.82473 19.5404 7.94194 19.4232C8.05915 19.306 8.125 19.147 8.125 18.9813V15.99C8.11419 15.832 8.04379 15.684 7.92805 15.5759C7.8123 15.4678 7.65983 15.4077 7.50146 15.4077C7.34308 15.4077 7.19062 15.4678 7.07487 15.5759C6.95912 15.684 6.88873 15.832 6.87792 15.99V18.9829C6.87836 19.1479 6.944 19.306 7.06053 19.4228C7.17706 19.5395 7.33503 19.6055 7.5 19.6063Z" fill="#313131"/>
</g>
<defs>
<clipPath id="clip0_1427_4842">
<rect width="24" height="24" fill="white"/>
</clipPath>
</defs>
</svg>
