<svg width="24" height="24" viewBox="0 0 24 24" fill="none" xmlns="http://www.w3.org/2000/svg">
<g clip-path="url(#clip0_1427_4841)">
<path d="M23.8175 6.84667L17.1533 0.1825C17.0363 0.0657657 16.8778 0.000145376 16.7125 0L7.2875 0C7.1222 0.000145376 6.9637 0.0657657 6.84667 0.1825L0.1825 6.84667C0.0657657 6.9637 0.000145376 7.1222 0 7.2875L0 16.7125C0.000145376 16.8778 0.0657657 17.0363 0.1825 17.1533L6.84667 23.8175C6.9637 23.9342 7.1222 23.9999 7.2875 24H16.7125C16.8778 23.9999 17.0363 23.9342 17.1533 23.8175L23.8175 17.1533C23.9342 17.0363 23.9999 16.8778 24 16.7125V7.2875C23.9999 7.1222 23.9342 6.9637 23.8175 6.84667ZM1.24708 16.2475V14.7646C1.24714 14.6985 1.26028 14.6332 1.28574 14.5722C1.3112 14.5113 1.34847 14.456 1.39542 14.4096L5.73458 10.1333C5.80476 10.0641 5.89935 10.0253 5.99792 10.0253C6.09648 10.0253 6.19108 10.0641 6.26125 10.1333L11.3446 15.2167C11.4142 15.2869 11.4532 15.3818 11.4532 15.4806C11.4532 15.5795 11.4142 15.6744 11.3446 15.7446L10.2596 16.8333C10.1893 16.9036 10.094 16.943 9.99458 16.943C9.89521 16.943 9.7999 16.9036 9.72958 16.8333L8.45833 15.5513C8.33234 15.4357 8.16699 15.3725 7.99602 15.3747C7.82505 15.3768 7.66135 15.4442 7.53833 15.5629L6.26958 16.8333C6.19927 16.9036 6.10396 16.943 6.00458 16.943C5.90521 16.943 5.8099 16.9036 5.73958 16.8333L4.46833 15.5504C4.38065 15.4631 4.26903 15.4038 4.1476 15.38C4.02617 15.3562 3.90041 15.3689 3.78625 15.4167C3.6966 15.4472 3.61519 15.4979 3.54833 15.565L2.21833 16.8983C2.14807 16.9682 2.05303 17.0074 1.95396 17.0074C1.85489 17.0074 1.75984 16.9682 1.68958 16.8983L1.39292 16.6017C1.34653 16.5551 1.30977 16.4999 1.28474 16.4391C1.25972 16.3783 1.24692 16.3132 1.24708 16.2475ZM16.2471 22.7529H7.7525C7.62034 22.7528 7.49361 22.7004 7.4 22.6071L3.09958 18.3067C3.02999 18.2364 2.99095 18.1416 2.99095 18.0427C2.99095 17.9438 3.02999 17.849 3.09958 17.7788L3.74708 17.1292C3.8174 17.0589 3.91271 17.0195 4.01208 17.0195C4.11146 17.0195 4.20677 17.0589 4.27708 17.1292L5.56 18.4233C5.61788 18.4816 5.68668 18.5279 5.76246 18.5596C5.83825 18.5913 5.91953 18.6077 6.00167 18.6079C6.16737 18.6078 6.32624 18.5418 6.44333 18.4246L7.735 17.1283C7.80531 17.0581 7.90062 17.0187 8 17.0187C8.09938 17.0187 8.19469 17.0581 8.265 17.1283L9.5475 18.4225C9.60538 18.4808 9.67418 18.5271 9.74996 18.5588C9.82575 18.5904 9.90703 18.6068 9.98917 18.6071C10.1547 18.6068 10.3134 18.5409 10.4304 18.4238L12.2083 16.6163C12.243 16.5812 12.2842 16.5533 12.3297 16.5342C12.3752 16.5151 12.4239 16.5051 12.4732 16.5049C12.5225 16.5047 12.5714 16.5142 12.617 16.5328C12.6627 16.5515 12.7042 16.579 12.7392 16.6138L17.4021 21.2758C17.4721 21.3461 17.5113 21.4412 17.5113 21.5404C17.5113 21.6396 17.4721 21.7347 17.4021 21.805L16.6 22.6071C16.5064 22.7004 16.3797 22.7528 16.2475 22.7529H16.2471ZM22.6071 16.6L18.8133 20.3942C18.7431 20.4641 18.6479 20.5034 18.5488 20.5034C18.4496 20.5034 18.3544 20.4641 18.2842 20.3942L6.44292 8.55333C6.32632 8.43742 6.16875 8.37212 6.00435 8.37157C5.83994 8.37103 5.68194 8.43528 5.56458 8.55042L1.24708 12.8054V7.7525C1.2472 7.62034 1.29963 7.49361 1.39292 7.4L7.4 1.39292C7.49361 1.29963 7.62034 1.2472 7.7525 1.24708H16.2475C16.3797 1.2472 16.5064 1.29963 16.6 1.39292L22.6071 7.4C22.7004 7.49361 22.7528 7.62034 22.7529 7.7525V16.2475C22.7528 16.3797 22.7004 16.5064 22.6071 16.6ZM17.995 14.3562C17.8124 14.3567 17.6315 14.321 17.4628 14.2511C17.2941 14.1813 17.1409 14.0786 17.0121 13.9492L8.54667 5.48375C8.42689 5.38259 8.27347 5.33013 8.11683 5.33679C7.96019 5.34345 7.81178 5.40874 7.70102 5.51971C7.59027 5.63067 7.52526 5.77921 7.5189 5.93586C7.51253 6.09251 7.56528 6.24583 7.66667 6.36542L16.1304 14.8308C16.4369 15.1377 16.8144 15.3642 17.2293 15.4903C17.6443 15.6164 18.084 15.6381 18.5094 15.5537C18.9348 15.4692 19.3328 15.2811 19.6681 15.0061C20.0034 14.731 20.2657 14.3775 20.4317 13.9768C20.5978 13.5761 20.6624 13.1407 20.6199 12.7091C20.5774 12.2775 20.429 11.863 20.188 11.5024C19.947 11.1418 19.6208 10.8463 19.2383 10.6419C18.8557 10.4375 18.4287 10.3307 17.995 10.3308C17.9095 10.325 17.8238 10.3368 17.743 10.3655C17.6623 10.3941 17.5884 10.4391 17.5257 10.4976C17.4631 10.5561 17.4132 10.6268 17.3791 10.7054C17.3449 10.7839 17.3273 10.8687 17.3273 10.9544C17.3273 11.04 17.3449 11.1248 17.3791 11.2034C17.4132 11.282 17.4631 11.3527 17.5257 11.4112C17.5884 11.4696 17.6623 11.5146 17.743 11.5433C17.8238 11.572 17.9095 11.5838 17.995 11.5779C18.3594 11.5842 18.7068 11.7334 18.9623 11.9934C19.2178 12.2533 19.3609 12.6032 19.3609 12.9677C19.3609 13.3322 19.2178 13.6821 18.9623 13.942C18.7068 14.202 18.3594 14.3512 17.995 14.3575V14.3562ZM15.2033 6.3525C15.0868 6.46962 15.0214 6.62812 15.0214 6.79333C15.0214 6.95855 15.0868 7.11705 15.2033 7.23417C15.273 7.30854 15.311 7.40709 15.3094 7.50899C15.3077 7.61089 15.2664 7.70814 15.1943 7.78017C15.1223 7.85221 15.025 7.89338 14.9231 7.89498C14.8212 7.89658 14.7227 7.85849 14.6483 7.78875L11.9329 5.07375C11.8767 5.00894 11.8077 4.95639 11.7303 4.91939C11.6529 4.8824 11.5687 4.86173 11.4829 4.8587C11.3972 4.85566 11.3117 4.87031 11.2319 4.90173C11.152 4.93316 11.0795 4.98069 11.0189 5.04136C10.9582 5.10203 10.9107 5.17455 10.8792 5.25439C10.8478 5.33423 10.8332 5.41969 10.8362 5.50544C10.8392 5.59118 10.8599 5.67539 10.8969 5.75281C10.9339 5.83022 10.9864 5.89919 11.0513 5.95542L13.7667 8.67083C14.0765 8.96629 14.4896 9.12882 14.9177 9.12367C15.3457 9.11852 15.7548 8.9461 16.0574 8.64327C16.36 8.34044 16.5322 7.93124 16.537 7.50316C16.5418 7.07508 16.379 6.6621 16.0833 6.3525C15.9662 6.23597 15.8077 6.17055 15.6425 6.17055C15.4773 6.17055 15.3188 6.23597 15.2017 6.3525H15.2033Z" fill="#313131"/>
</g>
<defs>
<clipPath id="clip0_1427_4841">
<rect width="24" height="24" fill="white"/>
</clipPath>
</defs>
</svg>
